<mxfile host="app.diagrams.net" modified="2022-06-24T19:54:58.793Z" agent="5.0 (Windows NT 10.0; Win64; x64) AppleWebKit/537.36 (KHTML, like Gecko) Chrome/103.0.0.0 Safari/537.36" etag="XJp9SFCAq33WH0JBnA2c" version="20.0.3" type="github">
  <diagram id="txb2d9SoQPNutayxzRMV" name="Page-1">
    <mxGraphModel dx="3214" dy="1350" grid="1" gridSize="10" guides="1" tooltips="1" connect="1" arrows="1" fold="1" page="1" pageScale="1" pageWidth="850" pageHeight="1100" math="0" shadow="0">
      <root>
        <mxCell id="0" />
        <mxCell id="1" parent="0" />
        <mxCell id="dWsP7ECwmcrGhu4jSsE2-57" value="Color channel (2 bits)" style="shape=cube;whiteSpace=wrap;html=1;boundedLbl=1;backgroundOutline=1;darkOpacity=0.05;darkOpacity2=0.1;fontSize=35;opacity=80;labelBackgroundColor=none;fillColor=#e51400;strokeColor=#B20000;fontColor=#ffffff;" vertex="1" parent="1">
          <mxGeometry x="-310" y="420" width="450" height="60" as="geometry" />
        </mxCell>
        <mxCell id="dWsP7ECwmcrGhu4jSsE2-52" value="DCT stuff (8 bytes)" style="shape=cube;whiteSpace=wrap;html=1;boundedLbl=1;backgroundOutline=1;darkOpacity=0.05;darkOpacity2=0.1;fontSize=35;opacity=80;" vertex="1" parent="1">
          <mxGeometry x="-310" y="380" width="450" height="60" as="geometry" />
        </mxCell>
        <mxCell id="dWsP7ECwmcrGhu4jSsE2-2" value="" style="shape=image;verticalLabelPosition=bottom;verticalAlign=top;imageAspect=0;aspect=fixed;image=data:image/jpeg,/9j/4AAQSkZJRgABAQEAYABgAAD/4QAiRXhpZgAATU0AKgAAAAgAAQESAAMAAAABAAEAAAAAAAD/4gIcSUNDX1BST0ZJTEUAAQEAAAIMbGNtcwIQAABtbnRyUkdCIFhZWiAH3AABABkAAwApADlhY3NwQVBQTAAAAAAAAAAAAAAAAAAAAAAAAAAAAAAAAAAA9tYAAQAAAADTLWxjbXMAAAAAAAAAAAAAAAAAAAAAAAAAAAAAAAAAAAAAAAAAAAAAAAAAAAAAAAAAAAAAAApkZXNjAAAA/AAAAF5jcHJ0AAABXAAAAAt3dHB0AAABaAAAABRia3B0AAABfAAAABRyWFlaAAABkAAAABRnWFlaAAABpAAAABRiWFlaAAABuAAAABRyVFJDAAABzAAAAEBnVFJDAAABzAAAAEBiVFJDAAABzAAAAEBkZXNjAAAAAAAAAANjMgAAAAAAAAAAAAAAAAAAAAAAAAAAAAAAAAAAAAAAAAAAAAAAAAAAAAAAAAAAAAAAAAAAAAAAAAAAAAAAAAAAAAAAAAAAAAAAAAAAAAAAAAAAAAB0ZXh0AAAAAEZCAABYWVogAAAAAAAA9tYAAQAAAADTLVhZWiAAAAAAAAADFgAAAzMAAAKkWFlaIAAAAAAAAG+iAAA49QAAA5BYWVogAAAAAAAAYpkAALeFAAAY2lhZWiAAAAAAAAAkoAAAD4QAALbPY3VydgAAAAAAAAAaAAAAywHJA2MFkghrC/YQPxVRGzQh8SmQMhg7kkYFUXdd7WtwegWJsZp8rGm/fdPD6TD////bAEMAAgEBAgEBAgICAgICAgIDBQMDAwMDBgQEAwUHBgcHBwYHBwgJCwkICAoIBwcKDQoKCwwMDAwHCQ4PDQwOCwwMDP/bAEMBAgICAwMDBgMDBgwIBwgMDAwMDAwMDAwMDAwMDAwMDAwMDAwMDAwMDAwMDAwMDAwMDAwMDAwMDAwMDAwMDAwMDP/AABEIALQAtAMBIgACEQEDEQH/xAAfAAABBQEBAQEBAQAAAAAAAAAAAQIDBAUGBwgJCgv/xAC1EAACAQMDAgQDBQUEBAAAAX0BAgMABBEFEiExQQYTUWEHInEUMoGRoQgjQrHBFVLR8CQzYnKCCQoWFxgZGiUmJygpKjQ1Njc4OTpDREVGR0hJSlNUVVZXWFlaY2RlZmdoaWpzdHV2d3h5eoOEhYaHiImKkpOUlZaXmJmaoqOkpaanqKmqsrO0tba3uLm6wsPExcbHyMnK0tPU1dbX2Nna4eLj5OXm5+jp6vHy8/T19vf4+fr/xAAfAQADAQEBAQEBAQEBAAAAAAAAAQIDBAUGBwgJCgv/xAC1EQACAQIEBAMEBwUEBAABAncAAQIDEQQFITEGEkFRB2FxEyIygQgUQpGhscEJIzNS8BVictEKFiQ04SXxFxgZGiYnKCkqNTY3ODk6Q0RFRkdISUpTVFVWV1hZWmNkZWZnaGlqc3R1dnd4eXqCg4SFhoeIiYqSk5SVlpeYmZqio6Slpqeoqaqys7S1tre4ubrCw8TFxsfIycrS09TV1tfY2dri4+Tl5ufo6ery8/T19vf4+fr/2gAMAwEAAhEDEQA/APtDfHqtnb3EO397t2xq27eu773y12UPw9/tLSma6tVj2/xM1V/gn4V03QdHjVZFkk8n5pFX5tv+7Xcaw0MNmqqzNGy7lrsnV/lND5t8ef2toOq/ZV0mK6jZv3c0cn8P+7VjQftVzoiyXMMVndf88VbdXfeOXbypPLjVlZvvba4mHVY7O5VZo2kZW/hX7ldUZ80fhMfhkd58MfhjZ+JLZZNQmaTc33Y/l2V21z+z9oqP+7h3Rv8A8tGb7n935f4q4Pwf45hs/ufLu+b71d1pvxFt7ny1eT5v9pq45SlzGkTe8JeCbPwxDCsatGyr91ZPl3V0CaVeXNnJG22Tdu+9WemsLeQr5LLHu/5aVpPrGyyZY5tqr/31WPNIo5nxDo82m6bDJMvltCzfLG3/AKFXO39ncapC0m1Y41X7zfeRq6jxDqslzCrPMsn+zXF+JPE7QwtDD8sdaRA43VPBN5ZzM0dxbtH/AA/N81Yd/bXDzeTDeeZIy/3flra17UprtG8tmZa5mDdDc7ppvL+b5l2/NXREy1LUOiaxCjM21l/vK1U9e0nVEs2kktWkhVfmZW3V2Ft4qjsNNVvL8xW+Vf4qz7nWI4Ipmhm2rL8yqrLtojIUoxOHvJrGG2jWSNVZP9n5qyfE/i2G80Ga1j/efaF21rQ6JH4n8VW6yNtW6k27lXd81e0aV8GdB0rSreM2du0yfvZGkXd8zV1e1jD4jHllI+YfDfwlX+x7qZ1WOFY18zzP7tV/jN+zBJ8PdNkvrW+863X5mX+FF2/3q968W+KdB+GNneK+my3klwzL9nX7u7+H5W+X+7Xhvjz45ap4iuZo7yzX96v/AB77v3UX+zu/iZa9/K8RjKlT2lP4Twc0pYOFP2dT4jyd9HZPlaRd3+7VeaxZPus3/AWrYmhkv5mkdlZm/u1ImjqiK0iyqrfd3R/fr7T238x8N7Pm+Ex9N1u+sE8v7Vcbf4WVvmSuk8JfELUra82/bPO/urcR7qsadoNnM6r/AKxv96r1zoK2cO5VZV3fwqrbK5sRVpv3ZROvD0qsfejI6jTfEsktmrT22nTSNzvQ7AfworktL8KTTWxYyOu5jgCPHFFeLKNK+h70HX5Vc+m/DmtxukMka+S38X92usufFvk2ax/+g14LpXj/AOxwKvmVpW3xH851+bdtr4WVI+29qema3f8A2+z2o25m+auHv4d1y25f96pE8eR3k0cO5ftDRs0cO75nVfvMq/eauB+KP7Sfh34dXmpQ6h/bl5NpNu11qEOl6XJdtZR7d37xl+VWZaIe6TI6qzS4ttS3Qt8v92rF5qWpQu0kLM3lfeWvivwr/wAFO/FEPif7RJpfgW+0WWbdHHHJNbXXk/L+7VvMb95/tMu1vvfdr6Wh/bJ+Gsem6Hqz+IFjbXvJ3WcMLXN1pW7dua7jj/1aqy7WZd38LbdvzVtKm0ZRqJ/Ce0eCPiFeTPGt1I22Jf8AV/3K9Cg8Xte+WqN8zfdrxn4Q/FHwP8Ztb8vwr4k0vWr64h+0/Z7dmW4eNfvMsciqzf7W37tZ/wAaf20vDvwi1WHS9Js7fxRqy7Zbpre8X7LZL5m1l3Lu3Sfe+VflX+L+7XHL4jpiereJPG1wkrKzbVWuD8VeM7ryW8lt1fLPxs/bD8Ua98SodYsb6LwrbrfR2tno99cfabVIdvzed5f+uaX5m+6v3l2/dr2L4P8AxX0X4/29xcaJfKt9axq91pczbbq33fe2q3+sVW/iX+8tbUoxMasjpLPW7x5trea27+7V6G8mvzGrSN/sySLTbawk03WPJaO4Zf3e6ST938zLXYQ6Cv2xY2X7VCq/KsPzV0S5UTE43W7PUppo7dLj5f4qvWfwfV4VuLzUGhj2/Mu7atamm/GbwLN8VF+H63yt4ia3+0+THCzRJ979w033Vn2qzeX97b/3zWtfp9m+X7cslr5nm+Sse5v++qz9vL4YlcsRvhHwfp+j38Mkc32iNV3bvvLuroNe8bR6VDIrTL93+9XnPiDxVeQ/6PYQy/P91VWuF8SeM7iZ/Lvm8uaP5fmqoUZT+IzlUii98TryTxt4sjt4/mt0j3SSf3Gauk+FfwH0N0kbUrGK8mVmZfObcu2uL/t6TTbPy0t1Vpl3NIy/M9dB4S+Kn2CzuLzWrqz03TdNtZGuLyaRY4reFfmZpGb5V/3mr0qk60KPLD3Ynn04UZ1uafvSOf8AiF4DvJfHNvqFtaxWtrFuXcsfl+c38Py/7P3az/H+qw+ItKtVjkt/Ot4/3K+Yv3f4mZfvba8N/bw/4KK6h4S8TyeFfAF5YSbY4fO8RWt1HdtNNJ/yxtP+WatFuj3SNu/iVV+XdXxe/iq+f4ryeINW8RalNr11fNc3GpR3H+kSyfd3NIv8O75fl/2dq7aKWZSjyVJr4TkxWHp+/Tp/aP0QhSZ/3i/Y9qt95Vauq8B+EV1rUv30kTL/ABbflWvlX4c/te614DeG38Xab/wlGntt23kLR214i/3v+ec3/Atrf7VfWHwi8beG/iF4eXVvCupLqVnu23DKu24tJP8AnnNG3zRt/wCOt/CzV6VbPaOIp/uZHnYDK+WXNUO+tfhus8O5r3y/RduMCim6dcq9qrPDdMzc5VeKK8L2sj6f2MSx4w+GPgf4UWem3mua1qUi6lcfY7e1t7Xz7i7k27m2qv8ACq/MzNtVa+ZfjN8Rda+JelX1j4VjsPDOmxXEcVrqEc032pP+WvmSN821tsfy7VVfmb+LbV6f4/ah4w8c6prFxfWFxqCySWflr5kjeGrdt0StHG3/AC0Zm2rH95t3mVwvieGbwl4etfCNtY29rcW9n5t9HD5e20hb96u5l3eZJKyxsy15X1io5e8df7uMTBhttW8Ya3Z3l5fapcatb2ckHh/UIbxra/SSPd+8Zfm2yNuVf91vvfLtrpvD2pa0ltDZza5Yakt0q/almjX+2Ub5omZmb5ZG2r8vmsv+8rVztneLqm2bTZLjTdQuGW8jWH5Wt5o/lZVZv4Wby2Vfut83+zUj+IV1bUo76FbjT5IoZlkjVW/0dvMZm2/N/E0m5lb+GuP2spSOWNU1tY1vw+bNtJ1WHSVutLt/MjmuNJWC8smVmXarMrRtuXd975dzN/vVR8B6D4Vv9VuvEmm6Xpdm0sjWayXX7uK08xfvMqsq/wALbd23d/D975tDRLm117R7qx1TbJHcRybZlVZ2iXbtVWbdu+Vtv/fP3WrN8VabNYeHpLXUFluLe1s/IjaGZrZdrNtVmXb975v7vzfd+Wu6nivs8pXN9oxdK8GQ6q99Darql0zeZ5l1HG3lW7btrN+7ZmVmVW+X/aX+Gus8PWzWem2drqun/bI7eT7NJcfKzeXG37uSRV+baq7m3N8zfL/drh/g/Yap8PdVt75vsv7hl+1Q3DSNb6gvzKvmRq3y7lZo2Vl/ir0zWfip/wAJJpVxDbabb6XDeWrWNxIq/wCj/aIW82ORV/hZoPlZf4vmqcViZc3umdOrGMSbQY9W8W6xb6fM1na263TQaktjCzI/7xdqq0m5l81f7v8AvVh+PPhFoM1/a29tYyzNYaleWcl5HdN9ou5l+aGRWb+Lav8A478tc/oPi3UNKLK100NvdQrp1x5fy7Nreav7v+JV2x/L/s1cvb9rz93c3S/vd0sM0cflW9vN91ZN38MbMqq38Ss3zVywnKMveJliqbj70TtPhd8QvHXhjSo9JtviV460XS79VnsbWbUFktfOZtzL5jRyM0bbWX+JVb5futWT4/17xd4w8nT/ABD8QPGGtaHuuIljaZWt3kaRWVZGj2tJ935Vb/Vfw7a52Hx5rHh7wMslvp8t1JpMkn2yzjjVtiq22Rl/iVvmWRt3y/8AfNbV58SNN1i5t/7Nt7dVt9Qupbdpo2j/AHf7ry9v/j25m/vV0e1kaQq0pRG6P8NIfhppt9rGhreaTqWjXkO1rfbaO7SMu1dsjMqt93a3/Avlr1zwx/wUF15NHWTxR4Z0vVre3k+xtNZxtpd490v3Vb/WRybtrMzKq7WrjftFr4k0TVLe4vJYfsas26TavlLHt+7t+Vm8xdu3b/6FXD3n2yw0S6s3tZY5Iv3C7oVVoo1+X7rfelZW2r/F/tVjGUv5iqkrfCfSXwc/bS03VZmbxZY2/hNZY5ljvobz7TZ3fzKvzblVo13bvm+b7u5tq123jPwlpOq2cNxb2axySr56zRyeYtwrfxL/AAsv+0tfIvirw9a6U+qM7W6w6atrYzRx2rNskkZW2xrubdJ8vzbflX5q0tB+NmqfstaZqFwurL/wjKySNb6TcSLPFe/N/q7ZW2ssjf7O3b/FXVRx0oS94xqyt8R7VrCSQp5l1cW9rbxN5XnTTLHF91m+83y/dVv++Wr41/a3/a6t/H9m3hvQbi8XwzcedBqCyeW1v4l2zRSxtt27vIXyVZfu7tzbvlX5ud/aT/aZ1T9o3WIftFrb6f4dsLqSXS9LX95s3fdkmb/lpJt/i+VV/hX7zN5veaOugvHrF9a+ZubbYtNcL/pd5t2rGqt8zLtXc38Nezis0jKPs6a908OnQl7TmlIjTRY/EnhuPWr/AFKKzkuoW+z3G3bvhXd5n2aP+FW2/wCsb+7Wl4X+Gkdt4Sh1iwjt4bq/kZYbW+jb/R49rLHtb7zfe3M3y7tqr/E1R2dhcXOiR6prFv8A2xrUq29jpulzNut4l2qqtt/hb5dzfLtVa9C0rwjfeJNShhurO4vPtEipt8zaqSf88/8A2Vv+A181jMZKMfiOrl5TBtviXrHhXWJtQvLO3vvA9qtrpFvp9581vcfxSSQ/885Gbd+83fM27+GvZvhj4bs5nXxl8NdYuNF1S3ZovMs5PM2Lu/1NzbyfeX/Zb5WrP1X4X2PiS2jt9Whi1C1ikX/RW+WJG+623+78rNt2/wALV5X8Kn8XeA9Va40VdDuLi/urdlhsbrzN9v8AaWiZlXcu2NV3bpG/iX5VrwZYj2seajLllE6qX94+8PCP7fTWGgW8HiTwP4nh1aFQs0mgNC9jc/8ATVVkfdGW7oScepzRXjFj8Qmv4mkaPdIJHSTyYFmQMGIIBHTp07UVy/27jVozr9qZ3w0v7yzuV0HSZmabVlW5ka32t5Sxru8zc3zfdZpNyt/Czblb5q53XrCG52339tS6hq2reZLN51wsm+Td/dX73y/xfxNu+7XlOg+NvEl54b1iz0FVtbq/t1tr64jkZri7hVvur/d3bvm3fM1YPhv4u+INE8Zx6pfXEuqSW8K2bWs22NUjX5VVVVdsbL/u/wC9X3GIoSqy/dnJUrxlGJ7hptrcGGS1kmihjaPb++ba23+H/ebcvytU39mww7WkhWaHarSNDu2/Lu/ebf8A0Jf/AGVqj8M+LbHx/pf2jSfNaS6bctqvzNFN8q/Nu+Zvlb/d/irYudKvrOw8uZfm8tm3SLu8pVb5vm+623/0Fq82XNH3Sox933SGzv5LDVY7qa4WNfMVmuI1/e+Xt/u/xVvTXl1qXk3ytbsyqyt5luqrd/N/d/vfxbq5m5Rrl1t/JWRvMVlht/m3q3/LNfvfxfMv+zWh4e1hU037DJD5O5f3cm35EaswjULmpRRwxR3ULbbO8XdIyxszRL/F8395flas+2tvtm21jbzJLjcv7tvle4j+aPb/AL3zf99Va3tP9ot22wwxTN5ce7dFFNt+ZW/6Zyr8v+z8rfw03Sr+PQb+P9zcRx+ZHLJ827yl3fK3+8vzLJ/wGiNUx9r73vFW80S4SG4aGzVY/M89VVl3Iq7vvf8AfVWvCVncPeNZyfaLeG38yeHdJ9yRo9vyq3yszL95W+Vl+X722naP4huLzUrex2qzTxrFN97ajRt83+f92rWpaPqU15JcXX76RpI2+Vdq26tu+83975V/76qpSCXLP3olXTXt7DWIY0hulVm+ZYbraybV/dtub5t0Tbl+780TbWrPv/O162hmtbfy9Ss45Lb/AEf5XuFVmZW2r9773zbfvKq/3a3H0248QQxtZyeZIv3o/wC+q7vl/wDsqxdV1Wx8Epa3Wq3Frp9vNNIsayMyu7Sbdyqy/Nu3Mvyt8v8Au1PMY8somtZ6la22j3X7xvsdvdRwRyRt9+P725l/i+Zf4f8AdqH4kfFHRfhQ9jqniHVGt1urhY4ZFkae4luJPlXbt/urubc38P3a831v4xTaPf2dxDp9nb6HazLPeSTXUfmzRqv7vav+03/ju2vmHxh8TtQ8T36tcSNNcKskUMkjefKkbSSssayN/vV0YWl7WRpGrKEfePoD4v8A7WN54qvNe0OwuNNk09bhV0vUIVkW/wDJVllkZm/6ayL/AMBX+H5q8v1LWJte1W4vLmTzr66kaeaST7zyM25mrm/DFhJpSSSSN++uNq/7SfxVqPf/AGb7v7za3zf98/w11TpRh7sTOUpS+I6K2tpNOtlmaNZtq/eVvubvl/y1O1jW5Lu/2uytJErSqqtu8rd8u1f7v3qz7NLq9sJPmby7ptqqrbd//Af4trL/AMC/4DXXfCv4V3Xi3UlWT/R7Nm3TXn3t+3+Ff7zf+zNXLWrRpx5pFHUfBD4b2/iS/XUriNpPs8bQNN83+j/dbarf7W1f++fmr3J/D1q9nH9nmaOFdzMqx7d/95lb7u77qtUfh7R7fw5pS6ba2e1WZoI7X7v7tv4m/wBpv/Qlqx4k0S40e5tbPS/s+pXWk3C3nmfvPsGoQzK0Uk0n+15bN5f8O5q+LxVeWIqc3N7p1Uqf8xzeqzXWlalC000sdvtZdyxr8m3+8v8Ae+WvM9e8Ka1beJ9e1jRYbWS8bw6tjpNrbrtlSSNmZmj/AIVX/Z/vLXq3iHydS/eWsizSeXtVoZFbe23+L/a2rtqj/YkiPHHHcWtvb3m28sZGk+VJNu3a3935v3bf3WVf4WrHDylBk+zlze6fKaaf8QvDyfM1z4d+3lrz7Pfa8thNMXY5lMZbOGIPzHk4zRXpf7QP7K+q/Hzx1HrFneTwR2tnHYNEYj+7eMsWHEbZ5brn6cYor2niOZ8xtodH8FvG2i6k6rZzXEcy28y3CzbVaWPcv3f9r5qb8Tvhja6rfySLDF9oVmaSRW2tKv8AwL+Ja8d1v4M3Fhpqw6bJ9ovpfM+XcyrNG33Y1Zvl2qvzfN8zNXrHgy28RQ6Jo9nq1nKsjfuNQZbiNm2r8qyfN95tv3l3V71TGRh+8pyJ5vd5TP8Ahx8L/wC0v9M0nxJZ+dbt+8XbJA1o235fMX70f+993/arutB8T6hoOsTaXrkmlzat/qvL3L+9m+9uX+Fm/h+X738S1DN8NLXUpo5rBvJ1K3b92yzeTL8rL/y2+7/wH7teY+J/iFb3l/eWOraLa3VjFudvJ8ue4T+7t2/LGzMu3cvy/wCzRRxH1qXuyM/g+E9u0rXlhSOZo5VW3uGljWNfuN5m7au37q/5X5qtX802palcQ2cKratMvlq38Cr93dtX5vvferxv4OfHXRU1WOxvLy4jt7iFoI2vl8u6T/pm0y/LIv8AvbWWvXr+2ks0kurdprq3+zs0i28i+bu3f8s12/NuVt23+Ha33aKmHqQlyyKjKU480XzDfJk+3xx3lwtvMqqvmKyyebu+75i/8Bra+zR6lbNDa3Uq3lqv+rkj+V41/vbvvfLt/wDZqw9bdbOa4uL6Szm0+ytdzX275W2t95t1Y9t8bLO5SZbOG6mXSbiNo77y9tu8bR/Nu/i2ru2/3vlrlnGMfeM/Yx+I6aw1tYYWvN32WO1aT7RIy+WsS7dzSNub+FVVf92sPxt+0hoPh5L6FLi4vptNmWWb7P8ANFb7lba3mfdbd8396sPxnPqXirR7O1vodNtdJuPOudS/0hl024hXb5flybWbdtZWbd/D/ergdV8MaL4X8RTagn2C6klaO5jt47jdFZN8reZ/s7f4fvfL92s6WKhP3Ylc3JE1vFXx+8UQ6PousaXo91pOn290sqw7vm1Daqy/vJNu1Y1bcrfd3f71ec+Ifi1si1RnuLrUIb+ONd1xNuWK4XcrMqru+Xa2371N8efGa1vLP+y9Phims7fbuuLhmkV5P73lt8v+7XE3MN1rc3mX0jRru+WFvlZ/++fu/wDjteph6F/eqRMZVfdK+q+LdS17SrWxjhZbWzXYu3/x1m/vNVzw9pC6bbMq/NeSsvzf3KIfLhdY4Y13L/F/DFW54e8NzeKL+3s9Ps7q6kb7zRr5ksrf7MddU6sYx905480iG5dodVkjjXc0sm2P5vmeo/sG95I23Xkm5tscK7vu/NXpXw9/Z7k8T3m7Vrq48N6fZw7bzUL61kVJbxm2rbr/AA/M1ejeGPHnw/8AgbeSaakf2zVLOZoLi4sYfMiT5fm3XH/AW+7/AArXk4rHcnu0o80ipRt70jB+HX7OWra29nNcxxfZZbH7TNeK26KJmVWjjjX+LcrMrN/DXv1/4b0+68Nww+H7ew22EnlMsLLH5Uitt+Xd/wB8/wDAa8l8YfGmb4hWdxpfh2b+xbGLy7yTVt3ly7Vb5vm+6u77qr82371d94W1vVPANtZ/25JZ3V1penrO1xJdL9n3bvlWRm+8u5l3Nt+9u+WvmcZKvWip1Pd/undS5ZRI7y2j1jW7W4tobrTWuJGvtQjbzGt5bhY1i2r/AM89v+sWP+Jlqn4h/aQ8L+CU/sGTWt1nL+9kjt9rfaJFmiijVpPusy+dt2/wqrVuarbfbNcuLhIVuI2ZWZpG3b127fm/3lauB034FaXD4n1K8vLfS7iG3jt4NLsZrFZItMjhZm3Ku3areY3/AHztb5mrlpVKb/jFRlL7R2Vhpd0+pR2M0lxp91qjNPaqyszWUis23dGqs371VX/vr5vu1h+IdaV7NYXWKH7Vt86RVVv3397d95f7rL/vVa1KO81vTdNsZNQit7e3aZvtFxIzNFG3lLu3febbt+X+9uqmmpTeIrC6vLNl+2aaskV1cXFurfaI2XbHc+W3yq3975m+ba3+8c0ZfwyZ1fsxMqDVo9PiBmjmZp/3gkhuVhSYD5Q4B9dvUcHFFd/pngqz12W9vJdcsYftF3K6C10Sa4iILZJBiYKoLZwMDjBHBFFaxqSirC9nI85s/D2y53NJ825flZdrJ/7L/wACrctrBbxJpHuFjt1VZdsis3myfw7f9qr02lL9pXdD5f2dlbczfN96pJtEX7NGtqtxdMrN96P7n/fNP28itTg/ijDq1t4Pkk0HTbfxBdLeR3M1nJGq+VaxqzSbdzfvm3bflXa391a8V0H4deOktv7ct/C9w0OrWe66W1mhka9hk+aaSSNm3Kzfe8tfm3fw/NX1ZbeHGe2kmuVit1VfNab7sSKv3m3NTrbR7O5dryC8aO1WP/j43R+U6/eXdJ83y/3dtduHzZ0Y8sYoZ8f3/hjUPsFjb61Z/Y9Q1bb9hW42+bdq0ixRrt/h+Zm+9XZfDHx54w+EWsf2Hq1nf6huXyLOzmhZby32/ejVlX94q/NXtGq/BbS/HnjbR/FFxDqix2tisHkySNbRXce7zV3RyLuXa3zMvyt/s7q1LNLXXvEK3VxcNqFw0jRRssPkWcSxtu8tVX721m+83y/+PV6suIL0+Xl5v/bTOUby5keO+NtB8RfEW8+2NNBpen3U3+i2rXnzW8e3a37ldzSSNtVt33V3N81dlbabqEXhWOa1bTbf9y0UklwrLdeS33m/d7du773/ALNXUf8ACEw6beedcXlh/Zrt81usKqj/ADfKrfwt83zbm3fN/dqS/wBKt/sc0jSS3Uktv++uJm/dRR7mb5V+8zfN/F/drx8RmXteWJUublPCfjTcs+vQrJDqmsMysu28kaOwlhb/AJZxxrt3Kv8Ae+7/ALTVz/jDXrfVNNt4Uh/smGKNoPsunqy26K38K/NuZvl+bd/FXs2peA9L8QzRzJpt/MsUO5ftUjRxIv8Ae2/eb/x1a42/+CF5qusRtMtvoejy/wDLx96W7X/pmtethcVRjGPN9k45Hi8NtDa7mh2xsv8Ay0m27k/4Cv3a6jwr8E/EHjVIZLOzuFjvFZo5JG2tcL/sr/Cte7aP4D8K/Dr7Pa2/hu4mvrhVuVkvts8vlt91mVvlVfl3Ku3d/FWf4n+JevPDfWvhm1uri4nVYpriS3XZ/srGzf3f9lVrapm1Sfu0l/4ETy/zHH+BP2dV8lZtWaK1ji+aRVm/h/vf7NdBc/FrR9H8nR/AOm3lnIsfkalfSRrJ5snmfeh+Xcq/+PNu+bbWTeeA7rxO8dx4i8QMun3HzNHJMzS3e3d83+183y/L8v8A6FXbaJrfhvwNpS2+iWqyWMvyrM237VLt/hX5tqr/AHmrhr1re9U96X8v2TSMPdOdv/Dfjbx/oMdrfQr4f03ydjfapPLbUNrMytIu7/d+bb/D/wB9VdH+Gljpu2G/1bTZryX7vl7pLeLa3zfvPuru2qrN95dtdViP4kPeW9xD5l5qW2KGOO18yKykX5tq7m+82373+98vzV3CaPpPgaGzkh0nUo9Wtbq4ih01oY5Ley8xVVvl2/vFbbuWP+9uaueeKnCn73u/4Q+r+7zSLXgX4dWaaVDH5em/Z23eZHJHutYoV/5aMzL8275fLj2szblbb8y1JrEMdrNJZp9nuFaHy7hd3mL8y/6lmX5d235WVfu/dZt1dBpNzdPbX0fiS1itbNla8js7dV2W8nkr5cjeWv3m+X5fu/M33aq6rrd14huY42upbiO3j8iFZm/4949u5vl/h/ir52rUbkVKKjH3R0MzX/g+82XDM0TNK0cf8H3fm/3furXJpc/vpPOWVmt13fM3+t/2f96tLxDctD9qaGaWO3jXyJJrf5vl/uq33a8FfxPrkPjO4aK6mZYpG2wyTKyIv91v4a6MHg5VoszlUParzTbhL+PZb+ZfK25o5GWNd38S7d3zf8Brzn4nfFTVPAevSLpd1EupReYreZH9xZF+aNf++mXbWPf/ABh/4RJJG1a+XUNUvP8Al3t5m3bf7vzfw/LXA+IfFV94n1ibUGZY4W+byW+ZkX+63+1XsYLK5RlzVCZT909A+G/xj8YeGtGuFs7zRvLu7lrl/OdYWDkKG+Udvl69zk96K4my+Jxs7dYnt7S88vgMZWj2D+7j2/rRXqexmtoGftZn1tFYM8LKyrG33V3fNUd/Z29vMqyN50iq25vtS7U2/wAO1f8AgNcX8PfH8nxF0TS/7DsbXS5tcWS+juriaHypds377y4d3mNu2tu+7t2t/dVWr/E6x0nwB4j0/wAUX+sJN4g06xurTS41uo7SCKObb5kkkbfLJtbb83/fK/LXzX1eV/Z83vHqT90PjN8Pbf4hXLXmoeJrrRbe30280zybNd2+3u1iVmkVlb5lZV+7/DW94J8PafoPhLSbG2+3tp62cMFv5zbdluq/u1+ZvvbdvzfebbR8PdY1bR/J/trVrDVm1Jml/tRoVjX5lZltrSHb8yr/AHpfl27drNVyz1u3157q303T1kvLVWl/0688jzbdW8r7SrLuVVZlZfu/981EqlRL2f2Yk6le28VNc6lcafJHFpsdxcRwWrSW8k8svy7vMk2/Kq/w7m/iX/gNXNVsL7xJrGqLN9nks3jaJoWmVlfcrKqtHt3fN/3zt+7/AHqk/wCFneAfB9ncSXHiLQbPdM06yTXUf2e3+X7se35m/ib5tzfM3zVn6v8AFbw3qej/ANpLqkX9lyssS3UMbR+azfwx/wDxVZfvXL3YB/28aGla3faVqsdqlvpc1rb2qqqx7vN8z5fvfL+7Xb/tNup03jZfJkZZLPdF95o4W2p/e/i+7XH/APCc2f2Ka68xl0n7sKxzLumZm+Zdv3mZW/ib71UX8T6bf6ruW8ivtqru2ssixbvur8v+ytXHB3+IzlVOqfxDNrzrJM3k2/8AdZWb/vpf4v8Adqrf2EdtctJbtdNdfxSSR7W2/wB3/Zrnf+Ew+2X6wxzSzLbt5SrHGytcM33VX+Haq/xfN81OfxnZo6xr/q4tzXkzNuW0Zf4Wb/npu/75ro9k4fCc8uaRoXkMM1/IscLNcS/LJM3zbPl+X5v4Wb5ax7BF1J7W4eRbq1ikWCbbN5Cv/eb5v4d38XzfKtY9/wCJ10288uzjtbWTzI55JN25XZm/1jf+Or8397+7WlYXkl/bRs376GJds0jLu3/N/Ey/7Tf+g1tyyhHmJhOx01n4Ss7mzjurrSbe8h+7IrQ+Yr7fuqq/wxr/AL3zVval8NNP0TRFmjj+2SakyxXC2/lt/Eq+XbfK26T/AHd33ttZPg/xPb3801usjeXcSLB5k0iwRbt21du1ty7fm3f3V2/3queCfsttqVwusXFxdXXhyT7Tax7mWKWGPdtZd3+rji/ib/gX3qz5ZS92Uj0oxpzUS18PYbzwxc6tcLpMsdxpsPm2elybd9xD95pGZVbb8vzKy11HiHxhZ/8ACMWurSW+28+2Ry3l1Cqx/vJNyrDbLu+98yyN/Ft+9tri38W3GvTapNdXWqTf2tNtm+x2/ltcW8LbYYYd3/LNvl/i/h3NXP3PhWPxhNcf2lfN9s0maS2h8y48y3u7rzm3Qrt/1ar825t33V2tWcouUuWXwh7SUY8sT0a5+K+k+J/EPh+G3m+0XGqWsjNDDGzebNabYJG3fd+ZWX73+1XiPxg+N994q+M03gfwzcW8drpO3+2NS27Udo5Pmhj/ALsf3V/vSsrfw1X8N/HW68B6PNp8C2d5qmkxyRW9xC26KWaPzdrR/d3Rsq7lVVVV2rXL/A3wHN4G8HXF1rl5E3/CQSf2nMyqslxdTeYsX3vuqu6RtvzfxMzba66GAjTnKtV/7d9e5jUrX96R13jP4l6xrHiFvJum0mxik/49bWTbb/8AAl/u1y/i3W9L0rwfdXyyRTTW+5riby/Lb/0H5q9M8bfC611uaSHSZI1jaRVWRlZXf/gP91a+efiLDDq+pXFjatcX2j6dNGsy7mXzZvu/M3+81ehlnJVtGP2TlhGU5GLYXlrr3jC4021kVpLdm23X99l+83+7XZf8I+2m2N5b38crR3DbmmX5XVv+Bf8AAq8pv9Sk8MXNxHZra+c26JW2r8sjRsu3/a+XdXbeD/jBefEXQPs955UOrRL5rbm2+av/AAL+KvfqUZcvNH4QlErx2KOWxHMyq2AZI13EUVX/ALUls/k/eL3wWzRU+zX8xGpTv7OzS20eN9QaxksIbqJlt7jzNse1t21mb+Ft3zK33mavQPAHxU0nUnk1TxVpus+LNY0ua1l026a8aTzbeGNWaHyZF2+YzKu5m/1vm7l21574hsNH8c+P7yO2s4tPjXc03l7v9LjZdv8AwFV+Zt38PzVNdaVqSW01vCqyXWlraytdLH/e+VvMb5m/hX/d/d18/KX2ZSPp5YeM/dOm179q7XvjHZ+dYaL/AGPqUUbQR6s2pSNsWRm8xVhXau5Vbb833dv+zWPoOieItV02aOXVNX1S1aTcy3moSMsu1dq/Lu2qqqtZ7+IbiG/j+3yWE1qq3EEzRyKsrq0itHIu3a25lXa3/wBlXRWGveGf+Ef/AOJpHqi3lvCqx6fb3kcEVuzRs393d5m1dvlt/e/4FXoRr4eEeWnDl/E8meBqFXwxpVjoPxa0PTbyawvry6mbdt/f29ptX7u5vlZt235vurXTeNvA0PjOFtY02RtL8O2fl3jK1r5/lSRxt5ltDH91l3L97+Jv++a6b9n74IR6a/8AbF/eXEka6fJBcN9jXzbKSTbtjj3N+8b7M27duXa0u3b8tbmt+G7XW9SX+0NH8630lobOzka6VbOxhXbL5y/N5jbWVV+Zvm2/w/Nu5q+Oh7X3H8JzztD4Tk/hv4YazSxktY7i3maGSeGTUoVtoorPzt0kky7t3zLuX5lWX7q7fmrWhtrPSnure2s/s91LJ++WOaTzZYfMbdM0bLtVmXy1+X7u5v4V216B4n0f+x9NhtdVjl1C+v8A52t7yFY2RV2sv7n+Jmb5tv8Au1R1jRLf7Nb6fefLqGsx+e1vM3l3D/xMzbW+Vv8AgX8NcH1rnlzSMeY4u48PfaLZWf7RYyQTSLHHJcK0ssbfNt/3Vbb/AN9ba6TwlAupPuv4d1rYL57eTGq75Nyqu1W/h3N93+Lbtqxqug3l/qqtut5Jv9bJtm+Xb93+L/4n+H7tFy1ro+j3HlzRK1qu75bfc27+Hb/z0b/K1M6vPEOblMXUrOHWHvI/s9x5jTRpHHDJtlf7rKu5f9Y3y7W3fwq38NbFz/pMM1usNvbsq+bcSK3+io3zfdVfu7VX7tTWdg0lzNH5jLNt+ab+G0X+L5fu7m/8d21tW2jw2dt5ky/6Pb7mX5fldl/i/wDHd1cdSqc/NzGTptncaP8AZ1jWCO12tBbw/da4X+L5f7v8X97dWto9hNYQzNc3UzQ3EfkTNDGzLLtk89Y2/wBnd/D/ABbajg0eTXvEO1dkjSxrthVvmt4f9nb93ctb264SFv7Pt4objcssPk7dnyt/Fu3fL/drlqVZcx0UYyOX+Iut3nhizhmvPElxodxp0kdy0dnbs155Lbv3dtt+XzJf9Y25mZdu7+LbXmfxC8c658WvM1C3t4tD0e1t1W6a1j/ey28e5lh3febytzNJ/d835vmauy8f+Fbrxb45sbG2hlk1C6jka41CNlWWyZtvl+Wsn3ml3N827/a+WvN/j94zvPB82reCY7f7PHb3XkX0n/LW4/dq0kLf9tPm/wBplr6LAxjPl5fiOzm5/wDCO8Q+Bm8c/EibUtE09dP8I6Xb2dnbtN80FxdfZllmWST+H/lpub5vuqtdV8KNSvPGXxg1C88m1j8J+D9Jm0+GNlaPTXZZNq/K3zKv3ZP+/deb+MPD2qeG/hvoPh2a4t28QeJluJ1t5pGaLTFZV/5abvlb7275f71WNH8VR+D/ABPeNbr9n02309baNlaRvte6HbNNt/iZpGb5f4flruq0ZVacrf8Abv8AXmT8fMfTHxA8Tr4G8BahcN+5muP9GhZf3jSzSK38X8KqqtXyDNbfZvM/d3DWK28d8zLIyxStI21dv+1t+b/gP+1Xunxgubzxb+yvpOqWe28XS9QsZ9QhjkaSVI9sto3y/wDTJpFZvmryHwe02sTTRrNbzW9ncLpjRtH5e/av3l/4Ey1z5Lh40qUpf3vyJw8Yv3Tj/G2jx2cN9qVnGszXF5Ctvbxt/wAe7bdu5d33vm+b/gVVfCfhttH1K3vLaRtQvLCaNZoW2rKjLI25Vb+7tZf++q6bxDDNbWWoaglr9nh024kb94y/6RN5bSN8v+7ub/gNaXhLQf7VsNH1ySS3kVofKmXzP+Pjd91W/u7lk+9/srX0XPamV7PmkNv/AOz0umLx8SBZE7/KwDD+dFexWfwPsofD2jrHcaa8f9nw7Fv51t7qJdvCSo5DBgMDkA4xwOgK8T61E4fYyPAXvGsJtJbSoW+3Wsn9nq0a7VlkZd25m3fKv+u/y1WptbhsLPVo30+W++9LHZxySN5q+ZtaP/a+bzP97dXJ32iatpuo61cXFq32XSbyaDUJGuFkWK6/hZfm+aNfvN/11/2q1vDGuX2qpY2+6Vft8nlXXk/eSPzFi3K38O1fm+X+9XmSjGMeY+shV5i1/YMb6lY6olxLcWN1cSRM0cat8yxrLHHt+7u2t977zN92odB0r7Bf6hb3Nxf6TM0aztDcM0jWjMvyx7v9ny2X/tqtdNokOlzaDcXVvY395pq3EMUdvJIsEUs0cjfvP3fzblX733v+A/xUb1dF1V5Lq8t/saxeTqbXVvN5f21dv7ll3M38KrG0f975qx+tR+EJRNDwf4z1C2hjax1C60tVVpZo5rr5XvFhXbC391dvzN96uo8PfHvVrbUtLt9a0+XUrW3ula6hbbBcSqrfvIdzL8zNuVVX+7F975q4PUvA1jZ6C1q2rMtvq1rutZtytFcTfvZW/dtt2yeXt+b+LdWhbIv2aaNdSt9WWKFp5Nu5Wt1+7HM235tzK23au5l3VMpUpGcqMZ/FE92+D/xs0v4hX95Gl55Pib7U0DQ3UyyLtaRv9XJ/Eq7f977y/NXXarbalDeR2dmsV1qDTfvmVlkii3LtaRmbbtVfl+VdzfdX+KvlV9OvrzwN/wATCNrHWl/fzMs0cctlD5n+sZl/vR7tq/7tdl8PfjSvhiwvNPsLi3urhtt55N9Cs/2Kabd92Tdukb7rNu/i2/7VYyofaicNbLb/AMM9eea18MarcMt1b3C3DLLNMzfurRvlVl+bb827/gP/AH1UN/Z3WpX8k022OOJm8vzNzRRKqrt3L/z03V5in7WOl2eitfa9ot0txcL5UK29wq2bxtC0u7y2X725f977te1fDrU9H+JGiXEmiXEt1HZyQr/x7+X5TMu7c277zfe+b7tTU5oe9I8uphakfekV7aw+wW0e6NlkZd3lrt+T/ak/2qy9bvG1J2t5o91v5bK235ll3fw7f4lrpNe0FdNhaz8vzP3nzTRyblf5fuqzf7W7dJWfYeFbiw2yKtxIvlqvmbv3Vov3vl3fe/z/ABVzx5fiMeUm0ezZ7+Pcu5bja3zfLsX/AID91f8AZ/iroL+20+5lkt9PW6Wztf3TXE23zbhl+9I0f8K7vur/AOPferNsNBjs0aZmZrhl82STdtZ9v8X93/gK1qaJCv8ArpI9vlLu8xo9zf7LNXm4iX2jSEuU5f42eLY/A3gO+8VL5sd5a28jR3l1+8luGbattDG393czMzbf4VVdq1846D8JYb+a38ReJ7i80vRZWhl023aZVuNduG3SruZm3Q2zMu7d95tyqv3mavqz4o/D3R/GGm2Ol+INLh1CxWaG8uIZpmVrja25YfJX+FmZt277ystc3qWgtD4kkuNa1RdH0drWOz0e1uLWOS185o9sM0bbt0PlSM25mXd8vy7du6voMtzCNOlaPxS/rTz/ACOipK394+bfHNheal451TXry4037d5zLdTL91FjVd0MP91Vb/vrbXffBnRF17xDou63vJrFljgW6jktmWKSSOXzN0bK3mM3zfK3/PLd96uT17UlvJrWHSlsYZre1aVWjXat3cLJLuby9275lZa9Y/Z4+HWjv8H9D8QaTZ6lDJrliy3VxpeoLBcOrTMv7zzF+aOJmkbb/DtXb935vexlZQw/vS5ekQlHkjy8x6V8H/hdb/BPSG0/StQv76O61KTU2kuvLXY0irujjjX5Vj2r/F/erxf432em/B/4kah9h8IxWeky+H2lsZrWx8tXvmWWWS7XdtXzItq7m+b5fm/u17tpW7QbC1t9Ps2W1tY/sdnG1x5jpHGu2NWkb+Laq/M1Vb/4b2vifx/ouuXzajdL4Z8xtJjkvmbZJIzeYrK0e1oPL/1a7vlb73y18vgMZKhXlWrS5v1OenLklzHz/wDCLwTpPif9nvUvF2pXF1dL4evIZZrf7Osiy+ZGqxzR/wB6Rd0cbR/NuVvutUk2gx+LdN0u60+zvLW8064tdQvluoZLlkhWaCWOZrdVjaGNo9v+7FEzbVr6ms9Ht9Bubi40+zt7GSWb7VcfY41gZ5G2/vGZf4vlqiltDYeIY9SjtbeHVIo2ghvIfluIo2X5v3i/M38S7W/hZv71epHiDmlL3TaFf+aJtaZfQ+HtPjtJPCmiq6tJKTczT210/mSNLmXy43SQ/PhZAQWjEe4Bw9FeZ678IrfV/skdvINJtbG3W1gtYLKBo41BY5Bf5vmLFuefmorH+1IdTrjjo2+E8U8CeBvCPii+/sDxVpt1pfjDS9P+zatqFizaTrNkrMsrW13azfLMu5VVbj5vl2qrN8tY1r8GZPCXifwzY6LdS61puk3Uf2q+VVWW4j2t8vkqzbVVpJPM2t/db+JVr6k/ar+CGuPpt5pN/Zrp99ZxteafJHI26W3jZv3cdxJuk8tl3L/eVv8Ax75x+FniGHxZ4fsdY1BdNhsZ2j/sfy5vIZ9q7t1v5PzM3/LNvmXcyt8rbdtfN4PMa1Ryl/L8UZd/66GspSoS5Ty+/wDDepeDLy8jha/h0nRmkW1ulby98jRsvzL95fm3btv3fKaqfiHVW8T6VMs1xuaC6t4o5LhmZXjZdu5f7zbmX/gLbvm+avUPEHwl1Lw3YeItUk09tQ8Hrp8MUN1fXEltdaP5cjSyTKqx+ZcNF+8+795d275q4GHU9Bs/D2qeINQ1S1bxlZ6Os8lvD8v2tpJoPJ2x/L80Ef8AeXcvyt8te1Rrxq+/E6I4r3Srquq2th4tuI0k+2WbRx3lxJ5fmLE0a7Y12/Mrf3l2/eWWm2fjC6ubCzuGaVdS1y8kg+1W6t9oijtpPNjk2rt+63/jq/N91adeeCdQ+IeiSaTou641S3kWeaG6ZbbfHM38W75flVVkXd8u3d/Ey1h6r4P1Dwf4zh8PrNb3ljdW9nFHdRzLt8tW2szL91VX5t3+zt+X7rN0RjT+Hm/r+vyNva+8ejTa3H/wlSrDa+dq0tvJ/aFrMqyLcfu1/hk/vf8Asv8AepszzaxbW/nTWcck801tcTW8iyNFJH8zbl2/LJ935f8AZrj/ABz4bvvB/jyz1LzLW+0/VL77N5lvI0kVvN8qtG0m5du5W3Ku5v8AV/Ltb5ab4Y164uYde0X7ddQzajeeesckLfIvzbpI2/vfLu3L96so0tIypyNPaG1rPiGGa21qSbbfNo0yzwwruZv3katH5m5dyrtb7qtXRalDp+haat59qltdNiWOLy2ZtqbWZYY/l3fMqt8zbvm2/wCzWXZ+LbHVfEP26xmSG+ulhns4/LVvtElt5sUO5m/9CXb823/erjde8SNo819GP3zSx3EqzW8kbW6Nt81WXcy+Yq7W/wBmLyG/irf45cppzRR7VoP7S3iDR9Lm1C81Bdaktb6PUFjuo/M+0WrQrutm27fLjWRZNrL/ABLW5Y/tjSXOj6CuuaLFqGsS27faPLmaP7RIqttkVfm2r/3yq/MteC+D/HOl6l4b8t5P+Jpaq19Y290zLb6m3nbVj3Lu3bpGb5v7u7c1ds+labYf2bfWsNxcSS3C7ppLhbm4/ebpWWSP7y7fmX/Z3K3zblrOpTpR92UTh9lRn9k+kvB3ja1+IWj2OrWlnb2cN5HDFJY2rNJsuPL/AHiszf8AfW7/ANBrrtEmbQUa4uo1vPNj/wBHhm/1W7d8vy/xbf7vy7d1fKvwZ+IGrfC6/t1bULW8mWzm86SSHzFlt1kVo5NrfdXbG25l/hau0s/2tNWufHl1cSWe3wvcagsUdv8ALcxRLbMu653fxMy7vvfe2/drz6+DlOT5fhOOWCkpc0T3K21i81TxPJfXU3mfY7hvLmjkXc8i/wC78u1drbv7u1fm/hb5f+NnxRk8f+P9W8Rf2hLeWN5N+7Xc22K3j2/w/wB5tzSN/vNXVax+0DqnxIv9UsUvF0mztbeRbdYbVd12s0f7uORl+ba0jM3y/wDPVWb7teV6FoNnfp9lXUGks7fVGgmZo9rRL8y+XHt3K23cu3dt3V6mT4ejRk6lX+kTSw9RSlKRseBPhPrnxX8T3jaLZxabp8TW891eNM0Fvbtu2tDGu3/WbV8z5f738NfVENhZ21hb2On2/wBj021jWCG3X5m27v4v4m/4F97dWH+z3YeEfhl4es/Ctn4itfFF1dL/AGnIzSLG0sky/NtVf9Wv7tl2t83y/M26vQJvCS/2lHuh3TSt8tuu35P8/drz80zD6xV5fsx+E5asZSkZttpTQ2qtHG25m27VX/0L+7VxPLhhZtzTfZ9yyeX83zf3d33VatDVbaOF7eH5reOVtsbKq+V975t1V9V1uGwhW4uFi/s9fOlhVpm2pGq/NIzR7v8Avr/Zrx+aUieXlLltYafcrDvk8uSXc3lyR/Km3+9trg/jr8SF+HvhjVrHRbyz/wCEit/srL+827FkkZv3bbfmbbH/AOPLR4D+J1x48+Gun+KNLW3mkv7ORo7Ff3a3rKrf6uZvuruZVaT7u75a+cf2mPEM158ePESuyrDayW8S7l+aX9yqrt/vL8zfMvyt/D92vaynA+0xLp1Ps/ozahUjzHq3h/8AbRs7GO4j1Sydpg6Ffs8kyYBijLbtqkFt+/OecYBAIxRXyvrPjvUDqtxFa3k2y1cwNgbPmTg8fhRX1iyOg9S/axP1Y+KPxRuvjBqvg+bxVqUWl6HpN1fRag2h6bJPLqatBKq3K/LthZWjjZo/l+ZWj+b5a8D+OX/BNnXLn4i2vjr4W6p4S8faboazLeaDa27aXf3DSKu1WhZvLZlZmbcu35mb+L5q7Lxt8aW+GPiK40fStW8Jr4k1K+X+zV1bUrmOzlm8vcyzQtuVt0f935WZfmWvQPDHjLRdV1W3utU1i1sW15WaxbT/AN39kuoVZl8uPy186Lbu8xt27918tfitHNq1J+2rR5pS+1LRtf13+TR78qVGr8R8F6z8aPG3gj4ir4fvvA3ifwx4mupvslrZ61J5dvCsat5flqzeX/20Zvl/utWj8M9T8KfHq58QeGfEHg3Q1vvtDNqWtadEtlcW90twy+ZHNC3meZLJG3zLuXarbl2/LX37Z+OdW17wvJHeLa+IrNf3Elnqlj/aESSL8rLtu41kZfl+VvlX7vzfNXEz/AL4R+LUuLHxN4Hv/B9itws7ah4PuJNPXztqtu+w/Mzfe+bym3fK3ystd1POMLWl7OH7up/Nt/Xzdjjll0l8Mj4T8efCux0q+m1DwT40i1xbxlum0+4bdfy+WytJtm/5ePmWP73lt/vLuqv8LtVm0HTfFGm+ONBt9et5bex0+S6vFaC40e+u/PimaGb5WVvIhk+Zlb/Vbdq7lr7Y8Q/8ETNF+x6Xq3gfxxZ6hY2rQtpcmoW/2u1SONlbarR/Krf73/Aq8j1n/gnfqHjf4S6x4fiutGuPHkOoSXeuXWuX17psWpssLQQ7o5lkWNljaTayyKq7t275q+mp4yOEhGOJk/e+00vvvt+pn9XrQ92R84zeA77wlM0et6hpatqiyLp+6aTyvOWRmVmb5dv3dqru/wCWrbvu7q8r8KpDpXiS1h1GFbGHTbhf9Ha48z7Oq/KqrtaRm3bm3Lu+X5a+lrP9mf8AtLR7Hw7rk0dn4ms9a3edJqCyXlvaxq0U1zHD92RWkVWWPd8yqzbl3LttXH7Fui+OPBOuXXgPxVN4b17Qbxn1ax8ReX5Vuyr5jSfu1WSONlk+X5pl20Uc6w0G41JEy/unzm+jx+JPHKroenxMupWceqwxruX7PGzK3y/NtXbIzRqu1v71bHgC4s9E8DTa99o1a1vLCaSzkmtZo2Z7Pdu+9I3yqskjNuby22tIvzfLXpU/wTuP2dte03RdU17wnpOsXEkMEM1vZ3f2e3jb97Dbt8u3dumZvM+VWVlb5Vrz3xnoF1rHhVo3WKPUmuN11HHaxsyXHmeUqxszLGq+Ztb5d21v727bXoUsVGp8L93+buVSqJSZj+LdBvIfEdvrkLf2Xb65cNFZ3S2+5tKt1jafcqtt2yMvnbo/usvzbt22vQNS1W40rTdSurxpFktfJ/eRtGsvzfMtz5atujXb8235W/h2tXK3+ozJ8Tb7TbhpF01rOHT4/M3Q2srK27crfe+Vo5Fk3fw7V2/NU1hf2viS80++vl/tSx0a8knum8uSSL93GzW0kfl/MrbWZtrfe+7/AHaKkryjzHZS5UdZqXhL7NrFxfXMcvnSL562fnSKsW2NW2tuXdu+aRo9q/Lt+aud0ea1uvG1rDqVrLJqF/brc6fGu2CJ5IYZfOXb821W/wBnay7W/vNXZabef8JDDNZrdL/bywrPN5kKtby+TJu2xt/D80m3du+Xa3/As3wxYWNg8mtQ3EtvHax3H2WS8VlbyWb/AJYqvy+Xu3Nu3blX5W+aqpyly8sjSrGPu8pT+zTeHr+6vrmzbTW1SPzdzKsmyb7rNDH97cv8Ktt/vf73I+CfGFn4Y8beNLfVdWuo2uLXz1s1tWjV422styreY275vm+Zd23d/ertL/W/sfi3dJpdrHdSqq3lvbs0f2eTzl8zcrNuj+8zLIvyt/tVwvxF8AW/idrjWtN8hZF09YriO4WRvtbLN8u2RflVW8tl+ZW/exKvy7q6KVWL/d1Djq80Ze6dlZxXyQ2tvqFqrSNY+VJHHCzQPcL80m1VZvmZdyrt/vfer0r4OftJ+INE+JdrNrzXFxZpp/8AZU0bNH9o+0Ku5pF3fNtVY423fxKzfxLXh/hW/wBY1uax02a1isb5rH7ZJdK3l741mibbtbbtb/Uq23a25mX5ty0eFfEkOmzafpP+sZtU8pbi4t2+2WjbZWjWSP8AiX5ZlXbtZYpVqalGM4yjIxlUiz6g8JftmXF/4t0uRtHtbPS9S02S8uLe8s/3qSKs6rtZv4WZY2/3f96sX4IftjN4v0K3XWLq1kvrjTbq+huo44/nkhZf3e5dy/NG25dq/wAO3/arxeHxDJ4tttQW4tf7PhikuJZLiNV3PC0m7dub5mVW2ssn8O5ttTaVeWdt4evltpFjmuvJlh8lfLt0mWRYtrfwrG33mZf96uX6jRjHl5TP2VOZ6xoPjbxBf+M9cuI5vsd8uk6kulxzeXbLbyN8yxqy/u1bb8393/gVeT+M/O0fxzo95eatdXDWFrbtpMkKtH+5b96rMzfdb5m+X+H71a1h4tks7m4ulmSztYbra0zLuZI5I1VW3Lu8yP7rf3fu7W+apPAXxQj1V5r5bO1vIby8m0pmvrOO+i0/dH5XmMzf6td21t3+781eph6/snzRiZywv8rOFuvhvp+uXMklvrWoaZ5bGKREtWkWd16yhu+7g0V6Xq9nYaFFY/8ACIaTdR2V3apNdi61GOWQXQzHIMs2eNirj1U0V6UM0hyr3jNUf7p9KfGz9knwt8P/AIXWN5bzaxe3H9tXdhJJe3QmllXyopVk8zaJFlX7TIokRlYptVi21ceafs5/H7xB4T8HeMrHS5Lex0zS4rc2lkis8Nu00ZjZlLszbgsYAO7jLetFFfhuPd6U79o/oepD4zlfg98bfFHw9m03XLPVru4vJr37HIt5IZ4pICofyyrHhdw6DFe/fALxLq/hvw34i0abV7/WLbwx4hvLKyl1BlkuPJEUcqo0iqrMFaQgHqAFGeKKK46sY2k7dv8A24jCN857x+xN8WtY0nxD4Rt4ZIfsnjO8s4NUt2jzFIZI+ZVX+CQf3lxn+LdXZftt+AtP8P65aeJrDzrPU760bTrry3/c3VuwMgjkjOVdVYZXcDiiivrsPrw87/zf5Ho1f4J+XvxHhXwj480TTIVW6j16Vbmea8UT3ETxRblMcjDcvDFf9lThdtav7Q+qv8OtKt4dHSOzW60i+SRlzuaJBGyw5z90Ng5+9wBuxxRRWdT+LS/wnz1PcxPDdjD8VdC+KHiLVlla+8Oa7PBaLDPJHGYpLiS3aN/m3MuyKPjd1XH3flrsNd+DOh6Dr9vf+VcX0mtxaTC8d3O0sVtvtG3PEv8AC/8AtHNFFepzNKy7f5Gtb4jwHxBq39hQ3Vi1rZ36+F5mtLaW5iy80aJGFEoXarfK7Lwo+U4rtfiFJba74222On2PhyxvNJuN9hpKtDaL9mnjgjwjM2PljVjzy43UUV9FD+DP/EjopfEcJ4F8WXmk/ELxFqUTL9p0B447YsuVOY423OP4m3uWz3ZVJzgV0s+sz3fwpvPFGY4tU/tBU/doFiyJZoWbbj7zxoqsf4sbvv8AzUUVVT4o/wDbp6EfhODvNQaxWDaPMllsryHzZZHkkRY5iI8FmONiqFHovFW/GnxC1Lw3pd1o1m8UdrpOoX8UL7P3rLHEkqb2/ixIN/8Avc0UUVf4iOOr8R0nj3QfsssMkd3drLqMtnPI+V3IXdZWVDt+Vd6qce1Z/wAP3W5+I/iu6aOLedNs9QZSu5JJvs8kmSDnPzAn/gTetFFaR+CXp/kYw/iHWaN4Os9L02Ozh84W+pajHBKrPv2q8KRsFznb8sjD8ay/iVcy3fg7WLrzZIVszbyx28Z2weZut/n29m+duRjrRRWcfjNKf2jL8S+ML7wpDq/2B0t00m5leFFX5SIZV2Iw/iQr8rD+JeDmtjTTbaJdTWdrY2lvZ2MM3lwxhkU7PLzuwwLb97btxO7NFFEv4ZNMpan8Qr/wr4j1fS7FbaG00+/mhiUR8kbicnnk89aKKK3p/CjY/9k=" vertex="1" parent="1">
          <mxGeometry x="763" y="130" width="160" height="160" as="geometry" />
        </mxCell>
        <mxCell id="dWsP7ECwmcrGhu4jSsE2-3" value="&lt;font style=&quot;font-size: 61px;&quot;&gt;How encoding Recursive-DCT works:&lt;/font&gt;" style="text;strokeColor=none;fillColor=none;html=1;fontSize=61;fontStyle=1;verticalAlign=middle;align=center;fontFamily=Times New Roman;" vertex="1" parent="1">
          <mxGeometry x="-22" y="90" width="410" height="40" as="geometry" />
        </mxCell>
        <mxCell id="dWsP7ECwmcrGhu4jSsE2-5" value="&lt;font style=&quot;font-size: 22px;&quot;&gt;Input image&lt;/font&gt;" style="text;html=1;strokeColor=none;fillColor=none;align=center;verticalAlign=middle;whiteSpace=wrap;rounded=0;fontSize=50;" vertex="1" parent="1">
          <mxGeometry x="743" y="280" width="190" height="30" as="geometry" />
        </mxCell>
        <mxCell id="dWsP7ECwmcrGhu4jSsE2-6" value="DCT" style="text;html=1;align=center;verticalAlign=middle;resizable=0;points=[];autosize=1;strokeColor=none;fillColor=none;fontSize=22;" vertex="1" parent="1">
          <mxGeometry x="803" y="560" width="70" height="40" as="geometry" />
        </mxCell>
        <mxCell id="dWsP7ECwmcrGhu4jSsE2-8" value="" style="shape=image;verticalLabelPosition=bottom;labelBackgroundColor=default;verticalAlign=top;aspect=fixed;imageAspect=0;image=data:image/png,iVBORw0KGgoAAAANSUhEUgAAAMAAAADACAYAAABS3GwHAAAAAXNSR0IArs4c6QAAAARnQU1BAACxjwv8YQUAAAAJcEhZcwAADsQAAA7EAZUrDhsAAAcASURBVHhe7dzNSSxbFMVxj9p+ggYgZiDGIAYhhmEIDg3BoRk4NAJnBnBHjp04a22/+ymcScHZD9Z7+1D2Xf8fNLfYFKVW1bpFLY6W8/Pz+RJgarn+C1giALBGAGCNAMAaAYC1cnl5KbVA83l792geUY/z9fVVt4Z67//b5p+fn3VraKzvJ+t8qvdD1pwnAKwRAFgjALBGAGCNAMBaub6+br8eB9S37Ky2IWo/es8/Pj7q1tBY8/f397o11Pvrquen93XJapl4AsAaAYA1AgBrBADWCACsldvb2+brce+2R33rV1uLqC3Jmr+9vdWtIXX/RZn3Pp9Z7ZN6v/EEgDUCAGsEANYIAKwRAFgrf/78kVqgrLZnrFbn9fW1bg1F7Ue0vzp/eXmpW0PRfKzjqD/XWC2Tev/QAgENBADWCACsEQBYIwCwVh4eHlJaoLHanqz2Rm1XZrNZ3RpS91fnz8/PdWuo9/ejtkbR/r1bI/V+4wkAawQA1ggArBEAWCMAsFam02mz7hlrzY/aBqhtT1ZborYx0f7q/OnpqW4NqcfJ+rmi86bOo+ultkBqO8QTANYIAKwRAFgjALBGAGCtfL81p6wFUtsedW2P2gKprc5Y7Y3a6qjHyWqNonnvdki9H2iBAAEBgDUCAGsEANYIAKyVeVD3qGuBerdA6poftQXKakWieVZ7M51O69aQ2vb0bofU869eX1ogIAEBgDUCAGsEANYIAKwt/7Q6rc9POdT6tPb9+bT2XaRPltax/+2jKqVInyytY/8NH54AsEYAYI0AwBoBgDUCAGtlNptJvxEW/f0f9e8CRWs2orm6ViSaq7/BFK11UdcUZa296b2GJ5pHP686z7qO6v3DWiCggQDAGgGANQIAawQA1srj42PKb4Sp7ZD6Fq/+fZioPVD/Lo36m03qXG1deu8fzbPOW3Rd1Our3j/RfcgTANYIAKwRAFgjALBGAGCt3N/fS2uBstqhrDVCamuUtRYlqxVR52O1NOr+aqvTu+1hLRDQQABgjQDAGgGANQIAa+Xu7k5qgdR2SF0jFM2jt/6sNimrtVBbkaz9e3/daK6eT/U6qnP1vuIJAGsEANYIAKwRAFgjALBWbm5u2rVOIGuNUO/WKJqrrULv9mms46tft/c86/qq9xtPAFgjALBGAGCNAMAaAYC1cnV1ldICRdTWqHfLFM3VViGrtVj0r5u1fzTPun+iOU8AWCMAsEYAYI0AwBoBgLVycXHRfj3uLHorj4y1f+/jLPrxI72Po4qOwxMA1ggArBEAWCMAsEYAYK2cnZ1Jr9mllLr1/0THWfT58nL7/5RFP85Yx49kHYcnAKwRAFgjALBGAGCNAMBaOT09bbZAWW/x6jxqFaL5yspK3RpS9+89X11drVtDWfv3Pk7vuXrdo7l8X9V/AUsEANYIAKwRAFgjALBWjo+Pu7ZA6lu/2h5ELYc6n0wmdWtI3X9tba1uDUX7L8pxonnW+Y/m6v2g3m88AWCNAMAaAYA1AgBrBADWyuHhYUoLpLY66lt/VmsRtSLqfH19vW4NqftH842Njbo1pB5HnWf9vOr5j+4HtX2S26H6L2CJAMAaAYA1AgBrBADWyv7+vtQChWsqgrm69iOaq21DVisStTFZ883Nzbo1FM3V42R9P1nnM5qr1zfrvuIJAGsEANYIAKwRAFgjALBWdnd3my2Q2vaoazCit3t1DYnaNvRuaaL51tZW3RpS51nHz/q51PPZux2K5qwFAhoIAKwRAFgjALBGAGCtfL9lS2uB1LYnWoOhtj1qC7Qorc729nbdGorm6nGyvs9oPlY7pLZArAUCGggArBEAWCMAsEYAYK1867oWSH1bV1sgtW3o3faorU7vufp9ZrVAvduh6H6gBQIEBADWCACsEQBYIwCwFgZgPp83P6rWMf7LB7/Tz5qx1ifS2vfnMxaeALBGAGCNAMAaAYA1AgBrZTKZdF0LlPUbYepvDGWtEVLXxqjzsdb2RPur5yFrzU80V9eGsRYIEBAAWCMAsEYAYI0AwFrZ2dkZpQX6be2Q+ptN6lxth9S5+nXV/dXzFu2vXi+17Ynm0f3JEwDWCACsEQBYIwCwRgBgrezt7UktUPTbO9Fbtvr3gqJ2SG0D1LZBbY2yWpFo/7GOo86zznNW2xPdP7RAQAMBgDUCAGsEANYIAKyVg4ODZgsUtT1Za4Siee+1Q1nzrPYjmvduXdS5eh7U66K2OmrbQwsENBAAWCMAsEYAYI0AwFo5OjqSWqCsdkhtjdS3frVViPbPmqvtR+/91eNknTf1Oqr7q/cVTwBYIwCwRgBgjQDAGgGAtXJyciK1QJHo7bt3a6S+9feeZ7UcvdsSdf/ec/U6RvvL91v9F7BEAGCNAMAaAYA1AgBjS0v/AKFItOL2vUnJAAAAAElFTkSuQmCC;" vertex="1" parent="1">
          <mxGeometry x="763" y="400" width="160" height="160" as="geometry" />
        </mxCell>
        <mxCell id="dWsP7ECwmcrGhu4jSsE2-9" value="" style="shape=flexArrow;endArrow=classic;html=1;rounded=0;fontSize=22;strokeWidth=6;" edge="1" parent="1">
          <mxGeometry width="50" height="50" relative="1" as="geometry">
            <mxPoint x="842.5" y="330" as="sourcePoint" />
            <mxPoint x="842.5" y="390" as="targetPoint" />
            <Array as="points">
              <mxPoint x="842.5" y="360" />
            </Array>
          </mxGeometry>
        </mxCell>
        <mxCell id="dWsP7ECwmcrGhu4jSsE2-11" value="" style="shape=flexArrow;endArrow=classic;html=1;rounded=0;fontSize=22;strokeWidth=6;" edge="1" parent="1">
          <mxGeometry width="50" height="50" relative="1" as="geometry">
            <mxPoint x="933" y="479.5" as="sourcePoint" />
            <mxPoint x="993" y="479.5" as="targetPoint" />
            <Array as="points">
              <mxPoint x="953" y="479.5" />
            </Array>
          </mxGeometry>
        </mxCell>
        <mxCell id="dWsP7ECwmcrGhu4jSsE2-12" value="" style="shape=image;verticalLabelPosition=bottom;labelBackgroundColor=default;verticalAlign=top;aspect=fixed;imageAspect=0;image=data:image/jpeg,/9j/4AAQSkZJRgABAQAAAQABAAD/4gIoSUNDX1BST0ZJTEUAAQEAAAIYAAAAAAQwAABtbnRyUkdCIFhZWiAAAAAAAAAAAAAAAABhY3NwAAAAAAAAAAAAAAAAAAAAAAAAAAAAAAAAAAAAAQAA9tYAAQAAAADTLQAAAAAAAAAAAAAAAAAAAAAAAAAAAAAAAAAAAAAAAAAAAAAAAAAAAAAAAAAAAAAAAAAAAAlkZXNjAAAA8AAAAHRyWFlaAAABZAAAABRnWFlaAAABeAAAABRiWFlaAAABjAAAABRyVFJDAAABoAAAAChnVFJDAAABoAAAAChiVFJDAAABoAAAACh3dHB0AAAByAAAABRjcHJ0AAAB3AAAADxtbHVjAAAAAAAAAAEAAAAMZW5VUwAAAFgAAAAcAHMAUgBHAEIAAAAAAAAAAAAAAAAAAAAAAAAAAAAAAAAAAAAAAAAAAAAAAAAAAAAAAAAAAAAAAAAAAAAAAAAAAAAAAAAAAAAAAAAAAAAAAAAAAAAAAAAAAFhZWiAAAAAAAABvogAAOPUAAAOQWFlaIAAAAAAAAGKZAAC3hQAAGNpYWVogAAAAAAAAJKAAAA+EAAC2z3BhcmEAAAAAAAQAAAACZmYAAPKnAAANWQAAE9AAAApbAAAAAAAAAABYWVogAAAAAAAA9tYAAQAAAADTLW1sdWMAAAAAAAAAAQAAAAxlblVTAAAAIAAAABwARwBvAG8AZwBsAGUAIABJAG4AYwAuACAAMgAwADEANv/bAEMAAwICAgICAwICAgMDAwMEBgQEBAQECAYGBQYJCAoKCQgJCQoMDwwKCw4LCQkNEQ0ODxAQERAKDBITEhATDxAQEP/bAEMBAwMDBAMECAQECBALCQsQEBAQEBAQEBAQEBAQEBAQEBAQEBAQEBAQEBAQEBAQEBAQEBAQEBAQEBAQEBAQEBAQEP/AABEIAFoAWgMBIgACEQEDEQH/xAAbAAACAwEBAQAAAAAAAAAAAAAFBgMEBwIBCP/EAD0QAAEDAwIEAwUHAAkFAAAAAAIBAwQFERIAIgYTITIxQUIHFCNRUhVhYnFygpEIJDNDsbLBwvBTVZKh4v/EABoBAAIDAQEAAAAAAAAAAAAAAAIDAAEEBQb/xAAkEQADAAICAgIBBQAAAAAAAAAAAQIDERIhBDETIjIUQUJRof/aAAwDAQACEQMRAD8A+i8m5TLUhm2/GwIV8hv47dMIcPe8xFKVFQLeZLqLgmlU2BDARcQz5XU0Trj+nTLMVkGUESVQVMh1oq/6DMer32tAle6jSQfBV2Ogfp/TqWB707CRySyEd/8A6SLfTVXCLAuW2Koq92OloJbbLqC82pqheke3TlXKfQv8WNHDHDEOpNI5UHlK5eAdMdMjns+oor8Nm4F6yLt+nb6tK9HrrLPZ0vu7tM8biOO5gJudfvXSG3sJBSk0SHSwbFsVBUHtQ+mWioxZjrJtlY75d2qozBeBOSSBf16uFMswotvWRP50vlQQFqMN6NGbceHAmyLaC/5tCX2ZEoFcxQARPEvES0aqMtxwEI3kP8Ol2pVQgBWWegaKSC7Kokxk1JuQ0oeXXrqtyD/7gP8AGrE+S86K8slUdAyCTdboV7/LTUL7DdOnNqjbjY8tfV8tHXatgyjf+GsuicQcltB5mrjXEmapuvbUcF8xymyPeGcQK6ru0tPhd1ch/VrtK828YM5JzVAlBq/UhHuIR7i0q8U+0nh3hx6YzUPtOQ5AZJ+Y1AgG+scLX3kO0SVNSeimHGRkNScmS6fLUz0mpAquMkq4dw6+caV/Se4oCqe8OUvhiTTjduAAbrL/ACumwSzXf+JUxXu8NbIHtl9moxqZVj4gQFqnKyjNNk8/CyvkUkA7ERRxIkv6StbdpjloBVv0aNQ+IZhkAynFsA9n06bG6wT+AgXUu3Wd8IcU8D8ZzuXwrxJCqMl1rn8llSR0gHuUQNEUvxW8NVONPbTw7wjKbpdJhtVuemLj6syU5Ecc7EmQ3yPu2p0T1fTrO/Y2R5qVbkCaiRWRNK9VrMrBeSV9Yjxt7YuKJ/ErdYgzm6G0ksGI1Nlvc5gWrbubh/aq5uLwTxHHw1oPB/FdF9oDbsiiTkSSwAlIgOlZ9rLuxEu9EX1J8x02FIu2GGZ0xTxLNb/LU6TpNktIe/jXrUdyNM5JNuqmy5ns3EmmJKcCJYZLFk8N2mviikAKxwxwPwmzDmVytTDSY97szHZj81188bliI+SJuIlxFNYxxnxFWuJokmDwq3Fo0MHgbjzAcd54/wB5mZdcVsG2yIPUvO2rLnH9QrFdm1iROiuy0M42A5mtJYK7YqAF61UsRDxW+elmqA9SKcxwjGgtMOtRuZLBvCzDRb0yIb5m4ogRDrJ8tt9hfSUCwbq1YnR5kydNdntRjao8xqSTMoTC+8h64muQj+lfHpjozTpNaFtuG9XIsxHxHno6CfaIl1bIiIuhrYdvMUfzRdCGXhlWeprj0OW6QyQRvorTodCQSLyVcCEe1d34ddlURlyQnMi7EMG3RMBFfhFmqlju81PIhX06RzqqEqy/Mm8P8laTVWYCPwmcwdepyNSI5CqpZCIVArpl49MlL9WqtBgcKyJb/ElNpcKOpmUYTkbAYzHuIRJE9JY3tf0+O63Bciz4b8GqWMXQPF0RF1QG1hEivl0XH+PAtU6rGeYpxxagJutMxuUCtOqymJFYVIbeO75de3brTGf+Oi+X7g6LRmZZSWYozX1XPOQALg0V7EuwlUVVBLb94+WjtOaJmNHi1Wn+8A0fIN7oq4AWwzEetkTIsl3L0+Wlrg+PVOHpTU4uR8Ih94aeU1alD1QcwEtt0IgIVTz05TOKvtKI8zGprUJuQwUV4xH4XPaXmAYp6VVraQ+e7Q5sz30DNqUSQBq1XmM094o7LSSCanJEaJRLemIoR3UeYny/VoZXuEaCchiPGgm4UWbKjHJB8ua+6PVoxIvOw/8ArboVAq9QiKolKVtp9sYT2HTHFcx2epExDb92rDz5PfDkyk35ONuAGDTTvgJ5ekFUREvUhLu0maqX2U88NdoY+F+IeOqXECkxvaVxPToUoRdisOTENjmkt1TMgMiBcSH1Ci7fBdVJdc9ovvT2Htg4lQeYVsa6gJa/kKWx/KyW0FCvVinUNHI9PcfOAZ+8xgBFxEVsaj6hXcJlfp/GvZvFtKWbIWHBYVhXT5SlDVVULra6r49LabzoOMmOkScMyJjLo0GkvKrk9BfNWbLgIDfPIt3gSnki+RFcV3aET47Ltp320cufPzcc5jwnkeX0j3dPV5rl4aRoFb4keptQh0ERYflMixKeAyV19oS7R+m+W6+5dC6bxfxBBrIVSdIOabLYxlju2BBAegoIiOIKn5fq03NjeV/QzXkVJGlxmpCgcVx4GwULfFWy4+n9S3HaWpPdmQsTjKON4ipk3e22+/H/ADD/AKLrimVeDX4vvFJzU3yuMceqg70Tdl1LoX5erRByJOZj8t4euBFkY3wEV3bvArf5V1jfKei0uuiNl9yPLCU9IQEzFSeBN+GP0+rRQ3pUnlzhJlVQSRc2URH930/P1ZaDOCThJH5SGuYqjTPXIS9A+PnuH7tWqfMEY3uLjPLumw7bRLQkVFiSLYAEpkrR5CZGSASqA+rd802lqq21zrRWyzN3Idi9CfDqGP57v51NkTnNjlZtsHSwC9wB225C/A4m37tpeWvIj7cCQHwXQDMHD3XwG+0v1JuE/wBuorF8++yB6FIEHSZhigZ80REhuIjfu/8ALU9JZkK8sNzmtNs5utZH2mQW2iXQlUe4V2qm3xtr2HUZD0lqDiiq6Atu+NhIF3f8/TqeTDqRvHIlfENTBdqWRoSv3F8+g/zq3RHq+0QRljsTG2wZfRFLcLUiyjiOwsi3XbXIfDq2uJaGnXKi0ZNDBbJAVRQvdxW6J53Tx0aKNIqAAUNzM07g+oRv0/8ArQ4+HYz5k+5GAScVTJFdNFRV6+GSf4arkL40hX4KrdFkqgw3nQcRl1HhcsimF07fv3a84n4Yiy5BuCyHNRSIzErKY/u801ns7gyQxGRmmuc2See25IjgF2gJFtsg7uu5V090VriIINPh1aGaGvwphC8CriPQT3dy27hvpl+Qo+8M0760VOG+F/ef65SeJI/MaLeOJtKwVtuY+Ifn4ffpngVSoQJjlLrjkJyf/Z4ZDvd8bj6SX09PH1JqM+GYskwegFy5jRbFF3lntVP73t/b26S6pxDHekSINWorD8YMiLl4Ouj9OOO0FUhxyTb92pjy/qn0wfw/E0mJPEBB4mzRGnicBATtLO9hx7U/4PXU8g3pMl1mGygsK6OAl6RHtyxHd3d2s84N46ooywgzJjoNOtE0Cy0wfH8BOjtNPzxJNP77bjInKjk4+1ySUxZNM8r+gcd10LLHysXhqXiuHplpu1tPZzg57wDcyQLTiCKZionnl25j+3RLltyWlZiyjSQwPYYdCAfqy7umP+7QycQsm7InOR3IkZi5S8ui4r3Floe1xtDcFwYbL7iQHgUJeFmiAg3Zedkyx+fTSKSnsH417DTE4QBZmXIBkj5xqOCAONyMsi8kER/ToZW/aRQaeMpkJDspyG6LjvJ6g1ki4rn4Ffd89DKy5UqrDjxZzMNiA7zX53xiSG60NsMDxVb2USK/p+rStLpdFpdRcqAe6vmZA+DIPXCOXRc/w29Pdt7dDGab6Re+CL9V4/4oCHTqxS6O/AiNSBcRq/WViiObzxsIIuQl23/PQNeOIKLZ7iSpo560F0MULztv8NC69xnFeZ+y6eyDkdrG7zxEaEf1YF0/TpeKoVpVVeQ91X6RTWuMTpbpAc+jcmadi7kTnW49FSyj/t/dom1HF5HHDkIDSCLljFVzP04/frk0TKOVuvMHr5+OuyROU108CK2vO/JQzYC4oCrN0c3KDTWaq+kkH3YxgKYRwFVPHIvirfHali+lNZxA4c46Fr7cj8Luq3PjXkIw62ayGj6umYEWQkvdgm6/l11tGA71xS6KK3trqKib3LJliQ5edkLol/u1rw+ZWKdJIIwmRS6h7vGj1qH7vLn4+6i9jm+JGgAOPp6kXjph4Yr3GHCEz7Dq0OVLuPKjRnWiSQ1j3AJCO9E3al4yMy9q9OYIyVpaeyOCrttzMrW+WXX8+utN4pEQ47iRgFBZUWxVtEsNkdSyW8LdV/lddG/OpQk1vf8AgFL7bM/rcDiLiN73wnmoUV93+rsFJ6tBjYvhDkpmuIll2pcuumFuNUBpQPRShtfDJszeFUf5RdxbLY37v9dFFjRhqNNijHaRmQ2qvNoCYuKm5FJPBevXr56gUiefPnEp5Q7lkt7/ABD8dc3Pnq9JkbehB40dIp7YuMzagqiSYyTUIptF6AAbZIn1eH3loTWJ8eVGaZBn3BsAJrkQxJGhEvId2RLt3X9WilYVXJ0YHFUhQrWXqlvloVVmwbF9WwEVt6Utro+Ok5nr0IYvA0y1cmbAqet3G4/tHt1ONIqToo63EqBAaZCQhZFRfBUTyTT37G4EGfNJJ0JiQiOmnxW0PojYknj8l6/nrSXpMlt0225DgiJKiChqiIl/BNHm8u8b0gV2f//Z;" vertex="1" parent="1">
          <mxGeometry x="1003" y="370" width="90" height="90" as="geometry" />
        </mxCell>
        <mxCell id="dWsP7ECwmcrGhu4jSsE2-13" value="" style="shape=image;verticalLabelPosition=bottom;labelBackgroundColor=default;verticalAlign=top;aspect=fixed;imageAspect=0;image=data:image/jpeg,/9j/4AAQSkZJRgABAQAAAQABAAD/4gIoSUNDX1BST0ZJTEUAAQEAAAIYAAAAAAQwAABtbnRyUkdCIFhZWiAAAAAAAAAAAAAAAABhY3NwAAAAAAAAAAAAAAAAAAAAAAAAAAAAAAAAAAAAAQAA9tYAAQAAAADTLQAAAAAAAAAAAAAAAAAAAAAAAAAAAAAAAAAAAAAAAAAAAAAAAAAAAAAAAAAAAAAAAAAAAAlkZXNjAAAA8AAAAHRyWFlaAAABZAAAABRnWFlaAAABeAAAABRiWFlaAAABjAAAABRyVFJDAAABoAAAAChnVFJDAAABoAAAAChiVFJDAAABoAAAACh3dHB0AAAByAAAABRjcHJ0AAAB3AAAADxtbHVjAAAAAAAAAAEAAAAMZW5VUwAAAFgAAAAcAHMAUgBHAEIAAAAAAAAAAAAAAAAAAAAAAAAAAAAAAAAAAAAAAAAAAAAAAAAAAAAAAAAAAAAAAAAAAAAAAAAAAAAAAAAAAAAAAAAAAAAAAAAAAAAAAAAAAFhZWiAAAAAAAABvogAAOPUAAAOQWFlaIAAAAAAAAGKZAAC3hQAAGNpYWVogAAAAAAAAJKAAAA+EAAC2z3BhcmEAAAAAAAQAAAACZmYAAPKnAAANWQAAE9AAAApbAAAAAAAAAABYWVogAAAAAAAA9tYAAQAAAADTLW1sdWMAAAAAAAAAAQAAAAxlblVTAAAAIAAAABwARwBvAG8AZwBsAGUAIABJAG4AYwAuACAAMgAwADEANv/bAEMAAwICAgICAwICAgMDAwMEBgQEBAQECAYGBQYJCAoKCQgJCQoMDwwKCw4LCQkNEQ0ODxAQERAKDBITEhATDxAQEP/bAEMBAwMDBAMECAQECBALCQsQEBAQEBAQEBAQEBAQEBAQEBAQEBAQEBAQEBAQEBAQEBAQEBAQEBAQEBAQEBAQEBAQEP/AABEIAFoAWgMBIgACEQEDEQH/xAAcAAACAwEBAQEAAAAAAAAAAAAFBgMEBwgCAQD/xAA5EAACAQMDAwIEAwUHBQAAAAABAgMEBREAEiEGEzEiQQcUUWEyQnEIFTNSkRYjcoGhseFissHR8P/EABoBAAIDAQEAAAAAAAAAAAAAAAQFAQIDBgD/xAAjEQACAgEEAgMBAQAAAAAAAAABAgADEQQSITETIiNBUQVx/9oADAMBAAIRAxEAPwDe3grZ2K0tTu2n8wxqQUd3RVDqMn6NwdeKGRYJVMk4P0A40aqLpCEFNLGPUOWP+nOiyeZGAe4sV9LWxSI1bSMEZuD5Gqk9VQQy90BVYe6jR641gSk7QnLADBBIxjQ3prpymvNyenqPAAJXbwVP31opwMmUI+hFnqGZL2sNCiFgrg8alt3QMNyWkoKiRIlqGfYScEMAT/41rtV0vYoIpHp6GEYj2r6MtxxpQ6g6vt9ip0obPa2qKqPmOV29MSkYLZbkYGPH6aKpvsY7Ke4PdXWo329TJ+rOh6rpiqjiNX3Y34VmGMnB/roA1L/1g488Y003rqmuuysk8WXDfxH4K/oPodABTM3nLZP5RnXUaeywV/J3OU1S1+T4+oOkilTmOR1I8EN41ZhulwjUA1c6Mv5kPnV5aKIOEl3KfcFcY0QprdSSAlE3H651s1q4ziYpU2eDPtm6huTx9o1MEhJwTNHk6YhcGwM0NIT7ndpcqqIovbTdkrwdgIOpUs0uxczNnAz6NL7PGTmMavNjiaNF8xUyErJscfUcnVZqK43CqMTVGUzgaZYKSnUSTVqblQktKThEA9yfYffVXpvrHorriK4r03cO81rmNNM3aaJSclRIhP8AEjJDAMODg+PflvJt6nU4B7lSLpCkp2DVtzI3NwGbGmOy0dLbu40b85wrH6frofUSdr1VFSKnaoRAseAP/egFwvF2YsKWKTbFyTjgDUDe5kHasbrpf4kj7JmHJwedZdNb5eoq+plkG1GciM5xuA41+nuhq6kK7f3jnlfc6lku9RTlVp6dI+yeFx/voyhGr5QcwS8o/DniNtB0dYaCzvWxW6I1aqB3XXeyt4yBpIprXV2W7VNfVQJTwvIrLD/Iv0+3OP66Z6frG2UNEKnqS+2+zrVT7Y5aqpSFHk2FjtZvOFUnC88a5R+Jv7RPWHV90rLP0xVydOWrZUIBBKvzEtOMgvNIfAdWUqkYBHI3E+IXUWKzKxzmVtqqCqwHU3jqKVKqsetikgLMcSkuGUN7D0+DodFHPkZMChx/Kca5Q6GudbYbk6WK91NDVsioFiYdpypyysp9Ln9fTgjknW39J/GmgSZLZ1/ajSH8LXOkGUX7yQD1KPqYyf8ADo6n+rUi+JjgxXZozZbu+jNo6esSTRGZpBu/Kf8AjTAOmkIybjg+/p0Its9I9HFVWupjqKOdQ0E1OweOZD+YMPP+48EA6MBkwP7io8fy6CtuLtkGN6aFRcCc9XWjvPWFzmi6v6ivN6nY74I6qEPH2+2BujiRlUcrzjG4+o886vWu4XL4Ztbr/wBIu8Qnp3lelbZLA8aFQ29GO5kIwCARzz+XOoqS+09TcWq4I0iUU8XcbAEo2xKzEhvT+IE4+hOrt4hS4WmnroZpZKuNsLHt3O8gUMwK8+ldinPg/Q5xpOzEnuEZXHEbKn9oG5ChIuHSFve4SxCWCSGaSmheAnlnhYOysSGAUNgnafGnDpf4k9PdR0ps10jW1XOplC/uyaoV1c7Bu7cuBubz6SoJx6cgE6xCliluNfQUstPGI9zSSmRFKMQpbkZDLGoJ8EckYGdVnttDVRU0c8iuLglVUwZjZHOMBSzHd2xlRt3eTzqwtZPuUySOZvN7tFHBO1RQUvyzpwUYnCsPru5B+2k/qS9UHTVsqb1fa1KaKKLuiNpAJZSSVREUgkszAqMDznSVWfGm8dA2gWa/z/v6eSNkpqOeRfmIG2eh5JB6hFu2jByT7Y8jDupOpLz1j1BL1Be5o56+ZFUGNSiRRr4jjAJ2r5GMsT5JJydM6dcq15HcX6hTYeDLXxM+J1V1bejUNNJFQ0Mu62UNUiS/IiRI0YqFH8WTtjOScMSo4BJXLtZKWjXbUTNJVSSAS0gYtPJO2dhlI49IH8Mfy88a9dqo6fqI4aGiH73d4pER5VZ1p1YbJGA5Uswxn8QGdFbfQmhrKSGkjNfcZo3qK2vmO56cfhO08+nPgcHaGOgbbySWziWCYHcnp7DT9N1NLsNLU00QjnnM0ZEjkbjtZQecswGCSQq48udWrJ1RU03boPibSpVG5LNWpNUgtVUm5vTllwWQYwVGdp8eDo3YrFUVNX35qGQtAm/uu2cITjcB/Nzhf8S6+9Y9M0r2equjJQz3COECCprHKpH6wF58lcO+Afc+2k76lWbax7l1yY99KtfPh5JHeug6xKu2VbCae2SyCehq845U5Bjc5/GOR4IIyNacv7Q1q2ju9EdYxPj1RxNA6IfcK271Aex99c59D3Lqzp6RbaY6R7bTwVXzbJOHEUiOuFd92A/qb0gHAAJORrQhfcjKxykexFMrcfr7/roVtXqdOdinIhSsAOIFlijkrXr44zDSTOZ5lRj242ILBSPy5bAUnwvA8aLU1XlqENNJDPPAzDtyFQGJwwX3U4Xwf0/NoDcLzbLVNJR100UlbIscq0sbbZWICgcD0HIK4PnP186R+q+trlSWm5K8FPSCamWC3iCrUSLJvBdiRyACMD7caaj2OIIpYHMf7l150t0vdJ7PcLt2a6SkeZIodzBokBCq7D0gOxOAPvnnWXXr4ndQdTx00081JTVKxTR1ht6sqTmVQrbgfoihR9cls86zurutZerhNjHcqJmklZUAZyS2WY+T50WoU+Xp0pxIOMuxHvk/8aN8KoMmeawt1L0I7sgEOxcnHPkDjA/00UhaWjkCiFd0mR3C3BwCM/bGfGgaVRRhj8JUYYjJHB5I1fanq3jjikbDRjcQX9K+xBHsDgf9vtrM8dyBJlqnqKgyB9zM4Vn3cnaPJb3/ABfprTuiOl7fS0xuE8ewVDdwSMCO7uUDLA+QAoHPPHHGgfRHRbVTCruVMViiU9mmZcmZsZDMPZc8n9RrVKajjubJbRLHGu0O0shO1XxgRgDnn+H+pXSbXand6IZdFJlWqoRGWnhlf04KJ28FMDIDA+QFxjHsdA6iSSN5qeuZX2yIyrIitG+CDx9ANuR9CNG5JJ0rzXxxpFQvEtPO05YCnlhciNYSeNpDvvzzlhobUQU8k6gFUheQBm3AxxqcqrZHO1SM5H10rwVOczV0/JmN7snV1D0tU0NpoJrhNXXaokrkowTIYpc7EcH8R8A/oPbSwzfEOjY0bXdKYwHtmBuoEUxbeNhG7gjGMfbW5xQVNJIHqZESehAjmiDZZolOeMeSvHA8rgjydZBdvgHf7xday7x3aXZW1ElSv92Rw7Fh4jx7+2mFV+FwZIBA9oDvHUxagp6FlklkglZ4pJZCzNGHLIp4wMZ55PB0Drqu532r79QhVXxggekL7gD2GdSilMj96slEkmMlcn0f5+D/AFOp4mjdsAFI+Nz4yXH0GujXYnUDLEniWKCCKJY4oMhUjbewP4jjj/XX2PuSq0K7UKoWYk8L+ur1vsddde7PRW6q7EOC5hTulY8+osfbjOnOxfDihkppLpfrnHbU3PLTUNWrxPPTRj1TZb/IDHnx76HsvVRkydpPcSrPbZ7lc6Sjo9rTzSpEJnGI0L+5P/3Otb6Q6AFBUm73+mjio6eUsnzA3GZBGT3GH5NrZwPfOderV8Qfh9a4VoLdTzxxFF3SR03ajdgCMJnlvBAJ8YJ1F++OpOsbrQTWqshtEUUrU8VP3THHUEMGJYkepVUHOANx9+NKbr7rcrjaP2aVFc4j5coVpaqO6UdDDNRbcMqMMmE4BGBzwG4PsRn20Hp6eiopZ5pKyakt9LFHTwfMyEGFEXIcSNwwYkEv7FANE7femhklgqQiTVc8kIMkqhpNo3HYOTuJ2Bh9C3J8aGT2qCsonp6mgimhYBlDIJMMjb1ZQQQSCfcaVglThpucg8dSCX4hWfqGs/s7bp5a2siEsFFRwxhUVFSN2AU+2ZOG8H1E8auCOVEnVK7e9uYRTM+5kqIWbAJYLhAvAOTnnA4GgFl6SpbJRx1zvTz3dpJXmr0iImLySbyiSYztHpwB+IcHHA0SuE1aaua7zXGKF6dIwqKm9p3WNV7e3OCreWJ8ZIwfGtGarpZ4uFGZSuVYskojTZCYBmJGRfUmeEJH4j7A/c6iFXT04+XZamMxegoKwDaRxjB8aJQncq1tO1NTW+vSQYqIVlKN2XVotzAHOTxgZPoweMk1T9NUhgjMvUUSuUG4LaZnAOOcMHww+44OoAaUALczn2n+HfUlRE8zUBRImXfE8mSCePUfrzpot3RlhsdN+9upG308Q3PEkm4tjyg9mOPAPGfOBnTtfJpqb4d0FXTyvFO00oaVGKuQfOSOdYxXyy1V6t8dTI0y4B2yHcM9w/XTdL31bFCcf5MAoBjzP1fW3aWSl6LtFXBbI5Gelpu2Gll5HDsB6vrzwAcDI514u3T3VV5f569VVFbhE7PFSTz4SBWyTj1HHAHH2/zLvYIIVs9p2woO53d+FHq8+frpYakpayGgmrKaKeR3qQzSoGLARIRknzgkn9ToYajFhQKOJ7bk4kFq6ctS1KQLVwVU0JIZZEZTK35VU4JZgFCqo4PnWk0tgpkjB30mI9ojnkKR7ZDye2zDGxV5eXAU/UggGT4YUlLXXG9tW00VQRbbXKDKgfDtSnc3PucDJ8nROsJW72pl4aOgg2EeV9IPH08nQmrds8nMutYHMWu6jODEIzEjlomKsMekrvG7nwSBnnDeMEaIXku9FSzwzyOuAgK+BhR6T9wMf11LVyyVFdUTVEjSyNVsS7ncx4PudLt8mmS1OEldcyuThiOdp50Cvs2JXcZLAWmA7cTmSQlSpwSqgZZsH2xnUfy8wab5ZAI2QpJKzAtGP5wucrx7nSp0zW1jw3KR6uZnjUFGMhJU/Y+2rVHPO1uQtM5yCxyx5OBzooUDfieBi7e+s7yBUW621cIpaoqagPEGYkAjcQfIGWH3zjRag6666oqGmo4a6zduCJIl3yruwoAGfvxpTiJaucsSSsxxn20ewDyQCTySdNwioAMTIuQeJ//Z;" vertex="1" parent="1">
          <mxGeometry x="1103" y="370" width="90" height="90" as="geometry" />
        </mxCell>
        <mxCell id="dWsP7ECwmcrGhu4jSsE2-14" value="" style="shape=image;verticalLabelPosition=bottom;labelBackgroundColor=default;verticalAlign=top;aspect=fixed;imageAspect=0;image=data:image/jpeg,/9j/4AAQSkZJRgABAQAAAQABAAD/4gIoSUNDX1BST0ZJTEUAAQEAAAIYAAAAAAQwAABtbnRyUkdCIFhZWiAAAAAAAAAAAAAAAABhY3NwAAAAAAAAAAAAAAAAAAAAAAAAAAAAAAAAAAAAAQAA9tYAAQAAAADTLQAAAAAAAAAAAAAAAAAAAAAAAAAAAAAAAAAAAAAAAAAAAAAAAAAAAAAAAAAAAAAAAAAAAAlkZXNjAAAA8AAAAHRyWFlaAAABZAAAABRnWFlaAAABeAAAABRiWFlaAAABjAAAABRyVFJDAAABoAAAAChnVFJDAAABoAAAAChiVFJDAAABoAAAACh3dHB0AAAByAAAABRjcHJ0AAAB3AAAADxtbHVjAAAAAAAAAAEAAAAMZW5VUwAAAFgAAAAcAHMAUgBHAEIAAAAAAAAAAAAAAAAAAAAAAAAAAAAAAAAAAAAAAAAAAAAAAAAAAAAAAAAAAAAAAAAAAAAAAAAAAAAAAAAAAAAAAAAAAAAAAAAAAAAAAAAAAFhZWiAAAAAAAABvogAAOPUAAAOQWFlaIAAAAAAAAGKZAAC3hQAAGNpYWVogAAAAAAAAJKAAAA+EAAC2z3BhcmEAAAAAAAQAAAACZmYAAPKnAAANWQAAE9AAAApbAAAAAAAAAABYWVogAAAAAAAA9tYAAQAAAADTLW1sdWMAAAAAAAAAAQAAAAxlblVTAAAAIAAAABwARwBvAG8AZwBsAGUAIABJAG4AYwAuACAAMgAwADEANv/bAEMAAwICAgICAwICAgMDAwMEBgQEBAQECAYGBQYJCAoKCQgJCQoMDwwKCw4LCQkNEQ0ODxAQERAKDBITEhATDxAQEP/bAEMBAwMDBAMECAQECBALCQsQEBAQEBAQEBAQEBAQEBAQEBAQEBAQEBAQEBAQEBAQEBAQEBAQEBAQEBAQEBAQEBAQEP/AABEIAFoAWgMBIgACEQEDEQH/xAAcAAACAwADAQAAAAAAAAAAAAAEBQMGBwACCAH/xAA0EAACAgEDAwMDAwIGAgMAAAABAgMEEQUSIQAGMRMiQQcUUTJhcSNSFSQzQmKBCJFykpP/xAAaAQACAwEBAAAAAAAAAAAAAAACAwEEBQYA/8QAJhEAAgIBBAICAQUAAAAAAAAAAQIAEQMEEiFBMVEiYQUygcHR8P/aAAwDAQACEQMRAD8ArzVpCxYneq4ZQq8eeuSwxELCnoVTySASCQf4z0bXaGdZFDO4V2jb2Mm0qcHyPzx+/OOg7Ou6TW1ql21HY9O9ehnnr1zAFeZYv1MD8Yz848H8dcxZq6lI8QXUtS0Lt5GXW9SVW+znviM5eV4oNu/HxxuX+c8dSafqWiaxRh1yGKOWCeslqBQg9URSDKsASQuc856i1rtnTdcnd7/bA1m5HHIiLK6sESQBZYlJztyATj4YdFU2WtBXi+3rwkAPLFGpbY+3JHJAwMkfj8dSSlAdyLnI9Kr2p6mt36tT72pEEiKxes0ORkqruoLDPhgBg87fjqGKJtMlmkl09ayh5ZJyH9WwwUZySMls+47B45/PHKq6tZtuJ4ZbVa1OoKrM0CQxBTnauMsd2eTgbSOcHHRc+nRpdtXLtiWNmXA3RoAAcgHf5AXzgjg+CfPUHIPDG5F/Ugi0StvTVKenWZXlO/JbAOfDEEgfp4AJ8eMHrtJplkQNFDRESlCXRcB5myTtZz8ZJ/HnrpFI8VoXYNSsxxiD0k9SRduARlkGNzHIxliR+Oo59ZdA0LevuwCAZmZmA/g8E5+egG9iCJ4kVUCm0rUsiS1HUruY8AQANI3/AADef+lA/nquv2ZRn1FLOozveKe9ainZHH+zseD/ANE9WlZpcpLecNI4yE9TGRjPHyP589fLDQTLtijhSNWyDHuIz+R+R/PVtczqKMrsR1BJ712qU0uiKa10RZZvRgKxRsfKjGBnGMuRyfHHSw2bhJI0aBh+fXAz+/HHTEXEuTGJGAiEnpH2FS7EYAXjDKCcfyMdLBqFqECKPRK7qg2qz2sswHyTzz0auZ4G4u0P6laJqmn6TF3Z3KK0Nuu9iVYKzbo2iclfUmDZ8JkbQOCmeMhm3dXc3bOn2IdH7dri7qeowhUeskdp1jk2gKrbvZvBBGDtAAODnrEtS1LT68kVXUKk00mnrOxaxGQcbSCPI84BwCQBjOOrF2v3frvb2n2KlD7SOK5PFZr/AHECypHNHGNmHC5ZM7Dtz7ChC8dO2AncJovgJHE1ug+h9ly19K+4apDaWSxLSksKxkkCt6k1mU/6hBB9oIwd3ubqCP6m9u2IrMVru+lVgi98bUDHKygn2VzF7ssFCtuxgZxkHjrFZtU7+1bTZNO7t12wlFl3GuiogKq2XJdeSpZuORnI/J670dJ02nWSaa6KKyszQoE244JPHnOMeenD8agBLtyfUplmHU2UfXTtlXeppeg6penuSGRo60SLNPJgDc7ZweABk8+OoLv1Z0tKkdmzpkyWZZY41oMWeRS3zJx5P4+esu0P05O66EOh1bNiigknt2ZGG90VD7iBwqgZOzPxg89PO4KNHUIodZ7irIblyKOatTRnCTygemk8hQHaWLICMjAP446W+iwY3AIk7mHmWyl3pV1Em1UzLctozxV2hwNqttd9x8qx+B88DnrrV7qpXLMxq1miNcf1RIAjE59zYBPAOF/njz0rodv2dMgRdRrxwAD7mddODySrIJQUhjJPkt/vCqMFjt4HU9xrsMU0Vhv8tWkD+oxRoUVXJES+3dgbhzyCEAJxnoNmPdSxRNwodwV2nBLxxxsx9Es7Migt72YY5bd7dpJ46MfWLhaNvt39ONjHsC4exJ+lQB4VfwDgn56UWKCoWq3fTmsCZnT041CoWX3cZ8nI/wDrnz0x0SN4M2nT1AsZSusqM4YkgEknzgbst8Z/PQ5FWrE8K7i/VNRmD/5maRIFEWGJCbgWAwp8Nyy8/tt89FD7qIen/heNntw0IBGPyCeD18MViaaxAxiEk8gYllGAABuLLzhQRkAfOB8E9EYT+6+//L0wd375J56DeBxF2Opkn3ljXdeWbUk3xuDNULsFA4w3ny2FwM8HK589RzUK0te1GlwCrXWAxAktIWQsGCecHjjjn3fkZFsX0tNBVS3HF9rY+0Dgs7RRYGSuDgnKD/8AT+OmBs6qsWoSUbMaOwMvryuNsb7hy3HGVVSfxnp53eZ0AIi+Ob7LUEFSS000XqbYCFAMcj7gpwQSqkZBxjB/YdOdN7taGnPDVq6dashEhkuNBE7ElCxXLH9G7byQG/bPPS8Q02iq6utaOJlslZIJgR7pEBSTHkjfleOFHgHqBftdPu2q+oxxWSxjgkmjBjWaxIgY4BAGTiJv4DdFu9GLZAepqPYVTs+hAbkb0HtJF9m8byvi1I+2Us2SCABiMKpAKpnHPTmSC9FNNqAth4rMy4dYA880QXmL1d3kuSeCME4GCT1j1TUaxrG1qMuTVieEmFAHDFMCwF8nwVUsD0107VNc0S1Uu1dSiVadhZUcqJIi6ZZXKsBhOZCx85bzwOkuHJJvzKr6bd4M2GxQ+39PR9DFd3Cl7Etc5iJ4UAsx3BR445yT+R1HJSljNWhDCZBs22LEJxHG6jO0KW3EZP8A7PVN7Y+oX2gmod11TVheyzLqSqq71LMW3gHG4gDkftkEg9XKCTT+4UjOi6hJJQSwYjZWFmZ9ow6rsxgkNw7Z43H8dV/khlTJhbH5gP2Fa7ZMUVmdvQOG3KGO/wDtPx4P4x7hx11vEQwy1VqBpZFAiT1uXz4LAcqoz8eP36JtzLUtutSpNH/TEk0IZTNMFIXcACpCYycfzzwOufYNKWtO8kgmdsbSVZiQAApx+jgnot3UQSSZHXrK++Ixk12xuU8GYr+kD52jn+c89GMtxGKwyqsYOEU+QPgdfR6UVcOjo4Vf6kuzIA/C/hf36HWxHIA6uCGGQT5P89J5MjbU8/XtIehfu+pqEiyJHNNRSauYl1CkWCNOshIQtkqowcgq2cY6m0KtYuNpal1dWlDZkP8AqKZD7CPgsiMAD/b+462ChFq3ZNQdv9z6bVudt1o1ZZZGW/ptyXGfWjaTEsDlgCY3AAIzljjKCzoGiLqejWqEQ0ehRsRyVas0brEhKge52LMhPJTcfJYeAATGuR/geL7msmTb+qVzStYEtM6hXloUbVmT0YtkYRlijYucs2QBj9O7OP25zFd1aalF62pBLSCJJK0TbZykjgsUY7iCFbDK3nGB0LqWlVYZLuqVLEDVSitWgVCVijk3Rq6yH9IyG25/vXPQU6zyWrGhWoZFterBYWFWCt6WAGyfBUB9zbScEHdweGbeeDLAdSLjayNEaI1INNMyyxR1pqypues7h5FO5SCwLMFIGcY/cdTxLVgmnrV68lB4Yk3mWdQjmWTbHGr8hQGz7zn9Jz4PSXU7xgutqUddYqqxsojZ8maYADgDcQQpTdjOCuRwc9CU7ztptSskwaN5pZ7kbsQohk5jXCjdliCcYzkDO3B6IK9SQQDUskOltHps3bnqtenrIZpzDX3ethhII0GT4GMn5BOM9G1dW1Wi1qsac1L1I0WexDIUM7nIcsFbAA3YGAON354WTa3HLqsWnvaiR6iSRJa2lgXCA4J4OV5J/nPxjqaE07FAzPM89bT7Eta2JTHhVH6DxyIySeTz0O5hQYQvifMNPfffGi6YEj9C888oQyPFHLJG3otmMyf/ACx/7PHWidt/UHt7UqM0mtrX0tnFdkU75i8TqSCMD2glT7fHnnrJ3j1SWxqlSpTf73fX+2aRlYI1iMMNjY9vhvcx4AyeOj7ur0vTa5FXEtxHZDGp2EuX/qEFgf0hj7c+0fjno8ihuBEtpkYUZuF6ukshr0Z45oll4XKyMH2gEtg43DghPjOTjrsvatXaPXeqJMe/fPHu3fOfd56wbT9atadp+/SJpILDW471QxSlSloJ6RZAvks0fOfaQ4weo63fuu6bXi05e/bMYqosIT1lfbtGMbt3OMefnpYwEDzKh0Z6M9WfWD6TXdOE9PVrUlmC+ZJq805DSR2UO5Q4fjcCRhsYIJHkMD5y7Z1KxoU8On60uoQa/qOSaLxem8KKCWDk5LLuBb+mcBNnBBI69PpPLrGpaNamrJ3Ja0C1Zgp6fqGpZ9KOWGRPt9ijMgZWUKeDtCnllx0s72+iv047z1SPXtGt6z2H3Np7GOkLE726RaVVBYI3uQHaeBgcZ89c9pdRhUtR2qej5Et5tMXNrMKm7NBl1XVe39Xhi1PUakaS6NUaLbbjyXKMzpmASFckgcMQTt5HVF1B9R7V7W1ShqHZ+qVnp1vs01W1EVrx2JJ4zMHlO1WUsCqv4JyBgEdajrH0K/8AIirqBihs0O4tGsTM1jVe3UE8npleC0Qb1WIyPaPbz7gelPaPcHdHbNi/Q73e3p2iwymksOqRNFJZX1GWPeshJVQgU4ZSrFgPggaK5mwruU7h67/37SrTqKImdwaTpvcEU2jXb0VCvXeNkt1gJo3ZnAdVycODvRDg4LbWB9oyPqXaZg1Q6jo8dptBijjNorGJI4EhG+QblJAG0ZUk7dxI/UDus+uWuwO7LFWxouhWtI1TURHJFJAC0TvnEfqwrnYW3eUCeMEHOQJ29qs/06i7jk0zuFGqRHT9IvJVYzLbjUTTTOwACuBGig5UgCUcAqAdDBlbKu42D6hrkvmJdc0+p/ilfXNBuzFjaWK4s0mJNoYbJBtIGMb1O5iw3AgY9vSrSNQpzSS13EUlbU5hIk0cje/hsIy49pIGMfHx1a7EXbehNBJQv3rkeqmWnJKkg3QkkuApAHk+mxJbLbB4OT1UNMW3W1JrpZ7vo2tnrMBEJJAcBSXZiNu04xzyc+emYm3ivUYXK+Y7Tuqtbu+jqMBjsyKY2dlbfUk3uqkL/tKgjgcAE/PPS7dZ1WxPW0R45Y56kszGYoGaNtwyz71VT6iOAAeTIpYjx0RptPUO7dYikEktVblCKzY37lBmZ9pQo2M5kjdyWB/HgjqWGWXSO254tQ0uGS3VvvJGk9UyFC21Shw2NxHzlACEY5xyQIB+/UNXLGjB9K1rUKwft67QaK1JG0kNiNgslKdnIDSFsqp2ozYzliBg9XuOHSNi/e9rVDYwPWISPBf/AHeVz5z1R9a0aGwyalZeOd7bfd6nV9UjdEygxxgjaSnqqoA/WHbg4HNui0dDGhi7tqVU2jbAafqekPhNxYFseMkDOOlZWFgiSuP3Ne7o+qGj2HloaXq3cI0S7KBPqWnWIyKkYDH1UdxlE3pIhIJU4IHI60XsfuijrlCPXNL0ptVq3kli1IzzRAgLHvWaTcFkV1z7WTIX1BnoH6maDoen9o0p6GjUa0kOtWo43hrojIrwQsyggcAsSSPknPWF9k6lqM1Xu21NqFmSbZVX1GlYtghsjOc84Gf4HXE6jGuNPgKqoS5GBqege2+5NE7ilalouvVpdTVTwln1HdFbAfeix4c8ZQAHlueB090Xu+zdopqUj6R3do05xXg1GNbUTYADEWXBkjIO8ZGccAqcE9eRtEmmqUKFmpK8Myaj7ZI2KsPYPBHPWydkVq+lt3NW0yvHUig1+4Yo4EEaoTDETtC4A5JPHyT0hGfAxyI3r+f6hY8xyNRm2Vvof9DPqbUnvaB2vLp9iCSN7detKa1is3DKSFyroceQcN+R1mWp/R3tWvp030l7ivarpaaUk2o6a9GwlmZ0Y7S0ZsR+o5GADGH3cnJwAerT9GrVlNW7LkSxKrSW6cTsHILI6e5T+QfkfPWgfXmvA9PT53hjaQk+8qC3KHPP7/PXRNkbLoRqhwwPXiG6Lt3VPG1Kj2ZUqntiW3Pqekwams8tiGlmq8ahljryFRvUlOXcHKvtG5dq9MbOjfS/u3QNTq936BFplqlE1yrqOjxCo92su3ad2AxbexDCbdzz46q/eirV7t0OvWUQxT5MqRjashWMFdwHBweRnwep/q7NNHDWSOV1U078xAYgepsUbv5/fz0ks4daY8iZquWPMD7modj9oarDoWmT6rqenpYJtTPquxxIEQysm5APbux6Ske/cq8c9VG/ple5Vbt8SLZnqbd5UvJuR8hZnjRgB/SJOWJyOGzgL1cu0Xe1219RNQtO01qDWpDFPId0iE25kJVjyPYAvHxx46uWqVatWahPVrRQyWzpcc7xoFaVftz7XI/UP2PWpjdkF3z7kklDxMVnjsQdyjV1ikanqMEcVdogzTNDgk5yPd+hSowMF2yA2B0Sn06+o99Fv0+3e6Iq9kCaJPsXO1G5UZK84BHQOrTz0JNXp0ZpK8FOy4rxRMUSEbYzhAOF5546tGp/Uf6hx6lbjj797iVVnkCqNUnAADHge7rTw4Vzg7uo4ZDP/9k=;" vertex="1" parent="1">
          <mxGeometry x="1103" y="470" width="90" height="90" as="geometry" />
        </mxCell>
        <mxCell id="dWsP7ECwmcrGhu4jSsE2-15" value="" style="shape=image;verticalLabelPosition=bottom;labelBackgroundColor=default;verticalAlign=top;aspect=fixed;imageAspect=0;image=data:image/jpeg,/9j/4AAQSkZJRgABAQAAAQABAAD/4gIoSUNDX1BST0ZJTEUAAQEAAAIYAAAAAAQwAABtbnRyUkdCIFhZWiAAAAAAAAAAAAAAAABhY3NwAAAAAAAAAAAAAAAAAAAAAAAAAAAAAAAAAAAAAQAA9tYAAQAAAADTLQAAAAAAAAAAAAAAAAAAAAAAAAAAAAAAAAAAAAAAAAAAAAAAAAAAAAAAAAAAAAAAAAAAAAlkZXNjAAAA8AAAAHRyWFlaAAABZAAAABRnWFlaAAABeAAAABRiWFlaAAABjAAAABRyVFJDAAABoAAAAChnVFJDAAABoAAAAChiVFJDAAABoAAAACh3dHB0AAAByAAAABRjcHJ0AAAB3AAAADxtbHVjAAAAAAAAAAEAAAAMZW5VUwAAAFgAAAAcAHMAUgBHAEIAAAAAAAAAAAAAAAAAAAAAAAAAAAAAAAAAAAAAAAAAAAAAAAAAAAAAAAAAAAAAAAAAAAAAAAAAAAAAAAAAAAAAAAAAAAAAAAAAAAAAAAAAAFhZWiAAAAAAAABvogAAOPUAAAOQWFlaIAAAAAAAAGKZAAC3hQAAGNpYWVogAAAAAAAAJKAAAA+EAAC2z3BhcmEAAAAAAAQAAAACZmYAAPKnAAANWQAAE9AAAApbAAAAAAAAAABYWVogAAAAAAAA9tYAAQAAAADTLW1sdWMAAAAAAAAAAQAAAAxlblVTAAAAIAAAABwARwBvAG8AZwBsAGUAIABJAG4AYwAuACAAMgAwADEANv/bAEMAAwICAgICAwICAgMDAwMEBgQEBAQECAYGBQYJCAoKCQgJCQoMDwwKCw4LCQkNEQ0ODxAQERAKDBITEhATDxAQEP/bAEMBAwMDBAMECAQECBALCQsQEBAQEBAQEBAQEBAQEBAQEBAQEBAQEBAQEBAQEBAQEBAQEBAQEBAQEBAQEBAQEBAQEP/AABEIAFoAWgMBIgACEQEDEQH/xAAcAAACAwEAAwAAAAAAAAAAAAAFBgMEBwIAAQj/xAA2EAACAgEDAwMDAgUDAwUAAAABAgMEEQUSIQAGMRMiQRQyUQdxFUJSYYEjkaEWJDM0Q2KCsv/EABoBAAIDAQEAAAAAAAAAAAAAAAMEAgUGAAH/xAAjEQACAgICAgIDAQAAAAAAAAABAgARAxIEITFBEyIUUWFx/9oADAMBAAIRAxEAPwDFr2jarrFyOfUrsJeNiDTgDMAfAGWJxjOSTwMePjq5p1HTNCtNNR7fs6lNIWJnmQtG5GQzg8fJHJI8fPHRytH6M3ohpN9hNkiFACHDZOW4IU+7JAGf2z0wRLDA8Mk9sGvbZVf08BmYcBVX2rjOBz8cnqlPINaiV2NNrIita1TXpIlniWysMnsSXBGMcmOMg+wfk+efjz0c7a7b1fUkV4acNYUVkkrsQ0m1yrb0IyQSRznBOPnjovLSg1vVf4Z21Lp0bGA7S0IeCFSyqpRgOWznJ4yAx5wAYaTtp+hafLX1FK4lmkWdt4D3o1yWk452KRjO5dwyM+ehfJoLIhEXU/aWIdO1bVdUr6dpsNPRq5WMB4IwGLfZuX+tgc4Xwo8c9XKnq0dLj0qrUWdWkjmw33qNrDLADyT/AHHgZHz0I7h/UNINXinpSRz24Ih/pQoRHXMcmYo0YnGV3H1G+0fJPnrq/wB0pQrdy9warQEGl0kNqECwSbCMgO1ccoDMSvHJA46VyY2av7PDp3UkjlgrvEkxkMkiuIYUUM8hUe9gBwQOMn4z0v8Ac5iOnzR+vUlneI7lWRZXiH4254J8f56Q+0rvcOr2pe/NatWI7uqLI2niL2xx1mJGFX+VfuCr/TyTz15I0VSR7NyL1HlGTuIVmOfk/j8dOYuIMb03kRdwFlSCvHQgeS3Ys1UwAQqlXK/gn4/56r2u87s5bT9JQ160aEF58FnT52n448dR95dz1kkqw/T73ljZzAhDbMKdpzjP3AdCe1Im1gFdSUpLuBj3e3O5WPn4HtI/fH56t0wKF2YSIHuSOgpxx2QZf9bOMvgsv7/nqYdwayoCx3rKqBgLtzgfjOOr2rQNTp/SyrDKq/YZFzs+PP8Aj/noOsJ2j3QePz0QKD6kNR7mqG6tKIWifXawuRGpYlvAXIH5J8Z85zx0chtwWNLtUdTZliaN1YQexA+BtBwSQCoJJHls44GehCwWrcwaZWeZ2LIsY2ogOcMwHHA28Z+f7HHUdaqZJKnryyxnCO2cCU+dqkfyrg/tzz1n2cASaZCph+PU5j221OKun1dkzUZGhfD2Ngxu9uCsYLIDjl2wAPPUUtT11saYYKPrpF6SxRsryyYGUihBKht7nn4C5HjJHqvprNGy5WFHX1nslmDxDweBgk7sYUecjyeknXNYirXRP25pbwXa8bVDYkmJEEBZjtrJhV9RhvLAf1kAgZ6JiH5HUaDgrbQr3Nb0JdIkpXfVi1eV3KvXRVeadHxHH6ZXBRHXcXwd3GCeD0l6zrV7vKoO17c87BrkbSwLG77veco2DkgNtJyQF3EcY4uI7djazpnemqzpYvzWASJCXIRV3AqD5G3CljjL+MgZ6FUa9DsygL8mtGxrN2B50lqu4DWJVdhGzbdpVMKx2csWIPVjjwqij9yJHuaH2zDp2k6g2l6fUGoQUJZq887yhgmIlCrlcBRktj4ATbyckd91UaGmaTL3Legd/QQGNHPDuT7Qox4xnoV+mAo6Xo0om1QSXdU1TfbWLA2MyH045c+edwyP5iT469/qtq/On9vsd/1CR23kUnc2+VoxwOAqhCektHblKkFp9qMy6VonT6hrCM9uNpZI0O9sZBVc/wCSePx0r2rNpkV6dt4RHtnRg2FUbiuN37H/AJ6cUS/p260MEmWwzGJRhUXO0ePP3E4/qI+B0Cv6MliSrSpRqtSvXLPC4By+TsGc/Occ9aPF/YR1oQtR1mTX6LGw8gt1RhiyZV0Bxuz8nP46iMkwJHPH/wAevNGjhrW1tVgKkby/S2IGGQrSyDCg/AByP/qeiTfXxMYmoMGQ7TlecjoOR9GoQD2pmySyxVnWlC2ZJpNjMilio2k5I+AAP+eutLSCCN54ZnhI3LDHn7gTywxxjPnB8Ej+3Q+rHNPKzs0cwDne+eABxgY8jHRrRLUFdjajihtIiloYpgRG7j7Sw/AbHt8H56yeToTxfM6ekt2WLfbVGQttdz6ZK+SXk/lUeRyDjpYTTqEdjVe5u5bUNWrp5aStHNX4gZVCmNGXktI3OcHGf8hxUy2M2ZE9ec8u7w7SpJ5b8cZOMePIGcYz/wDVKzfv6/ofaulRrNdvzhpGRXNevDEPSVSMHbGrlnbxliQckgdF4Lln1jAo9zOaa3u9O5Kel3dUcu8QVpBgssEQ3OFzxwDgHxhs56vNq2mah3UdU0wzrp2iyxDS413bJ5EUJvw+c4POBwTgfnpgftip2nSt0q1GezI8Tvf1qFRvnYO//ZqQx2JkD2j3N72bxwpT1q2isl2eORhWEJsI+NkcYPPtyMYYEH/c460KMjHrv0J1kt/IT0qXWtBqSTTJYnj02dLN+ZWJ2rlmD8c5bDDJ4B3dOP6odvXtbgod9dvQzahSTSSLMMZ3SBfU9So6KgywPqMpABOfOOpOyavb09SRO4xplyldmWqkFumIZBPJOV2svEh3E5yfYQ3B4PWmU0qUVjZEhr1KiRwqhxDFDGCPYP6FAA55/PVVyeZ8OcUvYg3Y7XPnvTqUsWlGV4568ogRZxOjCNLJb7Dnw2WOV8+058dCbmkahYbToqiy2bNiOC1aZUCKkLFgSSTgBCBnPjeOmjX9D7y1C9r3Z1P0tcahqw1a+tZi7hZTIRKmSqnCFQdoOTtxkZPTze7W1S12z242gaBp8F61CjauLTeksL5XbNsYEs5DjciqSdn3Dq1Xk40AJPZhi4NC4l9v0qNjuCKOvD9SbSC3aSUHBhQxlx7QcsC+5dvuLEDjORpE/ZcfryYpa3GN5wkkcYZefBBkBB/OehOiaPcOut3Zq0ApPAH0+9FahkDKZwgz9NCAJ45HU7vTyyhojn+YaBZ/UCzBZlgtd166Zo3ZJPUjSZtwODmQwZc5/mPJ89L5siO1gyeiN5MWjpkMTLDJ6bqDuSGOIsEbPndxuOQP34OPGbbqkiD08ZLgZYZ2jGdxPBHjxjrKaf6q98HV5blfU3ijhtV5Hfao3kPghSwyFPjcWyR8DGetQ0N01yn9bQBetJ7JZGO5vULAmPOMHbuHjySB856o8+MoNj3BZMDJDmmUpbbxxKiShnLSOWO1AvksRxg/89RRw3dQ1GeOpK8jrFscu0cZjrqVOxAPk4BIzkkde5BOlM0qavLXeOSztrqH9THtAPOc52jDng/HS/3XrUnZXbtuaaXN07a65OJA7krlPwigM2ft3A4+SV8GPJvS+5G9QFHuJ2q6l2xpOiW9B0muL1sTfUG7QeRVksxtt4j3NtTaXJ2/cQCSc8Is9qfV7gv0S9u3NqKzRxh1X10eUFkAJIYjcThh8eOo5LY02SJqJMMaxgKA3KLjOeBydysP75GOtQ/Tr9PpNEWl3dauNNfkikenBGi+jBXlGYwWC5ZghOSPk/kdaJivBw2x7Pj/AGEasa0I526op3nkhaqW/wBRR6lBGsI+0KrrJjIUAv5H3NnyTmeNJdx2zK0RXhZIwwbIIIYHjHOT5yBj565hT1ZSFRixyxJQ5z+wzzgY/wAc9EJKgSTDD7V5UDLs34PwOs++Zifue4v2fMi0yjV095HrqgkmkaSWUQoXbcchNyqpKrj2A52gkc5yLDsoIKswLZ3rtJPGBkk+Mgde3MsUoGyIO2C6sd5A28KfgN+2eiMUlObeslVoYi2xWRgM8HOQeCARz+Ohbs57kggMEGK4EVBMY9vMRdtpLjGWAPJP25Uft8dCH7L0KZ2lk0rT9zks2+QBsn8jfwekLuzv46zqelW9LlnqSadJNiFcbGDSkAg4B3FUHyBnPI89UqX6r9406cFQNA4giWPc9mMsdoAySU5PHVunBysoaGOFRFbVq0er+tHO4evZrY9RwsEgcOCWG0lTt2xk+SMEDjza0Tuu/pn1s+gWZzaf1Eg9M7zn0igfH249ik5w2RuHjIo0Lvraxp2kwWB63py2bTSRbdoDMhbI3qV9rLsJZvdyQB1LeqrR09WqI8USSISzAkyLGQG3uBl2Djjlfa+OVyehoR4aWvxdXLPbXd2qaSs9PT9RW1E8OdwRyqyPhpZseCcoxwCThs55HVYahX1PtWa1fqtameIyPNLI5MyLGyRxMc4bcpB4II2nGc9VtBW/NDqlGEwxx6ZOI0sxoGNmMtJLJHkAuygnOOfOBx45nrh68lOCVJ4GlkC2BugjVzwWCqdxIzgjJ9ucckklQKGi7KKDVCfbcvak70dT17RxqelzKkU1RZQ4BRgxTb92QG5Vmwy5BxnrYu2P1J0HV7H8CDtpyySmtXV1BSQDICArlYyVRcKSPIGAevmLtPXYJtJp9rrQak8WoMWdHlkZnhAcOMsWUPwpGf5h5CkdNEtgQQzztqkMAWczpNI7hCw2M6sCDuw3pZOQApPjruRhOYjcwbIuTufT2mtSsLPaoOpghYxkhPvfAJA/3B/wepTFYR5LaU2aLYRHYWEge7gltxHgfOevnftzuzuftvS9Tq6PZWOe26aiz24iqxv6jeoAwycKiFSMbmAQ45587i7t7jTRO4NL3Xnl1LUYTXgAZyqpKZMKrEY4ffj5AyAQOkDw3L+eoI4f1Nn7vs9x0dEsDtqretyLLW/8LqjsgdWkf3jwBu8HPPg46hsaxpsS2NQr6pFXWrMkN0qS8U8zxtsRC3KrvdW3qC3sYkdZnW73v6xoFjTLbxp9VKWqWZW9YGq0OGU+4t7ZAQDkfdznHUdGtTs6J9BdaVUTVYbhTftBikiKbiWwwKht4IB34A6YxcUUA58GBOFhET/Wqi/BNskt6ckhtL6wwJA21VQg+/LYwR5+4456XhMJAHaZFZuSpccH8dN50rUNKr2dUGjSfw+OTb/EWQskkznMZeQjAJKqSB4PA+evK/bWiahBHfbtik5sosxb6lxuLDOcfHnrRJmUChOIYyKlYZITZZkRNU9ETQV5sFDCmdojHG5jtGA2G3nyVx0ZqT/9S6dctUNMglvU2eEwxKWilR8A7o8ruBkZjt+5tpX+o9C9TjjNzXJCi711WYBscjEMZHP+T/v0p6ZYsQ9g05Yp5Eeau7SMrEFyI+CT84yfP5PVEqCr/Ut0YkVH3+IUqlGJ6t4VSpiZrP1BjgVMERgNtBCMVKFmBIJ54XoMncTJ9VbjsytC0rqI5EzI8mYyFJztZhg4P3EEeM9d/qMqwxaf6ShPUpWi+0Y3FnYsT+ckAn84HQUSyzarqSzSM4WSd1DHOG+jc5H98gc/2HXpW02kMnQqXe5O0mlth1kkpWpZ5bNj0rPsWLgu0aMpCAjEke0DO5wfHXCwy3696TUZq9y85mFSOdD6M0CLGzcjllyyqFwSdmAQFGRugTS2+59FW3K8yu1JGEjFgy/Svwc+R/bo1Yghg7ghaCFIzFgRlFA2A2FBAx4446mrEgXFW8WJV0/V79vT7GpRS2vpDRENSxNKWeFvUMLKzAEkECMnd44K56KQmzPRqXPS+utT7BC0SnO0KzKQ2ftwjLn7sAccgGn2OAe1KeQDuvurf3G+bg/24H+w6ZYESOxH6aBfToQFNoxtO+MZH44J/wBz12Q0SJ7rREH2NQSCWjUAjicCb6doiJWCttUI5B4UFmYge4EA4IyOob9+9pOjG3UgeawKg2xqwcxuGCLhOWZSZNp+Az8gcA076In8KkRArS1NQMjAYLn6RfP56pVrFhNT0yZJ5FkLyqWDEEj6fdjP4yAf3A64AXJt01Rv0juCzoTw2GRDFWhgm+kKs7iZD7leMnaVKs6gjgMRnHHVvUadu7qFq6mpmNbEzyhErKqqGYnAG/gDPjpfo2JxTtRiaQL6M/t3HH/pN3/65/fnpViv3zEhN2ckqP8A3G/H79RBJPRnFFPZn//Z;" vertex="1" parent="1">
          <mxGeometry x="1003" y="470" width="90" height="90" as="geometry" />
        </mxCell>
        <mxCell id="dWsP7ECwmcrGhu4jSsE2-16" value="Split image" style="text;html=1;strokeColor=none;fillColor=none;align=center;verticalAlign=middle;whiteSpace=wrap;rounded=0;fontSize=22;" vertex="1" parent="1">
          <mxGeometry x="1003" y="565" width="180" height="30" as="geometry" />
        </mxCell>
        <mxCell id="dWsP7ECwmcrGhu4jSsE2-17" value="" style="shape=flexArrow;endArrow=classic;html=1;rounded=0;fontSize=22;strokeWidth=6;" edge="1" parent="1">
          <mxGeometry width="50" height="50" relative="1" as="geometry">
            <mxPoint x="837.5" y="600" as="sourcePoint" />
            <mxPoint x="903" y="740" as="targetPoint" />
            <Array as="points">
              <mxPoint x="838" y="660" />
            </Array>
          </mxGeometry>
        </mxCell>
        <mxCell id="dWsP7ECwmcrGhu4jSsE2-18" value="" style="shape=flexArrow;endArrow=classic;html=1;rounded=0;fontSize=22;strokeWidth=6;" edge="1" parent="1">
          <mxGeometry width="50" height="50" relative="1" as="geometry">
            <mxPoint x="1093" y="595" as="sourcePoint" />
            <mxPoint x="1023" y="740" as="targetPoint" />
            <Array as="points">
              <mxPoint x="1093.5" y="655" />
            </Array>
          </mxGeometry>
        </mxCell>
        <mxCell id="dWsP7ECwmcrGhu4jSsE2-20" value="" style="shape=image;verticalLabelPosition=bottom;labelBackgroundColor=default;verticalAlign=top;aspect=fixed;imageAspect=0;image=data:image/jpeg,/9j/4AAQSkZJRgABAQAAAQABAAD/4gIoSUNDX1BST0ZJTEUAAQEAAAIYAAAAAAQwAABtbnRyUkdCIFhZWiAAAAAAAAAAAAAAAABhY3NwAAAAAAAAAAAAAAAAAAAAAAAAAAAAAAAAAAAAAQAA9tYAAQAAAADTLQAAAAAAAAAAAAAAAAAAAAAAAAAAAAAAAAAAAAAAAAAAAAAAAAAAAAAAAAAAAAAAAAAAAAlkZXNjAAAA8AAAAHRyWFlaAAABZAAAABRnWFlaAAABeAAAABRiWFlaAAABjAAAABRyVFJDAAABoAAAAChnVFJDAAABoAAAAChiVFJDAAABoAAAACh3dHB0AAAByAAAABRjcHJ0AAAB3AAAADxtbHVjAAAAAAAAAAEAAAAMZW5VUwAAAFgAAAAcAHMAUgBHAEIAAAAAAAAAAAAAAAAAAAAAAAAAAAAAAAAAAAAAAAAAAAAAAAAAAAAAAAAAAAAAAAAAAAAAAAAAAAAAAAAAAAAAAAAAAAAAAAAAAAAAAAAAAFhZWiAAAAAAAABvogAAOPUAAAOQWFlaIAAAAAAAAGKZAAC3hQAAGNpYWVogAAAAAAAAJKAAAA+EAAC2z3BhcmEAAAAAAAQAAAACZmYAAPKnAAANWQAAE9AAAApbAAAAAAAAAABYWVogAAAAAAAA9tYAAQAAAADTLW1sdWMAAAAAAAAAAQAAAAxlblVTAAAAIAAAABwARwBvAG8AZwBsAGUAIABJAG4AYwAuACAAMgAwADEANv/bAEMAAwICAgICAwICAgMDAwMEBgQEBAQECAYGBQYJCAoKCQgJCQoMDwwKCw4LCQkNEQ0ODxAQERAKDBITEhATDxAQEP/bAEMBAwMDBAMECAQECBALCQsQEBAQEBAQEBAQEBAQEBAQEBAQEBAQEBAQEBAQEBAQEBAQEBAQEBAQEBAQEBAQEBAQEP/AABEIAFoAWgMBIgACEQEDEQH/xAAbAAACAwEBAQAAAAAAAAAAAAAFBgMEBwIBCP/EAD0QAAEDAwIEAwUHAAkFAAAAAAIBAwQFERIAIgYTITIxQUIHFCNRUhVhYnFygpEIJDNDsbLBwvBTVZKh4v/EABoBAAIDAQEAAAAAAAAAAAAAAAIDAAEEBQb/xAAkEQADAAICAgIBBQAAAAAAAAAAAQIDERIhBDETIjIUQUJRof/aAAwDAQACEQMRAD8A+i8m5TLUhm2/GwIV8hv47dMIcPe8xFKVFQLeZLqLgmlU2BDARcQz5XU0Trj+nTLMVkGUESVQVMh1oq/6DMer32tAle6jSQfBV2Ogfp/TqWB707CRySyEd/8A6SLfTVXCLAuW2Koq92OloJbbLqC82pqheke3TlXKfQv8WNHDHDEOpNI5UHlK5eAdMdMjns+oor8Nm4F6yLt+nb6tK9HrrLPZ0vu7tM8biOO5gJudfvXSG3sJBSk0SHSwbFsVBUHtQ+mWioxZjrJtlY75d2qozBeBOSSBf16uFMswotvWRP50vlQQFqMN6NGbceHAmyLaC/5tCX2ZEoFcxQARPEvES0aqMtxwEI3kP8Ol2pVQgBWWegaKSC7Kokxk1JuQ0oeXXrqtyD/7gP8AGrE+S86K8slUdAyCTdboV7/LTUL7DdOnNqjbjY8tfV8tHXatgyjf+GsuicQcltB5mrjXEmapuvbUcF8xymyPeGcQK6ru0tPhd1ch/VrtK828YM5JzVAlBq/UhHuIR7i0q8U+0nh3hx6YzUPtOQ5AZJ+Y1AgG+scLX3kO0SVNSeimHGRkNScmS6fLUz0mpAquMkq4dw6+caV/Se4oCqe8OUvhiTTjduAAbrL/ACumwSzXf+JUxXu8NbIHtl9moxqZVj4gQFqnKyjNNk8/CyvkUkA7ERRxIkv6StbdpjloBVv0aNQ+IZhkAynFsA9n06bG6wT+AgXUu3Wd8IcU8D8ZzuXwrxJCqMl1rn8llSR0gHuUQNEUvxW8NVONPbTw7wjKbpdJhtVuemLj6syU5Ecc7EmQ3yPu2p0T1fTrO/Y2R5qVbkCaiRWRNK9VrMrBeSV9Yjxt7YuKJ/ErdYgzm6G0ksGI1Nlvc5gWrbubh/aq5uLwTxHHw1oPB/FdF9oDbsiiTkSSwAlIgOlZ9rLuxEu9EX1J8x02FIu2GGZ0xTxLNb/LU6TpNktIe/jXrUdyNM5JNuqmy5ns3EmmJKcCJYZLFk8N2mviikAKxwxwPwmzDmVytTDSY97szHZj81188bliI+SJuIlxFNYxxnxFWuJokmDwq3Fo0MHgbjzAcd54/wB5mZdcVsG2yIPUvO2rLnH9QrFdm1iROiuy0M42A5mtJYK7YqAF61UsRDxW+elmqA9SKcxwjGgtMOtRuZLBvCzDRb0yIb5m4ogRDrJ8tt9hfSUCwbq1YnR5kydNdntRjao8xqSTMoTC+8h64muQj+lfHpjozTpNaFtuG9XIsxHxHno6CfaIl1bIiIuhrYdvMUfzRdCGXhlWeprj0OW6QyQRvorTodCQSLyVcCEe1d34ddlURlyQnMi7EMG3RMBFfhFmqlju81PIhX06RzqqEqy/Mm8P8laTVWYCPwmcwdepyNSI5CqpZCIVArpl49MlL9WqtBgcKyJb/ElNpcKOpmUYTkbAYzHuIRJE9JY3tf0+O63Bciz4b8GqWMXQPF0RF1QG1hEivl0XH+PAtU6rGeYpxxagJutMxuUCtOqymJFYVIbeO75de3brTGf+Oi+X7g6LRmZZSWYozX1XPOQALg0V7EuwlUVVBLb94+WjtOaJmNHi1Wn+8A0fIN7oq4AWwzEetkTIsl3L0+Wlrg+PVOHpTU4uR8Ih94aeU1alD1QcwEtt0IgIVTz05TOKvtKI8zGprUJuQwUV4xH4XPaXmAYp6VVraQ+e7Q5sz30DNqUSQBq1XmM094o7LSSCanJEaJRLemIoR3UeYny/VoZXuEaCchiPGgm4UWbKjHJB8ua+6PVoxIvOw/8ArboVAq9QiKolKVtp9sYT2HTHFcx2epExDb92rDz5PfDkyk35ONuAGDTTvgJ5ekFUREvUhLu0maqX2U88NdoY+F+IeOqXECkxvaVxPToUoRdisOTENjmkt1TMgMiBcSH1Ci7fBdVJdc9ovvT2Htg4lQeYVsa6gJa/kKWx/KyW0FCvVinUNHI9PcfOAZ+8xgBFxEVsaj6hXcJlfp/GvZvFtKWbIWHBYVhXT5SlDVVULra6r49LabzoOMmOkScMyJjLo0GkvKrk9BfNWbLgIDfPIt3gSnki+RFcV3aET47Ltp320cufPzcc5jwnkeX0j3dPV5rl4aRoFb4keptQh0ERYflMixKeAyV19oS7R+m+W6+5dC6bxfxBBrIVSdIOabLYxlju2BBAegoIiOIKn5fq03NjeV/QzXkVJGlxmpCgcVx4GwULfFWy4+n9S3HaWpPdmQsTjKON4ipk3e22+/H/ADD/AKLrimVeDX4vvFJzU3yuMceqg70Tdl1LoX5erRByJOZj8t4euBFkY3wEV3bvArf5V1jfKei0uuiNl9yPLCU9IQEzFSeBN+GP0+rRQ3pUnlzhJlVQSRc2URH930/P1ZaDOCThJH5SGuYqjTPXIS9A+PnuH7tWqfMEY3uLjPLumw7bRLQkVFiSLYAEpkrR5CZGSASqA+rd802lqq21zrRWyzN3Idi9CfDqGP57v51NkTnNjlZtsHSwC9wB225C/A4m37tpeWvIj7cCQHwXQDMHD3XwG+0v1JuE/wBuorF8++yB6FIEHSZhigZ80REhuIjfu/8ALU9JZkK8sNzmtNs5utZH2mQW2iXQlUe4V2qm3xtr2HUZD0lqDiiq6Atu+NhIF3f8/TqeTDqRvHIlfENTBdqWRoSv3F8+g/zq3RHq+0QRljsTG2wZfRFLcLUiyjiOwsi3XbXIfDq2uJaGnXKi0ZNDBbJAVRQvdxW6J53Tx0aKNIqAAUNzM07g+oRv0/8ArQ4+HYz5k+5GAScVTJFdNFRV6+GSf4arkL40hX4KrdFkqgw3nQcRl1HhcsimF07fv3a84n4Yiy5BuCyHNRSIzErKY/u801ns7gyQxGRmmuc2See25IjgF2gJFtsg7uu5V090VriIINPh1aGaGvwphC8CriPQT3dy27hvpl+Qo+8M0760VOG+F/ef65SeJI/MaLeOJtKwVtuY+Ifn4ffpngVSoQJjlLrjkJyf/Z4ZDvd8bj6SX09PH1JqM+GYskwegFy5jRbFF3lntVP73t/b26S6pxDHekSINWorD8YMiLl4Ouj9OOO0FUhxyTb92pjy/qn0wfw/E0mJPEBB4mzRGnicBATtLO9hx7U/4PXU8g3pMl1mGygsK6OAl6RHtyxHd3d2s84N46ooywgzJjoNOtE0Cy0wfH8BOjtNPzxJNP77bjInKjk4+1ySUxZNM8r+gcd10LLHysXhqXiuHplpu1tPZzg57wDcyQLTiCKZionnl25j+3RLltyWlZiyjSQwPYYdCAfqy7umP+7QycQsm7InOR3IkZi5S8ui4r3Floe1xtDcFwYbL7iQHgUJeFmiAg3Zedkyx+fTSKSnsH417DTE4QBZmXIBkj5xqOCAONyMsi8kER/ToZW/aRQaeMpkJDspyG6LjvJ6g1ki4rn4Ffd89DKy5UqrDjxZzMNiA7zX53xiSG60NsMDxVb2USK/p+rStLpdFpdRcqAe6vmZA+DIPXCOXRc/w29Pdt7dDGab6Re+CL9V4/4oCHTqxS6O/AiNSBcRq/WViiObzxsIIuQl23/PQNeOIKLZ7iSpo560F0MULztv8NC69xnFeZ+y6eyDkdrG7zxEaEf1YF0/TpeKoVpVVeQ91X6RTWuMTpbpAc+jcmadi7kTnW49FSyj/t/dom1HF5HHDkIDSCLljFVzP04/frk0TKOVuvMHr5+OuyROU108CK2vO/JQzYC4oCrN0c3KDTWaq+kkH3YxgKYRwFVPHIvirfHali+lNZxA4c46Fr7cj8Luq3PjXkIw62ayGj6umYEWQkvdgm6/l11tGA71xS6KK3trqKib3LJliQ5edkLol/u1rw+ZWKdJIIwmRS6h7vGj1qH7vLn4+6i9jm+JGgAOPp6kXjph4Yr3GHCEz7Dq0OVLuPKjRnWiSQ1j3AJCO9E3al4yMy9q9OYIyVpaeyOCrttzMrW+WXX8+utN4pEQ47iRgFBZUWxVtEsNkdSyW8LdV/lddG/OpQk1vf8AgFL7bM/rcDiLiN73wnmoUV93+rsFJ6tBjYvhDkpmuIll2pcuumFuNUBpQPRShtfDJszeFUf5RdxbLY37v9dFFjRhqNNijHaRmQ2qvNoCYuKm5FJPBevXr56gUiefPnEp5Q7lkt7/ABD8dc3Pnq9JkbehB40dIp7YuMzagqiSYyTUIptF6AAbZIn1eH3loTWJ8eVGaZBn3BsAJrkQxJGhEvId2RLt3X9WilYVXJ0YHFUhQrWXqlvloVVmwbF9WwEVt6Utro+Ok5nr0IYvA0y1cmbAqet3G4/tHt1ONIqToo63EqBAaZCQhZFRfBUTyTT37G4EGfNJJ0JiQiOmnxW0PojYknj8l6/nrSXpMlt0225DgiJKiChqiIl/BNHm8u8b0gV2f//Z;" vertex="1" parent="1">
          <mxGeometry x="873" y="760" width="90" height="90" as="geometry" />
        </mxCell>
        <mxCell id="dWsP7ECwmcrGhu4jSsE2-21" value="" style="shape=image;verticalLabelPosition=bottom;labelBackgroundColor=default;verticalAlign=top;aspect=fixed;imageAspect=0;image=data:image/jpeg,/9j/4AAQSkZJRgABAQAAAQABAAD/4gIoSUNDX1BST0ZJTEUAAQEAAAIYAAAAAAQwAABtbnRyUkdCIFhZWiAAAAAAAAAAAAAAAABhY3NwAAAAAAAAAAAAAAAAAAAAAAAAAAAAAAAAAAAAAQAA9tYAAQAAAADTLQAAAAAAAAAAAAAAAAAAAAAAAAAAAAAAAAAAAAAAAAAAAAAAAAAAAAAAAAAAAAAAAAAAAAlkZXNjAAAA8AAAAHRyWFlaAAABZAAAABRnWFlaAAABeAAAABRiWFlaAAABjAAAABRyVFJDAAABoAAAAChnVFJDAAABoAAAAChiVFJDAAABoAAAACh3dHB0AAAByAAAABRjcHJ0AAAB3AAAADxtbHVjAAAAAAAAAAEAAAAMZW5VUwAAAFgAAAAcAHMAUgBHAEIAAAAAAAAAAAAAAAAAAAAAAAAAAAAAAAAAAAAAAAAAAAAAAAAAAAAAAAAAAAAAAAAAAAAAAAAAAAAAAAAAAAAAAAAAAAAAAAAAAAAAAAAAAFhZWiAAAAAAAABvogAAOPUAAAOQWFlaIAAAAAAAAGKZAAC3hQAAGNpYWVogAAAAAAAAJKAAAA+EAAC2z3BhcmEAAAAAAAQAAAACZmYAAPKnAAANWQAAE9AAAApbAAAAAAAAAABYWVogAAAAAAAA9tYAAQAAAADTLW1sdWMAAAAAAAAAAQAAAAxlblVTAAAAIAAAABwARwBvAG8AZwBsAGUAIABJAG4AYwAuACAAMgAwADEANv/bAEMAAwICAgICAwICAgMDAwMEBgQEBAQECAYGBQYJCAoKCQgJCQoMDwwKCw4LCQkNEQ0ODxAQERAKDBITEhATDxAQEP/bAEMBAwMDBAMECAQECBALCQsQEBAQEBAQEBAQEBAQEBAQEBAQEBAQEBAQEBAQEBAQEBAQEBAQEBAQEBAQEBAQEBAQEP/AABEIAFoAWgMBIgACEQEDEQH/xAAcAAACAwEBAQEAAAAAAAAAAAAFBgMEBwgCAQD/xAA5EAACAQMDAwIEAwUHBQAAAAABAgMEBREAEiEGEzEiQQcUUWEyQnEIFTNSkRYjcoGhseFissHR8P/EABoBAAIDAQEAAAAAAAAAAAAAAAQFAQIDBgD/xAAjEQACAgEEAgMBAQAAAAAAAAABAgADEQQSITETIiNBUQVx/9oADAMBAAIRAxEAPwDe3grZ2K0tTu2n8wxqQUd3RVDqMn6NwdeKGRYJVMk4P0A40aqLpCEFNLGPUOWP+nOiyeZGAe4sV9LWxSI1bSMEZuD5Gqk9VQQy90BVYe6jR641gSk7QnLADBBIxjQ3prpymvNyenqPAAJXbwVP31opwMmUI+hFnqGZL2sNCiFgrg8alt3QMNyWkoKiRIlqGfYScEMAT/41rtV0vYoIpHp6GEYj2r6MtxxpQ6g6vt9ip0obPa2qKqPmOV29MSkYLZbkYGPH6aKpvsY7Ke4PdXWo329TJ+rOh6rpiqjiNX3Y34VmGMnB/roA1L/1g488Y003rqmuuysk8WXDfxH4K/oPodABTM3nLZP5RnXUaeywV/J3OU1S1+T4+oOkilTmOR1I8EN41ZhulwjUA1c6Mv5kPnV5aKIOEl3KfcFcY0QprdSSAlE3H651s1q4ziYpU2eDPtm6huTx9o1MEhJwTNHk6YhcGwM0NIT7ndpcqqIovbTdkrwdgIOpUs0uxczNnAz6NL7PGTmMavNjiaNF8xUyErJscfUcnVZqK43CqMTVGUzgaZYKSnUSTVqblQktKThEA9yfYffVXpvrHorriK4r03cO81rmNNM3aaJSclRIhP8AEjJDAMODg+PflvJt6nU4B7lSLpCkp2DVtzI3NwGbGmOy0dLbu40b85wrH6frofUSdr1VFSKnaoRAseAP/egFwvF2YsKWKTbFyTjgDUDe5kHasbrpf4kj7JmHJwedZdNb5eoq+plkG1GciM5xuA41+nuhq6kK7f3jnlfc6lku9RTlVp6dI+yeFx/voyhGr5QcwS8o/DniNtB0dYaCzvWxW6I1aqB3XXeyt4yBpIprXV2W7VNfVQJTwvIrLD/Iv0+3OP66Z6frG2UNEKnqS+2+zrVT7Y5aqpSFHk2FjtZvOFUnC88a5R+Jv7RPWHV90rLP0xVydOWrZUIBBKvzEtOMgvNIfAdWUqkYBHI3E+IXUWKzKxzmVtqqCqwHU3jqKVKqsetikgLMcSkuGUN7D0+DodFHPkZMChx/Kca5Q6GudbYbk6WK91NDVsioFiYdpypyysp9Ln9fTgjknW39J/GmgSZLZ1/ajSH8LXOkGUX7yQD1KPqYyf8ADo6n+rUi+JjgxXZozZbu+jNo6esSTRGZpBu/Kf8AjTAOmkIybjg+/p0Its9I9HFVWupjqKOdQ0E1OweOZD+YMPP+48EA6MBkwP7io8fy6CtuLtkGN6aFRcCc9XWjvPWFzmi6v6ivN6nY74I6qEPH2+2BujiRlUcrzjG4+o886vWu4XL4Ztbr/wBIu8Qnp3lelbZLA8aFQ29GO5kIwCARzz+XOoqS+09TcWq4I0iUU8XcbAEo2xKzEhvT+IE4+hOrt4hS4WmnroZpZKuNsLHt3O8gUMwK8+ldinPg/Q5xpOzEnuEZXHEbKn9oG5ChIuHSFve4SxCWCSGaSmheAnlnhYOysSGAUNgnafGnDpf4k9PdR0ps10jW1XOplC/uyaoV1c7Bu7cuBubz6SoJx6cgE6xCliluNfQUstPGI9zSSmRFKMQpbkZDLGoJ8EckYGdVnttDVRU0c8iuLglVUwZjZHOMBSzHd2xlRt3eTzqwtZPuUySOZvN7tFHBO1RQUvyzpwUYnCsPru5B+2k/qS9UHTVsqb1fa1KaKKLuiNpAJZSSVREUgkszAqMDznSVWfGm8dA2gWa/z/v6eSNkpqOeRfmIG2eh5JB6hFu2jByT7Y8jDupOpLz1j1BL1Be5o56+ZFUGNSiRRr4jjAJ2r5GMsT5JJydM6dcq15HcX6hTYeDLXxM+J1V1bejUNNJFQ0Mu62UNUiS/IiRI0YqFH8WTtjOScMSo4BJXLtZKWjXbUTNJVSSAS0gYtPJO2dhlI49IH8Mfy88a9dqo6fqI4aGiH73d4pER5VZ1p1YbJGA5Uswxn8QGdFbfQmhrKSGkjNfcZo3qK2vmO56cfhO08+nPgcHaGOgbbySWziWCYHcnp7DT9N1NLsNLU00QjnnM0ZEjkbjtZQecswGCSQq48udWrJ1RU03boPibSpVG5LNWpNUgtVUm5vTllwWQYwVGdp8eDo3YrFUVNX35qGQtAm/uu2cITjcB/Nzhf8S6+9Y9M0r2equjJQz3COECCprHKpH6wF58lcO+Afc+2k76lWbax7l1yY99KtfPh5JHeug6xKu2VbCae2SyCehq845U5Bjc5/GOR4IIyNacv7Q1q2ju9EdYxPj1RxNA6IfcK271Aex99c59D3Lqzp6RbaY6R7bTwVXzbJOHEUiOuFd92A/qb0gHAAJORrQhfcjKxykexFMrcfr7/roVtXqdOdinIhSsAOIFlijkrXr44zDSTOZ5lRj242ILBSPy5bAUnwvA8aLU1XlqENNJDPPAzDtyFQGJwwX3U4Xwf0/NoDcLzbLVNJR100UlbIscq0sbbZWICgcD0HIK4PnP186R+q+trlSWm5K8FPSCamWC3iCrUSLJvBdiRyACMD7caaj2OIIpYHMf7l150t0vdJ7PcLt2a6SkeZIodzBokBCq7D0gOxOAPvnnWXXr4ndQdTx00081JTVKxTR1ht6sqTmVQrbgfoihR9cls86zurutZerhNjHcqJmklZUAZyS2WY+T50WoU+Xp0pxIOMuxHvk/8aN8KoMmeawt1L0I7sgEOxcnHPkDjA/00UhaWjkCiFd0mR3C3BwCM/bGfGgaVRRhj8JUYYjJHB5I1fanq3jjikbDRjcQX9K+xBHsDgf9vtrM8dyBJlqnqKgyB9zM4Vn3cnaPJb3/ABfprTuiOl7fS0xuE8ewVDdwSMCO7uUDLA+QAoHPPHHGgfRHRbVTCruVMViiU9mmZcmZsZDMPZc8n9RrVKajjubJbRLHGu0O0shO1XxgRgDnn+H+pXSbXand6IZdFJlWqoRGWnhlf04KJ28FMDIDA+QFxjHsdA6iSSN5qeuZX2yIyrIitG+CDx9ANuR9CNG5JJ0rzXxxpFQvEtPO05YCnlhciNYSeNpDvvzzlhobUQU8k6gFUheQBm3AxxqcqrZHO1SM5H10rwVOczV0/JmN7snV1D0tU0NpoJrhNXXaokrkowTIYpc7EcH8R8A/oPbSwzfEOjY0bXdKYwHtmBuoEUxbeNhG7gjGMfbW5xQVNJIHqZESehAjmiDZZolOeMeSvHA8rgjydZBdvgHf7xday7x3aXZW1ElSv92Rw7Fh4jx7+2mFV+FwZIBA9oDvHUxagp6FlklkglZ4pJZCzNGHLIp4wMZ55PB0Drqu532r79QhVXxggekL7gD2GdSilMj96slEkmMlcn0f5+D/AFOp4mjdsAFI+Nz4yXH0GujXYnUDLEniWKCCKJY4oMhUjbewP4jjj/XX2PuSq0K7UKoWYk8L+ur1vsddde7PRW6q7EOC5hTulY8+osfbjOnOxfDihkppLpfrnHbU3PLTUNWrxPPTRj1TZb/IDHnx76HsvVRkydpPcSrPbZ7lc6Sjo9rTzSpEJnGI0L+5P/3Otb6Q6AFBUm73+mjio6eUsnzA3GZBGT3GH5NrZwPfOderV8Qfh9a4VoLdTzxxFF3SR03ajdgCMJnlvBAJ8YJ1F++OpOsbrQTWqshtEUUrU8VP3THHUEMGJYkepVUHOANx9+NKbr7rcrjaP2aVFc4j5coVpaqO6UdDDNRbcMqMMmE4BGBzwG4PsRn20Hp6eiopZ5pKyakt9LFHTwfMyEGFEXIcSNwwYkEv7FANE7femhklgqQiTVc8kIMkqhpNo3HYOTuJ2Bh9C3J8aGT2qCsonp6mgimhYBlDIJMMjb1ZQQQSCfcaVglThpucg8dSCX4hWfqGs/s7bp5a2siEsFFRwxhUVFSN2AU+2ZOG8H1E8auCOVEnVK7e9uYRTM+5kqIWbAJYLhAvAOTnnA4GgFl6SpbJRx1zvTz3dpJXmr0iImLySbyiSYztHpwB+IcHHA0SuE1aaua7zXGKF6dIwqKm9p3WNV7e3OCreWJ8ZIwfGtGarpZ4uFGZSuVYskojTZCYBmJGRfUmeEJH4j7A/c6iFXT04+XZamMxegoKwDaRxjB8aJQncq1tO1NTW+vSQYqIVlKN2XVotzAHOTxgZPoweMk1T9NUhgjMvUUSuUG4LaZnAOOcMHww+44OoAaUALczn2n+HfUlRE8zUBRImXfE8mSCePUfrzpot3RlhsdN+9upG308Q3PEkm4tjyg9mOPAPGfOBnTtfJpqb4d0FXTyvFO00oaVGKuQfOSOdYxXyy1V6t8dTI0y4B2yHcM9w/XTdL31bFCcf5MAoBjzP1fW3aWSl6LtFXBbI5Gelpu2Gll5HDsB6vrzwAcDI514u3T3VV5f569VVFbhE7PFSTz4SBWyTj1HHAHH2/zLvYIIVs9p2woO53d+FHq8+frpYakpayGgmrKaKeR3qQzSoGLARIRknzgkn9ToYajFhQKOJ7bk4kFq6ctS1KQLVwVU0JIZZEZTK35VU4JZgFCqo4PnWk0tgpkjB30mI9ojnkKR7ZDye2zDGxV5eXAU/UggGT4YUlLXXG9tW00VQRbbXKDKgfDtSnc3PucDJ8nROsJW72pl4aOgg2EeV9IPH08nQmrds8nMutYHMWu6jODEIzEjlomKsMekrvG7nwSBnnDeMEaIXku9FSzwzyOuAgK+BhR6T9wMf11LVyyVFdUTVEjSyNVsS7ncx4PudLt8mmS1OEldcyuThiOdp50Cvs2JXcZLAWmA7cTmSQlSpwSqgZZsH2xnUfy8wab5ZAI2QpJKzAtGP5wucrx7nSp0zW1jw3KR6uZnjUFGMhJU/Y+2rVHPO1uQtM5yCxyx5OBzooUDfieBi7e+s7yBUW621cIpaoqagPEGYkAjcQfIGWH3zjRag6666oqGmo4a6zduCJIl3yruwoAGfvxpTiJaucsSSsxxn20ewDyQCTySdNwioAMTIuQeJ//Z;" vertex="1" parent="1">
          <mxGeometry x="973" y="760" width="90" height="90" as="geometry" />
        </mxCell>
        <mxCell id="dWsP7ECwmcrGhu4jSsE2-22" value="" style="shape=image;verticalLabelPosition=bottom;labelBackgroundColor=default;verticalAlign=top;aspect=fixed;imageAspect=0;image=data:image/jpeg,/9j/4AAQSkZJRgABAQAAAQABAAD/4gIoSUNDX1BST0ZJTEUAAQEAAAIYAAAAAAQwAABtbnRyUkdCIFhZWiAAAAAAAAAAAAAAAABhY3NwAAAAAAAAAAAAAAAAAAAAAAAAAAAAAAAAAAAAAQAA9tYAAQAAAADTLQAAAAAAAAAAAAAAAAAAAAAAAAAAAAAAAAAAAAAAAAAAAAAAAAAAAAAAAAAAAAAAAAAAAAlkZXNjAAAA8AAAAHRyWFlaAAABZAAAABRnWFlaAAABeAAAABRiWFlaAAABjAAAABRyVFJDAAABoAAAAChnVFJDAAABoAAAAChiVFJDAAABoAAAACh3dHB0AAAByAAAABRjcHJ0AAAB3AAAADxtbHVjAAAAAAAAAAEAAAAMZW5VUwAAAFgAAAAcAHMAUgBHAEIAAAAAAAAAAAAAAAAAAAAAAAAAAAAAAAAAAAAAAAAAAAAAAAAAAAAAAAAAAAAAAAAAAAAAAAAAAAAAAAAAAAAAAAAAAAAAAAAAAAAAAAAAAFhZWiAAAAAAAABvogAAOPUAAAOQWFlaIAAAAAAAAGKZAAC3hQAAGNpYWVogAAAAAAAAJKAAAA+EAAC2z3BhcmEAAAAAAAQAAAACZmYAAPKnAAANWQAAE9AAAApbAAAAAAAAAABYWVogAAAAAAAA9tYAAQAAAADTLW1sdWMAAAAAAAAAAQAAAAxlblVTAAAAIAAAABwARwBvAG8AZwBsAGUAIABJAG4AYwAuACAAMgAwADEANv/bAEMAAwICAgICAwICAgMDAwMEBgQEBAQECAYGBQYJCAoKCQgJCQoMDwwKCw4LCQkNEQ0ODxAQERAKDBITEhATDxAQEP/bAEMBAwMDBAMECAQECBALCQsQEBAQEBAQEBAQEBAQEBAQEBAQEBAQEBAQEBAQEBAQEBAQEBAQEBAQEBAQEBAQEBAQEP/AABEIAFoAWgMBIgACEQEDEQH/xAAcAAACAwADAQAAAAAAAAAAAAAEBQMGBwACCAH/xAA0EAACAgEDAwMDAwIGAgMAAAABAgMEEQUSIQAGMRMiQQcUUTJhcSNSFSQzQmKBCJFykpP/xAAaAQACAwEBAAAAAAAAAAAAAAACAwEEBQYA/8QAJhEAAgIBBAICAQUAAAAAAAAAAQIAEQMEEiFBMVEiYQUygcHR8P/aAAwDAQACEQMRAD8ArzVpCxYneq4ZQq8eeuSwxELCnoVTySASCQf4z0bXaGdZFDO4V2jb2Mm0qcHyPzx+/OOg7Ou6TW1ql21HY9O9ehnnr1zAFeZYv1MD8Yz848H8dcxZq6lI8QXUtS0Lt5GXW9SVW+znviM5eV4oNu/HxxuX+c8dSafqWiaxRh1yGKOWCeslqBQg9URSDKsASQuc856i1rtnTdcnd7/bA1m5HHIiLK6sESQBZYlJztyATj4YdFU2WtBXi+3rwkAPLFGpbY+3JHJAwMkfj8dSSlAdyLnI9Kr2p6mt36tT72pEEiKxes0ORkqruoLDPhgBg87fjqGKJtMlmkl09ayh5ZJyH9WwwUZySMls+47B45/PHKq6tZtuJ4ZbVa1OoKrM0CQxBTnauMsd2eTgbSOcHHRc+nRpdtXLtiWNmXA3RoAAcgHf5AXzgjg+CfPUHIPDG5F/Ugi0StvTVKenWZXlO/JbAOfDEEgfp4AJ8eMHrtJplkQNFDRESlCXRcB5myTtZz8ZJ/HnrpFI8VoXYNSsxxiD0k9SRduARlkGNzHIxliR+Oo59ZdA0LevuwCAZmZmA/g8E5+egG9iCJ4kVUCm0rUsiS1HUruY8AQANI3/AADef+lA/nquv2ZRn1FLOozveKe9ainZHH+zseD/ANE9WlZpcpLecNI4yE9TGRjPHyP589fLDQTLtijhSNWyDHuIz+R+R/PVtczqKMrsR1BJ712qU0uiKa10RZZvRgKxRsfKjGBnGMuRyfHHSw2bhJI0aBh+fXAz+/HHTEXEuTGJGAiEnpH2FS7EYAXjDKCcfyMdLBqFqECKPRK7qg2qz2sswHyTzz0auZ4G4u0P6laJqmn6TF3Z3KK0Nuu9iVYKzbo2iclfUmDZ8JkbQOCmeMhm3dXc3bOn2IdH7dri7qeowhUeskdp1jk2gKrbvZvBBGDtAAODnrEtS1LT68kVXUKk00mnrOxaxGQcbSCPI84BwCQBjOOrF2v3frvb2n2KlD7SOK5PFZr/AHECypHNHGNmHC5ZM7Dtz7ChC8dO2AncJovgJHE1ug+h9ly19K+4apDaWSxLSksKxkkCt6k1mU/6hBB9oIwd3ubqCP6m9u2IrMVru+lVgi98bUDHKygn2VzF7ssFCtuxgZxkHjrFZtU7+1bTZNO7t12wlFl3GuiogKq2XJdeSpZuORnI/J670dJ02nWSaa6KKyszQoE244JPHnOMeenD8agBLtyfUplmHU2UfXTtlXeppeg6penuSGRo60SLNPJgDc7ZweABk8+OoLv1Z0tKkdmzpkyWZZY41oMWeRS3zJx5P4+esu0P05O66EOh1bNiigknt2ZGG90VD7iBwqgZOzPxg89PO4KNHUIodZ7irIblyKOatTRnCTygemk8hQHaWLICMjAP446W+iwY3AIk7mHmWyl3pV1Em1UzLctozxV2hwNqttd9x8qx+B88DnrrV7qpXLMxq1miNcf1RIAjE59zYBPAOF/njz0rodv2dMgRdRrxwAD7mddODySrIJQUhjJPkt/vCqMFjt4HU9xrsMU0Vhv8tWkD+oxRoUVXJES+3dgbhzyCEAJxnoNmPdSxRNwodwV2nBLxxxsx9Es7Migt72YY5bd7dpJ46MfWLhaNvt39ONjHsC4exJ+lQB4VfwDgn56UWKCoWq3fTmsCZnT041CoWX3cZ8nI/wDrnz0x0SN4M2nT1AsZSusqM4YkgEknzgbst8Z/PQ5FWrE8K7i/VNRmD/5maRIFEWGJCbgWAwp8Nyy8/tt89FD7qIen/heNntw0IBGPyCeD18MViaaxAxiEk8gYllGAABuLLzhQRkAfOB8E9EYT+6+//L0wd375J56DeBxF2Opkn3ljXdeWbUk3xuDNULsFA4w3ny2FwM8HK589RzUK0te1GlwCrXWAxAktIWQsGCecHjjjn3fkZFsX0tNBVS3HF9rY+0Dgs7RRYGSuDgnKD/8AT+OmBs6qsWoSUbMaOwMvryuNsb7hy3HGVVSfxnp53eZ0AIi+Ob7LUEFSS000XqbYCFAMcj7gpwQSqkZBxjB/YdOdN7taGnPDVq6dashEhkuNBE7ElCxXLH9G7byQG/bPPS8Q02iq6utaOJlslZIJgR7pEBSTHkjfleOFHgHqBftdPu2q+oxxWSxjgkmjBjWaxIgY4BAGTiJv4DdFu9GLZAepqPYVTs+hAbkb0HtJF9m8byvi1I+2Us2SCABiMKpAKpnHPTmSC9FNNqAth4rMy4dYA880QXmL1d3kuSeCME4GCT1j1TUaxrG1qMuTVieEmFAHDFMCwF8nwVUsD0107VNc0S1Uu1dSiVadhZUcqJIi6ZZXKsBhOZCx85bzwOkuHJJvzKr6bd4M2GxQ+39PR9DFd3Cl7Etc5iJ4UAsx3BR445yT+R1HJSljNWhDCZBs22LEJxHG6jO0KW3EZP8A7PVN7Y+oX2gmod11TVheyzLqSqq71LMW3gHG4gDkftkEg9XKCTT+4UjOi6hJJQSwYjZWFmZ9ow6rsxgkNw7Z43H8dV/khlTJhbH5gP2Fa7ZMUVmdvQOG3KGO/wDtPx4P4x7hx11vEQwy1VqBpZFAiT1uXz4LAcqoz8eP36JtzLUtutSpNH/TEk0IZTNMFIXcACpCYycfzzwOufYNKWtO8kgmdsbSVZiQAApx+jgnot3UQSSZHXrK++Ixk12xuU8GYr+kD52jn+c89GMtxGKwyqsYOEU+QPgdfR6UVcOjo4Vf6kuzIA/C/hf36HWxHIA6uCGGQT5P89J5MjbU8/XtIehfu+pqEiyJHNNRSauYl1CkWCNOshIQtkqowcgq2cY6m0KtYuNpal1dWlDZkP8AqKZD7CPgsiMAD/b+462ChFq3ZNQdv9z6bVudt1o1ZZZGW/ptyXGfWjaTEsDlgCY3AAIzljjKCzoGiLqejWqEQ0ehRsRyVas0brEhKge52LMhPJTcfJYeAATGuR/geL7msmTb+qVzStYEtM6hXloUbVmT0YtkYRlijYucs2QBj9O7OP25zFd1aalF62pBLSCJJK0TbZykjgsUY7iCFbDK3nGB0LqWlVYZLuqVLEDVSitWgVCVijk3Rq6yH9IyG25/vXPQU6zyWrGhWoZFterBYWFWCt6WAGyfBUB9zbScEHdweGbeeDLAdSLjayNEaI1INNMyyxR1pqypues7h5FO5SCwLMFIGcY/cdTxLVgmnrV68lB4Yk3mWdQjmWTbHGr8hQGz7zn9Jz4PSXU7xgutqUddYqqxsojZ8maYADgDcQQpTdjOCuRwc9CU7ztptSskwaN5pZ7kbsQohk5jXCjdliCcYzkDO3B6IK9SQQDUskOltHps3bnqtenrIZpzDX3ethhII0GT4GMn5BOM9G1dW1Wi1qsac1L1I0WexDIUM7nIcsFbAA3YGAON354WTa3HLqsWnvaiR6iSRJa2lgXCA4J4OV5J/nPxjqaE07FAzPM89bT7Eta2JTHhVH6DxyIySeTz0O5hQYQvifMNPfffGi6YEj9C888oQyPFHLJG3otmMyf/ACx/7PHWidt/UHt7UqM0mtrX0tnFdkU75i8TqSCMD2glT7fHnnrJ3j1SWxqlSpTf73fX+2aRlYI1iMMNjY9vhvcx4AyeOj7ur0vTa5FXEtxHZDGp2EuX/qEFgf0hj7c+0fjno8ihuBEtpkYUZuF6ukshr0Z45oll4XKyMH2gEtg43DghPjOTjrsvatXaPXeqJMe/fPHu3fOfd56wbT9atadp+/SJpILDW471QxSlSloJ6RZAvks0fOfaQ4weo63fuu6bXi05e/bMYqosIT1lfbtGMbt3OMefnpYwEDzKh0Z6M9WfWD6TXdOE9PVrUlmC+ZJq805DSR2UO5Q4fjcCRhsYIJHkMD5y7Z1KxoU8On60uoQa/qOSaLxem8KKCWDk5LLuBb+mcBNnBBI69PpPLrGpaNamrJ3Ja0C1Zgp6fqGpZ9KOWGRPt9ijMgZWUKeDtCnllx0s72+iv047z1SPXtGt6z2H3Np7GOkLE726RaVVBYI3uQHaeBgcZ89c9pdRhUtR2qej5Et5tMXNrMKm7NBl1XVe39Xhi1PUakaS6NUaLbbjyXKMzpmASFckgcMQTt5HVF1B9R7V7W1ShqHZ+qVnp1vs01W1EVrx2JJ4zMHlO1WUsCqv4JyBgEdajrH0K/8AIirqBihs0O4tGsTM1jVe3UE8npleC0Qb1WIyPaPbz7gelPaPcHdHbNi/Q73e3p2iwymksOqRNFJZX1GWPeshJVQgU4ZSrFgPggaK5mwruU7h67/37SrTqKImdwaTpvcEU2jXb0VCvXeNkt1gJo3ZnAdVycODvRDg4LbWB9oyPqXaZg1Q6jo8dptBijjNorGJI4EhG+QblJAG0ZUk7dxI/UDus+uWuwO7LFWxouhWtI1TURHJFJAC0TvnEfqwrnYW3eUCeMEHOQJ29qs/06i7jk0zuFGqRHT9IvJVYzLbjUTTTOwACuBGig5UgCUcAqAdDBlbKu42D6hrkvmJdc0+p/ilfXNBuzFjaWK4s0mJNoYbJBtIGMb1O5iw3AgY9vSrSNQpzSS13EUlbU5hIk0cje/hsIy49pIGMfHx1a7EXbehNBJQv3rkeqmWnJKkg3QkkuApAHk+mxJbLbB4OT1UNMW3W1JrpZ7vo2tnrMBEJJAcBSXZiNu04xzyc+emYm3ivUYXK+Y7Tuqtbu+jqMBjsyKY2dlbfUk3uqkL/tKgjgcAE/PPS7dZ1WxPW0R45Y56kszGYoGaNtwyz71VT6iOAAeTIpYjx0RptPUO7dYikEktVblCKzY37lBmZ9pQo2M5kjdyWB/HgjqWGWXSO254tQ0uGS3VvvJGk9UyFC21Shw2NxHzlACEY5xyQIB+/UNXLGjB9K1rUKwft67QaK1JG0kNiNgslKdnIDSFsqp2ozYzliBg9XuOHSNi/e9rVDYwPWISPBf/AHeVz5z1R9a0aGwyalZeOd7bfd6nV9UjdEygxxgjaSnqqoA/WHbg4HNui0dDGhi7tqVU2jbAafqekPhNxYFseMkDOOlZWFgiSuP3Ne7o+qGj2HloaXq3cI0S7KBPqWnWIyKkYDH1UdxlE3pIhIJU4IHI60XsfuijrlCPXNL0ptVq3kli1IzzRAgLHvWaTcFkV1z7WTIX1BnoH6maDoen9o0p6GjUa0kOtWo43hrojIrwQsyggcAsSSPknPWF9k6lqM1Xu21NqFmSbZVX1GlYtghsjOc84Gf4HXE6jGuNPgKqoS5GBqege2+5NE7ilalouvVpdTVTwln1HdFbAfeix4c8ZQAHlueB090Xu+zdopqUj6R3do05xXg1GNbUTYADEWXBkjIO8ZGccAqcE9eRtEmmqUKFmpK8Myaj7ZI2KsPYPBHPWydkVq+lt3NW0yvHUig1+4Yo4EEaoTDETtC4A5JPHyT0hGfAxyI3r+f6hY8xyNRm2Vvof9DPqbUnvaB2vLp9iCSN7detKa1is3DKSFyroceQcN+R1mWp/R3tWvp030l7ivarpaaUk2o6a9GwlmZ0Y7S0ZsR+o5GADGH3cnJwAerT9GrVlNW7LkSxKrSW6cTsHILI6e5T+QfkfPWgfXmvA9PT53hjaQk+8qC3KHPP7/PXRNkbLoRqhwwPXiG6Lt3VPG1Kj2ZUqntiW3Pqekwams8tiGlmq8ahljryFRvUlOXcHKvtG5dq9MbOjfS/u3QNTq936BFplqlE1yrqOjxCo92su3ad2AxbexDCbdzz46q/eirV7t0OvWUQxT5MqRjashWMFdwHBweRnwep/q7NNHDWSOV1U078xAYgepsUbv5/fz0ks4daY8iZquWPMD7modj9oarDoWmT6rqenpYJtTPquxxIEQysm5APbux6Ske/cq8c9VG/ple5Vbt8SLZnqbd5UvJuR8hZnjRgB/SJOWJyOGzgL1cu0Xe1219RNQtO01qDWpDFPId0iE25kJVjyPYAvHxx46uWqVatWahPVrRQyWzpcc7xoFaVftz7XI/UP2PWpjdkF3z7kklDxMVnjsQdyjV1ikanqMEcVdogzTNDgk5yPd+hSowMF2yA2B0Sn06+o99Fv0+3e6Iq9kCaJPsXO1G5UZK84BHQOrTz0JNXp0ZpK8FOy4rxRMUSEbYzhAOF5546tGp/Uf6hx6lbjj797iVVnkCqNUnAADHge7rTw4Vzg7uo4ZDP/9k=;" vertex="1" parent="1">
          <mxGeometry x="973" y="860" width="90" height="90" as="geometry" />
        </mxCell>
        <mxCell id="dWsP7ECwmcrGhu4jSsE2-23" value="" style="shape=image;verticalLabelPosition=bottom;labelBackgroundColor=default;verticalAlign=top;aspect=fixed;imageAspect=0;image=data:image/jpeg,/9j/4AAQSkZJRgABAQAAAQABAAD/4gIoSUNDX1BST0ZJTEUAAQEAAAIYAAAAAAQwAABtbnRyUkdCIFhZWiAAAAAAAAAAAAAAAABhY3NwAAAAAAAAAAAAAAAAAAAAAAAAAAAAAAAAAAAAAQAA9tYAAQAAAADTLQAAAAAAAAAAAAAAAAAAAAAAAAAAAAAAAAAAAAAAAAAAAAAAAAAAAAAAAAAAAAAAAAAAAAlkZXNjAAAA8AAAAHRyWFlaAAABZAAAABRnWFlaAAABeAAAABRiWFlaAAABjAAAABRyVFJDAAABoAAAAChnVFJDAAABoAAAAChiVFJDAAABoAAAACh3dHB0AAAByAAAABRjcHJ0AAAB3AAAADxtbHVjAAAAAAAAAAEAAAAMZW5VUwAAAFgAAAAcAHMAUgBHAEIAAAAAAAAAAAAAAAAAAAAAAAAAAAAAAAAAAAAAAAAAAAAAAAAAAAAAAAAAAAAAAAAAAAAAAAAAAAAAAAAAAAAAAAAAAAAAAAAAAAAAAAAAAFhZWiAAAAAAAABvogAAOPUAAAOQWFlaIAAAAAAAAGKZAAC3hQAAGNpYWVogAAAAAAAAJKAAAA+EAAC2z3BhcmEAAAAAAAQAAAACZmYAAPKnAAANWQAAE9AAAApbAAAAAAAAAABYWVogAAAAAAAA9tYAAQAAAADTLW1sdWMAAAAAAAAAAQAAAAxlblVTAAAAIAAAABwARwBvAG8AZwBsAGUAIABJAG4AYwAuACAAMgAwADEANv/bAEMAAwICAgICAwICAgMDAwMEBgQEBAQECAYGBQYJCAoKCQgJCQoMDwwKCw4LCQkNEQ0ODxAQERAKDBITEhATDxAQEP/bAEMBAwMDBAMECAQECBALCQsQEBAQEBAQEBAQEBAQEBAQEBAQEBAQEBAQEBAQEBAQEBAQEBAQEBAQEBAQEBAQEBAQEP/AABEIAFoAWgMBIgACEQEDEQH/xAAcAAACAwEAAwAAAAAAAAAAAAAFBgMEBwIAAQj/xAA2EAACAgEDAwMDAgUDAwUAAAABAgMEEQUSIQAGMRMiQRQyUQdxFUJSYYEjkaEWJDM0Q2KCsv/EABoBAAIDAQEAAAAAAAAAAAAAAAMEAgUGAAH/xAAjEQACAgICAgIDAQAAAAAAAAABAgARAxIEITFBEyIUUWFx/9oADAMBAAIRAxEAPwDFr2jarrFyOfUrsJeNiDTgDMAfAGWJxjOSTwMePjq5p1HTNCtNNR7fs6lNIWJnmQtG5GQzg8fJHJI8fPHRytH6M3ohpN9hNkiFACHDZOW4IU+7JAGf2z0wRLDA8Mk9sGvbZVf08BmYcBVX2rjOBz8cnqlPINaiV2NNrIita1TXpIlniWysMnsSXBGMcmOMg+wfk+efjz0c7a7b1fUkV4acNYUVkkrsQ0m1yrb0IyQSRznBOPnjovLSg1vVf4Z21Lp0bGA7S0IeCFSyqpRgOWznJ4yAx5wAYaTtp+hafLX1FK4lmkWdt4D3o1yWk452KRjO5dwyM+ehfJoLIhEXU/aWIdO1bVdUr6dpsNPRq5WMB4IwGLfZuX+tgc4Xwo8c9XKnq0dLj0qrUWdWkjmw33qNrDLADyT/AHHgZHz0I7h/UNINXinpSRz24Ih/pQoRHXMcmYo0YnGV3H1G+0fJPnrq/wB0pQrdy9warQEGl0kNqECwSbCMgO1ccoDMSvHJA46VyY2av7PDp3UkjlgrvEkxkMkiuIYUUM8hUe9gBwQOMn4z0v8Ac5iOnzR+vUlneI7lWRZXiH4254J8f56Q+0rvcOr2pe/NatWI7uqLI2niL2xx1mJGFX+VfuCr/TyTz15I0VSR7NyL1HlGTuIVmOfk/j8dOYuIMb03kRdwFlSCvHQgeS3Ys1UwAQqlXK/gn4/56r2u87s5bT9JQ160aEF58FnT52n448dR95dz1kkqw/T73ljZzAhDbMKdpzjP3AdCe1Im1gFdSUpLuBj3e3O5WPn4HtI/fH56t0wKF2YSIHuSOgpxx2QZf9bOMvgsv7/nqYdwayoCx3rKqBgLtzgfjOOr2rQNTp/SyrDKq/YZFzs+PP8Aj/noOsJ2j3QePz0QKD6kNR7mqG6tKIWifXawuRGpYlvAXIH5J8Z85zx0chtwWNLtUdTZliaN1YQexA+BtBwSQCoJJHls44GehCwWrcwaZWeZ2LIsY2ogOcMwHHA28Z+f7HHUdaqZJKnryyxnCO2cCU+dqkfyrg/tzz1n2cASaZCph+PU5j221OKun1dkzUZGhfD2Ngxu9uCsYLIDjl2wAPPUUtT11saYYKPrpF6SxRsryyYGUihBKht7nn4C5HjJHqvprNGy5WFHX1nslmDxDweBgk7sYUecjyeknXNYirXRP25pbwXa8bVDYkmJEEBZjtrJhV9RhvLAf1kAgZ6JiH5HUaDgrbQr3Nb0JdIkpXfVi1eV3KvXRVeadHxHH6ZXBRHXcXwd3GCeD0l6zrV7vKoO17c87BrkbSwLG77veco2DkgNtJyQF3EcY4uI7djazpnemqzpYvzWASJCXIRV3AqD5G3CljjL+MgZ6FUa9DsygL8mtGxrN2B50lqu4DWJVdhGzbdpVMKx2csWIPVjjwqij9yJHuaH2zDp2k6g2l6fUGoQUJZq887yhgmIlCrlcBRktj4ATbyckd91UaGmaTL3Legd/QQGNHPDuT7Qox4xnoV+mAo6Xo0om1QSXdU1TfbWLA2MyH045c+edwyP5iT469/qtq/On9vsd/1CR23kUnc2+VoxwOAqhCektHblKkFp9qMy6VonT6hrCM9uNpZI0O9sZBVc/wCSePx0r2rNpkV6dt4RHtnRg2FUbiuN37H/AJ6cUS/p260MEmWwzGJRhUXO0ePP3E4/qI+B0Cv6MliSrSpRqtSvXLPC4By+TsGc/Occ9aPF/YR1oQtR1mTX6LGw8gt1RhiyZV0Bxuz8nP46iMkwJHPH/wAevNGjhrW1tVgKkby/S2IGGQrSyDCg/AByP/qeiTfXxMYmoMGQ7TlecjoOR9GoQD2pmySyxVnWlC2ZJpNjMilio2k5I+AAP+eutLSCCN54ZnhI3LDHn7gTywxxjPnB8Ej+3Q+rHNPKzs0cwDne+eABxgY8jHRrRLUFdjajihtIiloYpgRG7j7Sw/AbHt8H56yeToTxfM6ekt2WLfbVGQttdz6ZK+SXk/lUeRyDjpYTTqEdjVe5u5bUNWrp5aStHNX4gZVCmNGXktI3OcHGf8hxUy2M2ZE9ec8u7w7SpJ5b8cZOMePIGcYz/wDVKzfv6/ofaulRrNdvzhpGRXNevDEPSVSMHbGrlnbxliQckgdF4Lln1jAo9zOaa3u9O5Kel3dUcu8QVpBgssEQ3OFzxwDgHxhs56vNq2mah3UdU0wzrp2iyxDS413bJ5EUJvw+c4POBwTgfnpgftip2nSt0q1GezI8Tvf1qFRvnYO//ZqQx2JkD2j3N72bxwpT1q2isl2eORhWEJsI+NkcYPPtyMYYEH/c460KMjHrv0J1kt/IT0qXWtBqSTTJYnj02dLN+ZWJ2rlmD8c5bDDJ4B3dOP6odvXtbgod9dvQzahSTSSLMMZ3SBfU9So6KgywPqMpABOfOOpOyavb09SRO4xplyldmWqkFumIZBPJOV2svEh3E5yfYQ3B4PWmU0qUVjZEhr1KiRwqhxDFDGCPYP6FAA55/PVVyeZ8OcUvYg3Y7XPnvTqUsWlGV4568ogRZxOjCNLJb7Dnw2WOV8+058dCbmkahYbToqiy2bNiOC1aZUCKkLFgSSTgBCBnPjeOmjX9D7y1C9r3Z1P0tcahqw1a+tZi7hZTIRKmSqnCFQdoOTtxkZPTze7W1S12z242gaBp8F61CjauLTeksL5XbNsYEs5DjciqSdn3Dq1Xk40AJPZhi4NC4l9v0qNjuCKOvD9SbSC3aSUHBhQxlx7QcsC+5dvuLEDjORpE/ZcfryYpa3GN5wkkcYZefBBkBB/OehOiaPcOut3Zq0ApPAH0+9FahkDKZwgz9NCAJ45HU7vTyyhojn+YaBZ/UCzBZlgtd166Zo3ZJPUjSZtwODmQwZc5/mPJ89L5siO1gyeiN5MWjpkMTLDJ6bqDuSGOIsEbPndxuOQP34OPGbbqkiD08ZLgZYZ2jGdxPBHjxjrKaf6q98HV5blfU3ijhtV5Hfao3kPghSwyFPjcWyR8DGetQ0N01yn9bQBetJ7JZGO5vULAmPOMHbuHjySB856o8+MoNj3BZMDJDmmUpbbxxKiShnLSOWO1AvksRxg/89RRw3dQ1GeOpK8jrFscu0cZjrqVOxAPk4BIzkkde5BOlM0qavLXeOSztrqH9THtAPOc52jDng/HS/3XrUnZXbtuaaXN07a65OJA7krlPwigM2ft3A4+SV8GPJvS+5G9QFHuJ2q6l2xpOiW9B0muL1sTfUG7QeRVksxtt4j3NtTaXJ2/cQCSc8Is9qfV7gv0S9u3NqKzRxh1X10eUFkAJIYjcThh8eOo5LY02SJqJMMaxgKA3KLjOeBydysP75GOtQ/Tr9PpNEWl3dauNNfkikenBGi+jBXlGYwWC5ZghOSPk/kdaJivBw2x7Pj/AGEasa0I526op3nkhaqW/wBRR6lBGsI+0KrrJjIUAv5H3NnyTmeNJdx2zK0RXhZIwwbIIIYHjHOT5yBj565hT1ZSFRixyxJQ5z+wzzgY/wAc9EJKgSTDD7V5UDLs34PwOs++Zifue4v2fMi0yjV095HrqgkmkaSWUQoXbcchNyqpKrj2A52gkc5yLDsoIKswLZ3rtJPGBkk+Mgde3MsUoGyIO2C6sd5A28KfgN+2eiMUlObeslVoYi2xWRgM8HOQeCARz+Ohbs57kggMEGK4EVBMY9vMRdtpLjGWAPJP25Uft8dCH7L0KZ2lk0rT9zks2+QBsn8jfwekLuzv46zqelW9LlnqSadJNiFcbGDSkAg4B3FUHyBnPI89UqX6r9406cFQNA4giWPc9mMsdoAySU5PHVunBysoaGOFRFbVq0er+tHO4evZrY9RwsEgcOCWG0lTt2xk+SMEDjza0Tuu/pn1s+gWZzaf1Eg9M7zn0igfH249ik5w2RuHjIo0Lvraxp2kwWB63py2bTSRbdoDMhbI3qV9rLsJZvdyQB1LeqrR09WqI8USSISzAkyLGQG3uBl2Djjlfa+OVyehoR4aWvxdXLPbXd2qaSs9PT9RW1E8OdwRyqyPhpZseCcoxwCThs55HVYahX1PtWa1fqtameIyPNLI5MyLGyRxMc4bcpB4II2nGc9VtBW/NDqlGEwxx6ZOI0sxoGNmMtJLJHkAuygnOOfOBx45nrh68lOCVJ4GlkC2BugjVzwWCqdxIzgjJ9ucckklQKGi7KKDVCfbcvak70dT17RxqelzKkU1RZQ4BRgxTb92QG5Vmwy5BxnrYu2P1J0HV7H8CDtpyySmtXV1BSQDICArlYyVRcKSPIGAevmLtPXYJtJp9rrQak8WoMWdHlkZnhAcOMsWUPwpGf5h5CkdNEtgQQzztqkMAWczpNI7hCw2M6sCDuw3pZOQApPjruRhOYjcwbIuTufT2mtSsLPaoOpghYxkhPvfAJA/3B/wepTFYR5LaU2aLYRHYWEge7gltxHgfOevnftzuzuftvS9Tq6PZWOe26aiz24iqxv6jeoAwycKiFSMbmAQ45587i7t7jTRO4NL3Xnl1LUYTXgAZyqpKZMKrEY4ffj5AyAQOkDw3L+eoI4f1Nn7vs9x0dEsDtqretyLLW/8LqjsgdWkf3jwBu8HPPg46hsaxpsS2NQr6pFXWrMkN0qS8U8zxtsRC3KrvdW3qC3sYkdZnW73v6xoFjTLbxp9VKWqWZW9YGq0OGU+4t7ZAQDkfdznHUdGtTs6J9BdaVUTVYbhTftBikiKbiWwwKht4IB34A6YxcUUA58GBOFhET/Wqi/BNskt6ckhtL6wwJA21VQg+/LYwR5+4456XhMJAHaZFZuSpccH8dN50rUNKr2dUGjSfw+OTb/EWQskkznMZeQjAJKqSB4PA+evK/bWiahBHfbtik5sosxb6lxuLDOcfHnrRJmUChOIYyKlYZITZZkRNU9ETQV5sFDCmdojHG5jtGA2G3nyVx0ZqT/9S6dctUNMglvU2eEwxKWilR8A7o8ruBkZjt+5tpX+o9C9TjjNzXJCi711WYBscjEMZHP+T/v0p6ZYsQ9g05Yp5Eeau7SMrEFyI+CT84yfP5PVEqCr/Ut0YkVH3+IUqlGJ6t4VSpiZrP1BjgVMERgNtBCMVKFmBIJ54XoMncTJ9VbjsytC0rqI5EzI8mYyFJztZhg4P3EEeM9d/qMqwxaf6ShPUpWi+0Y3FnYsT+ckAn84HQUSyzarqSzSM4WSd1DHOG+jc5H98gc/2HXpW02kMnQqXe5O0mlth1kkpWpZ5bNj0rPsWLgu0aMpCAjEke0DO5wfHXCwy3696TUZq9y85mFSOdD6M0CLGzcjllyyqFwSdmAQFGRugTS2+59FW3K8yu1JGEjFgy/Svwc+R/bo1Yghg7ghaCFIzFgRlFA2A2FBAx4446mrEgXFW8WJV0/V79vT7GpRS2vpDRENSxNKWeFvUMLKzAEkECMnd44K56KQmzPRqXPS+utT7BC0SnO0KzKQ2ftwjLn7sAccgGn2OAe1KeQDuvurf3G+bg/24H+w6ZYESOxH6aBfToQFNoxtO+MZH44J/wBz12Q0SJ7rREH2NQSCWjUAjicCb6doiJWCttUI5B4UFmYge4EA4IyOob9+9pOjG3UgeawKg2xqwcxuGCLhOWZSZNp+Az8gcA076In8KkRArS1NQMjAYLn6RfP56pVrFhNT0yZJ5FkLyqWDEEj6fdjP4yAf3A64AXJt01Rv0juCzoTw2GRDFWhgm+kKs7iZD7leMnaVKs6gjgMRnHHVvUadu7qFq6mpmNbEzyhErKqqGYnAG/gDPjpfo2JxTtRiaQL6M/t3HH/pN3/65/fnpViv3zEhN2ckqP8A3G/H79RBJPRnFFPZn//Z;" vertex="1" parent="1">
          <mxGeometry x="873" y="860" width="90" height="90" as="geometry" />
        </mxCell>
        <mxCell id="dWsP7ECwmcrGhu4jSsE2-24" value="" style="shape=image;verticalLabelPosition=bottom;labelBackgroundColor=default;verticalAlign=top;aspect=fixed;imageAspect=0;image=data:image/png,iVBORw0KGgoAAAANSUhEUgAAAMAAAADACAYAAABS3GwHAAAAAXNSR0IArs4c6QAAAARnQU1BAACxjwv8YQUAAAAJcEhZcwAADsQAAA7EAZUrDhsAAAcASURBVHhe7dzNSSxbFMVxj9p+ggYgZiDGIAYhhmEIDg3BoRk4NAJnBnBHjp04a22/+ymcScHZD9Z7+1D2Xf8fNLfYFKVW1bpFLY6W8/Pz+RJgarn+C1giALBGAGCNAMAaAYC1cnl5KbVA83l792geUY/z9fVVt4Z67//b5p+fn3VraKzvJ+t8qvdD1pwnAKwRAFgjALBGAGCNAMBaub6+br8eB9S37Ky2IWo/es8/Pj7q1tBY8/f397o11Pvrquen93XJapl4AsAaAYA1AgBrBADWCACsldvb2+brce+2R33rV1uLqC3Jmr+9vdWtIXX/RZn3Pp9Z7ZN6v/EEgDUCAGsEANYIAKwRAFgrf/78kVqgrLZnrFbn9fW1bg1F7Ue0vzp/eXmpW0PRfKzjqD/XWC2Tev/QAgENBADWCACsEQBYIwCwVh4eHlJaoLHanqz2Rm1XZrNZ3RpS91fnz8/PdWuo9/ejtkbR/r1bI/V+4wkAawQA1ggArBEAWCMAsFam02mz7hlrzY/aBqhtT1ZborYx0f7q/OnpqW4NqcfJ+rmi86bOo+ultkBqO8QTANYIAKwRAFgjALBGAGCtfL81p6wFUtsedW2P2gKprc5Y7Y3a6qjHyWqNonnvdki9H2iBAAEBgDUCAGsEANYIAKyVeVD3qGuBerdA6poftQXKakWieVZ7M51O69aQ2vb0bofU869eX1ogIAEBgDUCAGsEANYIAKwt/7Q6rc9POdT6tPb9+bT2XaRPltax/+2jKqVInyytY/8NH54AsEYAYI0AwBoBgDUCAGtlNptJvxEW/f0f9e8CRWs2orm6ViSaq7/BFK11UdcUZa296b2GJ5pHP686z7qO6v3DWiCggQDAGgGANQIAawQA1srj42PKb4Sp7ZD6Fq/+fZioPVD/Lo36m03qXG1deu8fzbPOW3Rd1Our3j/RfcgTANYIAKwRAFgjALBGAGCt3N/fS2uBstqhrDVCamuUtRYlqxVR52O1NOr+aqvTu+1hLRDQQABgjQDAGgGANQIAa+Xu7k5qgdR2SF0jFM2jt/6sNimrtVBbkaz9e3/daK6eT/U6qnP1vuIJAGsEANYIAKwRAFgjALBWbm5u2rVOIGuNUO/WKJqrrULv9mms46tft/c86/qq9xtPAFgjALBGAGCNAMAaAYC1cnV1ldICRdTWqHfLFM3VViGrtVj0r5u1fzTPun+iOU8AWCMAsEYAYI0AwBoBgLVycXHRfj3uLHorj4y1f+/jLPrxI72Po4qOwxMA1ggArBEAWCMAsEYAYK2cnZ1Jr9mllLr1/0THWfT58nL7/5RFP85Yx49kHYcnAKwRAFgjALBGAGCNAMBaOT09bbZAWW/x6jxqFaL5yspK3RpS9+89X11drVtDWfv3Pk7vuXrdo7l8X9V/AUsEANYIAKwRAFgjALBWjo+Pu7ZA6lu/2h5ELYc6n0wmdWtI3X9tba1uDUX7L8pxonnW+Y/m6v2g3m88AWCNAMAaAYA1AgBrBADWyuHhYUoLpLY66lt/VmsRtSLqfH19vW4NqftH842Njbo1pB5HnWf9vOr5j+4HtX2S26H6L2CJAMAaAYA1AgBrBADWyv7+vtQChWsqgrm69iOaq21DVisStTFZ883Nzbo1FM3V42R9P1nnM5qr1zfrvuIJAGsEANYIAKwRAFgjALBWdnd3my2Q2vaoazCit3t1DYnaNvRuaaL51tZW3RpS51nHz/q51PPZux2K5qwFAhoIAKwRAFgjALBGAGCtfL9lS2uB1LYnWoOhtj1qC7Qorc729nbdGorm6nGyvs9oPlY7pLZArAUCGggArBEAWCMAsEYAYK1867oWSH1bV1sgtW3o3faorU7vufp9ZrVAvduh6H6gBQIEBADWCACsEQBYIwCwFgZgPp83P6rWMf7LB7/Tz5qx1ifS2vfnMxaeALBGAGCNAMAaAYA1AgBrZTKZdF0LlPUbYepvDGWtEVLXxqjzsdb2RPur5yFrzU80V9eGsRYIEBAAWCMAsEYAYI0AwFrZ2dkZpQX6be2Q+ptN6lxth9S5+nXV/dXzFu2vXi+17Ynm0f3JEwDWCACsEQBYIwCwRgBgrezt7UktUPTbO9Fbtvr3gqJ2SG0D1LZBbY2yWpFo/7GOo86zznNW2xPdP7RAQAMBgDUCAGsEANYIAKyVg4ODZgsUtT1Za4Siee+1Q1nzrPYjmvduXdS5eh7U66K2OmrbQwsENBAAWCMAsEYAYI0AwFo5OjqSWqCsdkhtjdS3frVViPbPmqvtR+/91eNknTf1Oqr7q/cVTwBYIwCwRgBgjQDAGgGAtXJyciK1QJHo7bt3a6S+9feeZ7UcvdsSdf/ec/U6RvvL91v9F7BEAGCNAMAaAYA1AgBjS0v/AKFItOL2vUnJAAAAAElFTkSuQmCC;opacity=80;" vertex="1" parent="1">
          <mxGeometry x="873" y="760" width="190" height="190" as="geometry" />
        </mxCell>
        <mxCell id="dWsP7ECwmcrGhu4jSsE2-25" value="Overlay DCT output(s) onto the split images" style="text;html=1;strokeColor=none;fillColor=none;align=center;verticalAlign=middle;whiteSpace=wrap;rounded=0;fontSize=22;opacity=80;" vertex="1" parent="1">
          <mxGeometry x="838" y="970" width="260" height="30" as="geometry" />
        </mxCell>
        <mxCell id="dWsP7ECwmcrGhu4jSsE2-26" value="" style="shape=flexArrow;endArrow=classic;html=1;rounded=0;fontSize=22;strokeWidth=6;" edge="1" parent="1">
          <mxGeometry width="50" height="50" relative="1" as="geometry">
            <mxPoint x="733" y="480" as="sourcePoint" />
            <mxPoint x="673" y="480" as="targetPoint" />
          </mxGeometry>
        </mxCell>
        <mxCell id="dWsP7ECwmcrGhu4jSsE2-28" value="" style="shape=image;html=1;verticalAlign=top;verticalLabelPosition=bottom;labelBackgroundColor=#ffffff;imageAspect=0;aspect=fixed;image=https://cdn4.iconfinder.com/data/icons/internet-networking-and-communication-glyph-24/24/Down_arrow_download_button_downloading_file_download_save_file-128.png;fontSize=22;opacity=80;" vertex="1" parent="1">
          <mxGeometry x="260" y="407" width="128" height="128" as="geometry" />
        </mxCell>
        <mxCell id="dWsP7ECwmcrGhu4jSsE2-29" value="Save to file" style="text;html=1;strokeColor=none;fillColor=none;align=center;verticalAlign=middle;whiteSpace=wrap;rounded=0;fontSize=22;opacity=80;" vertex="1" parent="1">
          <mxGeometry x="254" y="535" width="126" height="30" as="geometry" />
        </mxCell>
        <mxCell id="dWsP7ECwmcrGhu4jSsE2-30" value="" style="shape=flexArrow;endArrow=classic;html=1;rounded=0;fontSize=22;strokeWidth=6;" edge="1" parent="1" target="dWsP7ECwmcrGhu4jSsE2-31">
          <mxGeometry width="50" height="50" relative="1" as="geometry">
            <mxPoint x="853" y="854.41" as="sourcePoint" />
            <mxPoint x="733" y="854" as="targetPoint" />
          </mxGeometry>
        </mxCell>
        <mxCell id="dWsP7ECwmcrGhu4jSsE2-39" value="" style="shape=cube;whiteSpace=wrap;html=1;boundedLbl=1;backgroundOutline=1;darkOpacity=0.05;darkOpacity2=0.1;fontSize=22;opacity=80;" vertex="1" parent="1">
          <mxGeometry x="417" y="790" width="340" height="120" as="geometry" />
        </mxCell>
        <mxCell id="dWsP7ECwmcrGhu4jSsE2-31" value="Repeat the DCT, Save to file, and split image steps until you reach a satisfactory result&amp;nbsp;" style="text;html=1;strokeColor=none;fillColor=none;align=center;verticalAlign=middle;whiteSpace=wrap;rounded=0;fontSize=22;opacity=80;" vertex="1" parent="1">
          <mxGeometry x="443" y="829.5" width="320" height="51" as="geometry" />
        </mxCell>
        <mxCell id="dWsP7ECwmcrGhu4jSsE2-40" value="IF the DCT affects the image enough, commit changes" style="shape=cube;whiteSpace=wrap;html=1;boundedLbl=1;backgroundOutline=1;darkOpacity=0.05;darkOpacity2=0.1;fontSize=22;opacity=80;" vertex="1" parent="1">
          <mxGeometry x="427" y="425" width="230" height="110" as="geometry" />
        </mxCell>
        <mxCell id="dWsP7ECwmcrGhu4jSsE2-42" value="" style="endArrow=classic;html=1;rounded=0;fontSize=22;strokeWidth=6;" edge="1" parent="1">
          <mxGeometry width="50" height="50" relative="1" as="geometry">
            <mxPoint x="270" y="410" as="sourcePoint" />
            <mxPoint x="170" y="310" as="targetPoint" />
          </mxGeometry>
        </mxCell>
        <mxCell id="dWsP7ECwmcrGhu4jSsE2-54" value="Image block info (2 bytes)" style="shape=cube;whiteSpace=wrap;html=1;boundedLbl=1;backgroundOutline=1;darkOpacity=0.05;darkOpacity2=0.1;fontSize=35;opacity=80;" vertex="1" parent="1">
          <mxGeometry x="-310" y="340" width="450" height="60" as="geometry" />
        </mxCell>
        <mxCell id="dWsP7ECwmcrGhu4jSsE2-53" value="&lt;span style=&quot;&quot;&gt;Block Encoding Info&lt;/span&gt;" style="text;html=1;align=center;verticalAlign=middle;resizable=0;points=[];autosize=1;strokeColor=none;fillColor=none;fontSize=35;" vertex="1" parent="1">
          <mxGeometry x="-235" y="230" width="330" height="60" as="geometry" />
        </mxCell>
        <mxCell id="dWsP7ECwmcrGhu4jSsE2-55" value="" style="endArrow=classic;html=1;rounded=0;fontSize=35;strokeWidth=6;" edge="1" parent="1">
          <mxGeometry width="50" height="50" relative="1" as="geometry">
            <mxPoint x="417" y="479.74" as="sourcePoint" />
            <mxPoint x="367" y="479.74" as="targetPoint" />
          </mxGeometry>
        </mxCell>
        <mxCell id="dWsP7ECwmcrGhu4jSsE2-56" value="Decode this block? (1 bit)" style="shape=cube;whiteSpace=wrap;html=1;boundedLbl=1;backgroundOutline=1;darkOpacity=0.05;darkOpacity2=0.1;fontSize=35;opacity=80;" vertex="1" parent="1">
          <mxGeometry x="-310" y="290" width="450" height="70" as="geometry" />
        </mxCell>
        <mxCell id="dWsP7ECwmcrGhu4jSsE2-62" value="" style="whiteSpace=wrap;html=1;aspect=fixed;labelBackgroundColor=none;fontSize=35;opacity=80;fillColor=#e51400;fontColor=#ffffff;strokeColor=#B20000;" vertex="1" parent="1">
          <mxGeometry x="-270" y="535" width="60" height="60" as="geometry" />
        </mxCell>
        <mxCell id="dWsP7ECwmcrGhu4jSsE2-63" value="&lt;font style=&quot;font-size: 33px;&quot;&gt;= Subject to change&lt;/font&gt;" style="text;strokeColor=none;fillColor=none;html=1;fontSize=24;fontStyle=1;verticalAlign=middle;align=center;labelBackgroundColor=none;opacity=80;" vertex="1" parent="1">
          <mxGeometry x="-165" y="545" width="240" height="40" as="geometry" />
        </mxCell>
      </root>
    </mxGraphModel>
  </diagram>
</mxfile>
